SplineFontDB: 3.2
FontName: POJVibes-Regular
FullName: POJ Vibes
FamilyName: POJ Vibes
Weight: Regular
Copyright: Copyright (c) 2012 TypeSETit, LLC (typesetit@att.net),\nwith Reserved Font Name "Great Vibes"
Version: 1.001
ItalicAngle: 0
UnderlinePosition: -92
UnderlineWidth: 14
Ascent: 800
Descent: 200
InvalidEm: 0
sfntRevision: 0x00010042
LayerCount: 2
Layer: 0 1 "Back" 1
Layer: 1 1 "Fore" 0
XUID: [1021 404 -861162680 27596]
StyleMap: 0x0040
FSType: 0
OS2Version: 2
OS2_WeightWidthSlopeOnly: 0
OS2_UseTypoMetrics: 0
CreationTime: 1332866514
ModificationTime: 1594876152
PfmFamily: 17
TTFWeight: 400
TTFWidth: 5
LineGap: 0
VLineGap: 0
Panose: 2 0 5 7 8 0 0 2 0 2
OS2TypoAscent: 850
OS2TypoAOffset: 0
OS2TypoDescent: -400
OS2TypoDOffset: 0
OS2TypoLinegap: 0
OS2WinAscent: 851
OS2WinAOffset: 0
OS2WinDescent: 401
OS2WinDOffset: 0
HheadAscent: 851
HheadAOffset: 0
HheadDescent: -401
HheadDOffset: 0
OS2SubXSize: 700
OS2SubYSize: 650
OS2SubXOff: 0
OS2SubYOff: 140
OS2SupXSize: 700
OS2SupYSize: 650
OS2SupXOff: 0
OS2SupYOff: 477
OS2StrikeYSize: 50
OS2StrikeYPos: 250
OS2CapHeight: 804
OS2XHeight: 344
OS2Vendor: 'pyrs'
OS2CodePages: 20000093.00000000
OS2UnicodeRanges: a000002f.5000205b.00000000.00000000
Lookup: 4 0 1 "'liga' Standard Ligatures lookup 0" { "'liga' Standard Ligatures lookup 0-1"  } ['liga' ('DFLT' <'dflt' > 'grek' <'dflt' > 'latn' <'dflt' > ) ]
Lookup: 260 0 0 "'mark' Mark Positioning lookup 1" { "'mark' Mark Positioning lookup 1-1"  } ['mark' ('DFLT' <'dflt' > 'grek' <'dflt' > 'latn' <'dflt' > ) ]
Lookup: 258 0 0 "'kern' Horizontal Kerning in Latin lookup 0" { "'kern' Horizontal Kerning in Latin lookup 0 subtable"  } ['kern' ('DFLT' <'dflt' > 'latn' <'dflt' > ) ]
MarkAttachClasses: 1
DEI: 91125
TtTable: prep
PUSHW_1
 511
SCANCTRL
PUSHB_1
 4
SCANTYPE
EndTTInstrs
ShortTable: maxp 16
  1
  0
  404
  1242
  15
  0
  0
  2
  0
  1
  1
  0
  64
  0
  0
  0
EndShort

StartChar: exclam
Encoding: 1 33 4
Width: 350
GlyphClass: 2
Flags: W
LayerCount: 2
Fore
SplineSet
502 620 m 2,0,-1
 533 619 l 1,1,-1
 538 617 l 1,2,-1
 540 611 l 1,3,4
 531 587 531 587 371.5 352 c 128,-1,5
 212 117 212 117 205 107 c 1,6,-1
 195 108 l 1,7,-1
 196 115 l 1,8,-1
 450 599 l 2,9,10
 461 620 461 620 502 620 c 2,0,-1
154 -14 m 128,-1,12
 137 -14 137 -14 128 -3.5 c 128,-1,13
 119 7 119 7 119 15 c 0,14,15
 119 42 119 42 135 55 c 128,-1,16
 151 68 151 68 168 68 c 128,-1,17
 185 68 185 68 194 57.5 c 128,-1,18
 203 47 203 47 203 39 c 128,-1,19
 203 31 203 31 201 20.5 c 128,-1,20
 199 10 199 10 185 -2 c 128,-1,11
 171 -14 171 -14 154 -14 c 128,-1,12
EndSplineSet
EndChar

StartChar: quotedbl
Encoding: 2 34 5
Width: 318
GlyphClass: 2
Flags: W
LayerCount: 2
Fore
SplineSet
308 657 m 0,0,1
 332 657 332 657 332 628 c 0,2,3
 332 597 332 597 315 529.5 c 128,-1,4
 298 462 298 462 297 459 c 2,5,-1
 287 459 l 1,6,-1
 279 625 l 2,7,8
 278 639 278 639 286 648 c 128,-1,9
 294 657 294 657 308 657 c 0,0,1
200 657 m 0,10,11
 223 657 223 657 223 623 c 128,-1,12
 223 589 223 589 189 459 c 1,13,-1
 179 459 l 1,14,-1
 170 624 l 2,15,16
 169 637 169 637 178 647 c 128,-1,17
 187 657 187 657 200 657 c 0,10,11
EndSplineSet
EndChar

StartChar: numbersign
Encoding: 3 35 6
Width: 746
GlyphClass: 2
Flags: W
LayerCount: 2
Fore
SplineSet
719 465 m 1,0,-1
 691 417 l 1,1,-1
 542 417 l 1,2,-1
 459 276 l 1,3,-1
 620 276 l 1,4,-1
 591 229 l 1,5,-1
 430 229 l 1,6,-1
 291 0 l 1,7,-1
 238 0 l 1,8,-1
 375 229 l 1,9,-1
 237 229 l 1,10,-1
 98 0 l 1,11,-1
 45 0 l 1,12,-1
 183 229 l 1,13,-1
 25 229 l 1,14,-1
 55 276 l 1,15,-1
 211 276 l 1,16,-1
 295 417 l 1,17,-1
 125 417 l 1,18,-1
 154 465 l 1,19,-1
 324 465 l 1,20,-1
 462 696 l 1,21,-1
 517 696 l 1,22,-1
 377 465 l 1,23,-1
 517 465 l 1,24,-1
 656 696 l 1,25,-1
 710 696 l 1,26,-1
 571 465 l 1,27,-1
 719 465 l 1,0,-1
488 417 m 1,28,-1
 349 417 l 1,29,-1
 264 276 l 1,30,-1
 404 276 l 1,31,-1
 488 417 l 1,28,-1
EndSplineSet
EndChar

StartChar: dollar
Encoding: 4 36 7
Width: 449
GlyphClass: 2
Flags: W
LayerCount: 2
Fore
SplineSet
457 542 m 128,-1,1
 475 518 475 518 475 489 c 128,-1,2
 475 460 475 460 459.5 440.5 c 128,-1,3
 444 421 444 421 422.5 421 c 128,-1,4
 401 421 401 421 388.5 434 c 128,-1,5
 376 447 376 447 376 465.5 c 128,-1,6
 376 484 376 484 389 496.5 c 128,-1,7
 402 509 402 509 415.5 509 c 128,-1,8
 429 509 429 509 439.5 503.5 c 128,-1,9
 450 498 450 498 452 492 c 1,10,11
 445 540 445 540 389 552 c 1,12,-1
 272 340 l 1,13,14
 339 252 339 252 339 192 c 128,-1,15
 339 132 339 132 297 86 c 128,-1,16
 255 40 255 40 198 19 c 128,-1,17
 141 -2 141 -2 83 -2 c 1,18,-1
 55 -55 l 1,19,-1
 21 -61 l 1,20,-1
 56 0 l 1,21,22
 -41 18 -41 18 -67 53 c 1,23,24
 -66 60 -66 60 -49 77 c 1,25,-1
 -40 77 l 1,26,27
 1 34 1 34 68 21 c 1,28,-1
 217 293 l 1,29,30
 157 367 157 367 157 419 c 128,-1,31
 157 471 157 471 194 508 c 0,32,33
 261 575 261 575 374 575 c 1,34,-1
 402 627 l 1,35,-1
 434 633 l 1,36,-1
 401 572 l 1,37,0
 439 566 439 566 457 542 c 128,-1,1
364 556 m 1,38,-1
 350 557 l 2,39,40
 302 557 302 557 261 525 c 128,-1,41
 220 493 220 493 220 446 c 0,42,43
 220 425 220 425 227 411 c 128,-1,44
 234 397 234 397 244.5 380.5 c 128,-1,45
 255 364 255 364 256 362 c 1,46,-1
 364 556 l 1,38,-1
276 174 m 0,47,48
 276 217 276 217 235 272 c 1,49,-1
 94 18 l 1,50,51
 163 18 163 18 219.5 62.5 c 128,-1,52
 276 107 276 107 276 174 c 0,47,48
EndSplineSet
EndChar

StartChar: percent
Encoding: 5 37 8
Width: 621
GlyphClass: 2
Flags: W
LayerCount: 2
Fore
SplineSet
271 732 m 0,0,1
 346 732 346 732 346 660 c 0,2,3
 346 574 346 574 270 470 c 0,4,5
 253 446 253 446 238 432 c 1,6,7
 252 407 252 407 280 407 c 0,8,9
 327 407 327 407 413 476 c 0,10,11
 438 496 438 496 513.5 579 c 128,-1,12
 589 662 589 662 593.5 665 c 128,-1,13
 598 668 598 668 608 668 c 128,-1,14
 618 668 618 668 620 661 c 1,15,-1
 5 -84 l 1,16,-1
 -32 -84 l 1,17,-1
 -33 -79 l 1,18,19
 110 71 110 71 278 277 c 0,20,21
 328 339 328 339 437 473 c 1,22,23
 340 390 340 390 278 390 c 0,24,25
 243 390 243 390 219 415 c 1,26,27
 175 381 175 381 134 381 c 0,28,29
 61 381 61 381 61 473 c 0,30,31
 61 516 61 516 83 564 c 0,32,33
 113 633 113 633 167.5 682.5 c 128,-1,34
 222 732 222 732 271 732 c 0,0,1
488 321 m 0,35,36
 564 321 564 321 564 245 c 128,-1,37
 564 169 564 169 502 79 c 0,38,39
 427 -29 427 -29 351 -29 c 0,40,41
 278 -29 278 -29 278 63 c 0,42,43
 278 105 278 105 300 153 c 0,44,45
 330 223 330 223 384.5 272 c 128,-1,46
 439 321 439 321 488 321 c 0,35,36
153 403 m 0,47,48
 177 403 177 403 208 429 c 1,49,50
 191 455 191 455 193 478 c 0,51,52
 193 521 193 521 227 521 c 0,53,54
 240 521 240 521 248.5 512.5 c 128,-1,55
 257 504 257 504 257 494 c 128,-1,56
 257 484 257 484 255 480 c 1,57,58
 273 505 273 505 292 550 c 0,59,60
 320 615 320 615 320 653 c 128,-1,61
 320 691 320 691 294 698 c 0,62,63
 288 700 288 700 282 700 c 0,64,65
 255 700 255 700 218.5 664.5 c 128,-1,66
 182 629 182 629 152 566 c 0,67,68
 117 493 117 493 117 448 c 128,-1,69
 117 403 117 403 153 403 c 0,47,48
369 -8 m 0,70,71
 385 -8 385 -8 407 5.5 c 128,-1,72
 429 19 429 19 440.5 32 c 128,-1,73
 452 45 452 45 474 73 c 128,-1,74
 496 101 496 101 516.5 159 c 128,-1,75
 537 217 537 217 537 245 c 0,76,77
 537 289 537 289 500 289 c 0,78,79
 472 289 472 289 435.5 254 c 128,-1,80
 399 219 399 219 369 156 c 0,81,82
 334 82 334 82 334 37 c 128,-1,83
 334 -8 334 -8 369 -8 c 0,70,71
EndSplineSet
EndChar

StartChar: ampersand
Encoding: 6 38 9
Width: 606
GlyphClass: 2
Flags: W
LayerCount: 2
Fore
SplineSet
335 398 m 1,0,-1
 402 400 l 2,1,2
 444 400 444 400 458 382 c 0,3,4
 465 374 465 374 465 366 c 128,-1,5
 465 358 465 358 460 352 c 0,6,7
 448 337 448 337 415 337 c 0,8,9
 358 337 358 337 314 381 c 1,10,11
 202 364 202 364 144 262 c 0,12,13
 107 196 107 196 107 133 c 0,14,15
 107 98 107 98 118 64 c 0,16,17
 151 -32 151 -32 261 -32 c 0,18,19
 359 -32 359 -32 431 34 c 128,-1,20
 503 100 503 100 503 165 c 0,21,22
 503 196 503 196 476.5 216.5 c 128,-1,23
 450 237 450 237 420.5 240.5 c 128,-1,24
 391 244 391 244 370.5 244 c 128,-1,25
 350 244 350 244 317.5 239.5 c 128,-1,26
 285 235 285 235 253 213 c 0,27,28
 215 187 215 187 215 144 c 128,-1,29
 215 101 215 101 282 66 c 0,30,31
 292 60 292 60 290.5 50.5 c 128,-1,32
 289 41 289 41 282 45 c 0,33,34
 219 79 219 79 193 122 c 0,35,36
 175 150 175 150 175 169 c 128,-1,37
 175 188 175 188 180 200 c 0,38,39
 192 235 192 235 240 259 c 128,-1,40
 288 283 288 283 362 283 c 2,41,-1
 539 283 l 2,42,43
 591 283 591 283 667 318 c 0,44,45
 704 335 704 335 721 358 c 0,46,47
 729 370 729 370 729 383.5 c 128,-1,48
 729 397 729 397 723 407 c 128,-1,49
 717 417 717 417 718 421 c 128,-1,50
 719 425 719 425 723.5 425 c 128,-1,51
 728 425 728 425 731 420 c 0,52,53
 745 396 745 396 745 374.5 c 128,-1,54
 745 353 745 353 732 335 c 0,55,56
 707 297 707 297 647 274 c 128,-1,57
 587 251 587 251 523 251 c 0,58,59
 521 251 521 251 518 251 c 1,60,61
 556 220 556 220 556 172 c 0,62,63
 556 105 556 105 478 34 c 0,64,65
 441 -1 441 -1 383 -23 c 128,-1,66
 325 -45 325 -45 261 -45 c 0,67,68
 106 -45 106 -45 42 45 c 0,69,70
 10 90 10 90 10 132 c 128,-1,71
 10 174 10 174 23 210 c 0,72,73
 58 305 58 305 164 357 c 0,74,75
 225 387 225 387 301 395 c 1,76,77
 273 434 273 434 273.5 493 c 128,-1,78
 274 552 274 552 325 604 c 128,-1,79
 376 656 376 656 442.5 679.5 c 128,-1,80
 509 703 509 703 572 703 c 0,81,82
 624 703 624 703 660.5 682 c 128,-1,83
 697 661 697 661 697 615 c 0,84,85
 697 586 697 586 679 563.5 c 128,-1,86
 661 541 661 541 638.5 541 c 128,-1,87
 616 541 616 541 602.5 554.5 c 128,-1,88
 589 568 589 568 589 588 c 128,-1,89
 589 608 589 608 602.5 621 c 128,-1,90
 616 634 616 634 634 634 c 0,91,92
 646 634 646 634 657 628.5 c 128,-1,93
 668 623 668 623 670 616 c 1,94,95
 671 622 671 622 671 628 c 0,96,97
 671 650 671 650 653 662 c 0,98,99
 634 676 634 676 596 676 c 128,-1,100
 558 676 558 676 507 655.5 c 128,-1,101
 456 635 456 635 411 596 c 128,-1,102
 366 557 366 557 340 500 c 0,103,104
 326 468 326 468 326 443 c 128,-1,105
 326 418 326 418 335 398 c 1,0,-1
448 367 m 0,106,107
 448 385 448 385 374 385 c 0,108,109
 359 385 359 385 343 384 c 1,110,111
 367 354 367 354 407.5 354 c 128,-1,112
 448 354 448 354 448 367 c 0,106,107
EndSplineSet
EndChar

StartChar: quotesingle
Encoding: 7 39 10
Width: 158
GlyphClass: 2
Flags: W
LayerCount: 2
Fore
SplineSet
77 390 m 0,0,1
 77 396 77 396 85 399 c 0,2,3
 115 410 115 410 136.5 432 c 128,-1,4
 158 454 158 454 162 486 c 1,5,6
 147 476 147 476 131.5 476 c 128,-1,7
 116 476 116 476 107 487 c 128,-1,8
 98 498 98 498 98 506 c 128,-1,9
 98 514 98 514 100 524.5 c 128,-1,10
 102 535 102 535 116 547 c 128,-1,11
 130 559 130 559 148.5 559 c 128,-1,12
 167 559 167 559 177.5 542.5 c 128,-1,13
 188 526 188 526 188 504 c 0,14,15
 188 460 188 460 157.5 430.5 c 128,-1,16
 127 401 127 401 88 388 c 0,17,18
 85 387 85 387 81 387 c 128,-1,19
 77 387 77 387 77 390 c 0,0,1
EndSplineSet
EndChar

StartChar: parenleft
Encoding: 8 40 11
Width: 350
GlyphClass: 2
Flags: W
LayerCount: 2
Fore
SplineSet
496 755 m 0,0,1
 505 757 505 757 512 757 c 128,-1,2
 519 757 519 757 519 751 c 0,3,4
 518 741 518 741 496 734 c 0,5,6
 431 717 431 717 372 680 c 128,-1,7
 313 643 313 643 271.5 600.5 c 128,-1,8
 230 558 230 558 196 507 c 0,9,10
 83 340 83 340 83 169 c 0,11,12
 83 40 83 40 146 -13 c 0,13,14
 176 -38 176 -38 218 -38 c 0,15,16
 227 -38 227 -38 241 -36.5 c 128,-1,17
 255 -35 255 -35 256 -44 c 0,18,19
 257 -60 257 -60 204 -60 c 128,-1,20
 151 -60 151 -60 100.5 -14.5 c 128,-1,21
 50 31 50 31 32 119 c 0,22,23
 25 154 25 154 25 204 c 128,-1,24
 25 254 25 254 41 324 c 0,25,26
 56 380 56 380 97 445.5 c 128,-1,27
 138 511 138 511 196.5 572.5 c 128,-1,28
 255 634 255 634 334.5 684 c 128,-1,29
 414 734 414 734 496 755 c 0,0,1
EndSplineSet
EndChar

StartChar: parenright
Encoding: 9 41 12
Width: 518
GlyphClass: 2
Flags: W
LayerCount: 2
Fore
SplineSet
37 -51 m 0,0,1
 28 -53 28 -53 21 -53 c 128,-1,2
 14 -53 14 -53 14 -47 c 0,3,4
 14 -36 14 -36 38 -30 c 0,5,6
 118 -9 118 -9 188 40.5 c 128,-1,7
 258 90 258 90 304 151 c 0,8,9
 450 345 450 345 450 535 c 0,10,11
 450 664 450 664 387 716 c 0,12,13
 356 742 356 742 314 742 c 0,14,15
 306 742 306 742 292.5 740.5 c 128,-1,16
 279 739 279 739 277 748 c 0,17,18
 276 764 276 764 329 764 c 128,-1,19
 382 764 382 764 432.5 718.5 c 128,-1,20
 483 673 483 673 501 585 c 0,21,22
 508 550 508 550 508 500 c 128,-1,23
 508 450 508 450 492 380 c 0,24,25
 472 304 472 304 410 217 c 128,-1,26
 348 130 348 130 247 53.5 c 128,-1,27
 146 -23 146 -23 37 -51 c 0,0,1
EndSplineSet
EndChar

StartChar: asterisk
Encoding: 10 42 13
Width: 431
GlyphClass: 2
Flags: W
LayerCount: 2
Fore
SplineSet
16 369 m 0,0,1
 16 389 16 389 37 389 c 2,2,-1
 182 389 l 1,3,4
 154 453 154 453 125 514 c 0,5,6
 116 533 116 533 129 536 c 0,7,8
 132 537 132 537 134 537 c 0,9,10
 148 537 148 537 159 515 c 2,11,-1
 218 400 l 1,12,-1
 334 517 l 2,13,14
 349 532 349 532 354 519 c 0,15,16
 356 515 356 515 356 506 c 128,-1,17
 356 497 356 497 341 481 c 2,18,-1
 256 389 l 1,19,-1
 392 389 l 2,20,21
 408 389 408 389 408 379 c 0,22,23
 408 364 408 364 383 358 c 2,24,-1
 373 357 l 1,25,-1
 241 352 l 1,26,27
 269 295 269 295 294 247 c 0,28,29
 298 239 298 239 292 226 c 0,30,31
 283 210 283 210 273.5 210 c 128,-1,32
 264 210 264 210 256 223 c 2,33,-1
 206 335 l 1,34,-1
 97 216 l 2,35,36
 90 209 90 209 77.5 212.5 c 128,-1,37
 65 216 65 216 60.5 225 c 128,-1,38
 56 234 56 234 68 248 c 2,39,-1
 168 349 l 1,40,-1
 36 344 l 2,41,42
 27 344 27 344 21.5 353 c 128,-1,43
 16 362 16 362 16 369 c 0,0,1
EndSplineSet
EndChar

StartChar: plus
Encoding: 11 43 14
Width: 458
GlyphClass: 2
Flags: W
LayerCount: 2
Fore
SplineSet
159 242 m 2,0,-1
 298 239 l 1,1,2
 301 251 301 251 308 282 c 0,3,4
 325 353 325 353 331 378 c 0,5,6
 339 405 339 405 354 405 c 0,7,8
 365 405 365 405 360.5 387 c 128,-1,9
 356 369 356 369 331 239 c 1,10,11
 350 238 350 238 395 238 c 2,12,-1
 461 238 l 2,13,14
 472 238 472 238 475.5 233 c 128,-1,15
 479 228 479 228 479 224 c 0,16,17
 479 211 479 211 458 211 c 0,18,19
 411 211 411 211 325 205 c 1,20,21
 322 187 322 187 316 156 c 0,22,23
 303 82 303 82 302 68 c 0,24,25
 300 57 300 57 278 52 c 0,26,27
 272 51 272 51 267 51 c 0,28,29
 253 51 253 51 253 63 c 0,30,31
 253 69 253 69 288 203 c 1,32,33
 264 201 264 201 212.5 198 c 128,-1,34
 161 195 161 195 147 194 c 0,35,36
 136 193 136 193 136 213 c 0,37,38
 139 239 139 239 159 242 c 2,0,-1
EndSplineSet
EndChar

StartChar: comma
Encoding: 12 44 15
Width: 153
GlyphClass: 2
Flags: W
LayerCount: 2
Fore
SplineSet
114 20 m 0,0,1
 114 -25 114 -25 81.5 -57 c 128,-1,2
 49 -89 49 -89 10 -102 c 0,3,4
 6 -104 6 -104 3 -104 c 128,-1,5
 0 -104 0 -104 0 -99 c 128,-1,6
 0 -94 0 -94 8 -91 c 0,7,8
 38 -81 38 -81 59 -58.5 c 128,-1,9
 80 -36 80 -36 84 -4 c 1,10,11
 71 -14 71 -14 55 -14 c 128,-1,12
 39 -14 39 -14 29 -2 c 128,-1,13
 19 10 19 10 22 27 c 0,14,15
 24 44 24 44 38.5 56 c 128,-1,16
 53 68 53 68 72 68 c 128,-1,17
 91 68 91 68 102.5 54.5 c 128,-1,18
 114 41 114 41 114 20 c 0,0,1
EndSplineSet
EndChar

StartChar: hyphen
Encoding: 13 45 16
Width: 406
GlyphClass: 2
Flags: W
LayerCount: 2
Fore
SplineSet
147 221 m 0,0,1
 147 242 147 242 164 242 c 0,2,3
 229 242 229 242 384 238 c 0,4,5
 401 237 401 237 405 225 c 1,6,7
 403 213 403 213 388 211 c 0,8,9
 310 211 310 211 236.5 202.5 c 128,-1,10
 163 194 163 194 163 194 c 2,11,12
 157 194 157 194 152 203.5 c 128,-1,13
 147 213 147 213 147 221 c 0,0,1
EndSplineSet
EndChar

StartChar: period
Encoding: 14 46 17
Width: 208
GlyphClass: 2
Flags: W
LayerCount: 2
Fore
SplineSet
137 -14 m 128,-1,1
 120 -14 120 -14 111 -3.5 c 128,-1,2
 102 7 102 7 102 15 c 0,3,4
 102 42 102 42 118 55 c 128,-1,5
 134 68 134 68 151 68 c 128,-1,6
 168 68 168 68 177 57.5 c 128,-1,7
 186 47 186 47 186 39 c 128,-1,8
 186 31 186 31 184 20.5 c 128,-1,9
 182 10 182 10 168 -2 c 128,-1,0
 154 -14 154 -14 137 -14 c 128,-1,1
EndSplineSet
EndChar

StartChar: slash
Encoding: 15 47 18
Width: 548
GlyphClass: 2
Flags: W
LayerCount: 2
Fore
SplineSet
232 159 m 0,0,1
 61 -41 61 -41 24 -41 c 0,2,3
 16 -41 16 -41 16 -33.5 c 128,-1,4
 16 -26 16 -26 32 -12.5 c 128,-1,5
 48 1 48 1 79.5 35.5 c 128,-1,6
 111 70 111 70 156.5 124 c 128,-1,7
 202 178 202 178 244.5 229.5 c 128,-1,8
 287 281 287 281 351 362 c 128,-1,9
 415 443 415 443 460.5 499.5 c 128,-1,10
 506 556 506 556 581 652 c 128,-1,11
 656 748 656 748 698 800 c 0,12,13
 710 816 710 816 732.5 816 c 128,-1,14
 755 816 755 816 755 802 c 0,15,16
 755 795 755 795 748 788 c 0,17,18
 696 728 696 728 531 522 c 128,-1,19
 366 316 366 316 232 159 c 0,0,1
EndSplineSet
EndChar

StartChar: zero
Encoding: 16 48 19
Width: 502
GlyphClass: 2
Flags: W
LayerCount: 2
Fore
SplineSet
505 468 m 0,0,1
 505 408 505 408 476 326.5 c 128,-1,2
 447 245 447 245 401.5 169.5 c 128,-1,3
 356 94 356 94 290.5 41.5 c 128,-1,4
 225 -11 225 -11 166.5 -11 c 128,-1,5
 108 -11 108 -11 80 26.5 c 128,-1,6
 52 64 52 64 52 119 c 0,7,8
 52 196 52 196 106 304 c 128,-1,9
 160 412 160 412 246.5 495.5 c 128,-1,10
 333 579 333 579 412 579 c 0,11,12
 505 579 505 579 505 468 c 0,0,1
423 311.5 m 128,-1,14
 467 424 467 424 467 492 c 128,-1,15
 467 560 467 560 413 560 c 0,16,17
 367 560 367 560 311.5 501.5 c 128,-1,18
 256 443 256 443 213 364.5 c 128,-1,19
 170 286 170 286 141 206.5 c 128,-1,20
 112 127 112 127 112 84 c 0,21,22
 112 9 112 9 173 9 c 0,23,24
 236 9 236 9 307.5 104 c 128,-1,13
 379 199 379 199 423 311.5 c 128,-1,14
EndSplineSet
EndChar

StartChar: one
Encoding: 17 49 20
Width: 378
GlyphClass: 2
Flags: W
LayerCount: 2
Fore
SplineSet
70 -2 m 1,0,-1
 61 0 l 1,1,-1
 60 6 l 1,2,3
 110 95 110 95 201 258 c 128,-1,4
 292 421 292 421 330 488 c 1,5,6
 249 415 249 415 167 365 c 1,7,-1
 163 365 l 1,8,-1
 159 373 l 1,9,-1
 161 379 l 1,10,11
 294 480 294 480 333 522 c 128,-1,12
 372 564 372 564 389 566 c 2,13,-1
 420 569 l 2,14,15
 421 569 421 569 422 569 c 128,-1,16
 423 569 423 569 426 568 c 2,17,-1
 426 563 l 1,18,-1
 122 5 l 2,19,20
 117 2 117 2 70 -2 c 1,0,-1
EndSplineSet
EndChar

StartChar: two
Encoding: 18 50 21
Width: 488
GlyphClass: 2
Flags: W
LayerCount: 2
Fore
SplineSet
324.5 256 m 128,-1,1
 270 208 270 208 247 188.5 c 128,-1,2
 224 169 224 169 183.5 136 c 128,-1,3
 143 103 143 103 141 101 c 1,4,5
 255 44 255 44 279 44 c 128,-1,6
 303 44 303 44 328 61 c 128,-1,7
 353 78 353 78 370 97 c 128,-1,8
 387 116 387 116 391 117 c 2,9,-1
 398 111 l 1,10,-1
 398 107 l 1,11,12
 300 -12 300 -12 240 -12 c 0,13,14
 219 -12 219 -12 179.5 5 c 128,-1,15
 140 22 140 22 113.5 34 c 128,-1,16
 87 46 87 46 84 47 c 2,17,-1
 14 -8 l 1,18,-1
 1 0 l 1,19,20
 2 5 2 5 48 55.5 c 128,-1,21
 94 106 94 106 99 108 c 0,22,23
 114 110 114 110 121 107 c 1,24,25
 433 385 433 385 433 501 c 0,26,27
 433 545 433 545 383 545 c 128,-1,28
 333 545 333 545 287.5 496.5 c 128,-1,29
 242 448 242 448 220 390 c 1,30,-1
 216 386 l 1,31,-1
 204 386 l 1,32,-1
 202 392 l 1,33,34
 228 465 228 465 285 520.5 c 128,-1,35
 342 576 342 576 412 576 c 0,36,37
 452 576 452 576 477.5 554 c 128,-1,38
 503 532 503 532 503 490 c 128,-1,39
 503 448 503 448 441 376 c 128,-1,0
 379 304 379 304 324.5 256 c 128,-1,1
EndSplineSet
EndChar

StartChar: three
Encoding: 19 51 22
Width: 458
GlyphClass: 2
Flags: W
LayerCount: 2
Fore
SplineSet
486 516 m 0,0,1
 486 407 486 407 264 327 c 1,2,3
 318 327 318 327 358.5 305.5 c 128,-1,4
 399 284 399 284 399 230.5 c 128,-1,5
 399 177 399 177 348.5 118 c 128,-1,6
 298 59 298 59 229 24 c 128,-1,7
 160 -11 160 -11 101.5 -11 c 128,-1,8
 43 -11 43 -11 10 13 c 1,9,-1
 10 18 l 1,10,-1
 17 24 l 1,11,-1
 22 26 l 1,12,13
 54 11 54 11 92 11 c 0,14,15
 170 11 170 11 250.5 87.5 c 128,-1,16
 331 164 331 164 331 243 c 0,17,18
 331 272 331 272 311 288.5 c 128,-1,19
 291 305 291 305 266.5 305 c 128,-1,20
 242 305 242 305 191 291 c 1,21,-1
 184 294 l 1,22,-1
 183 303 l 1,23,-1
 187 308 l 1,24,25
 340 371 340 371 392 442 c 0,26,27
 417 476 417 476 417 511 c 128,-1,28
 417 546 417 546 378 546 c 0,29,30
 319 546 319 546 240 457 c 1,31,-1
 235 457 l 1,32,-1
 228 463 l 1,33,-1
 228 468 l 1,34,35
 318 578 318 578 410 578 c 0,36,37
 443 578 443 578 464.5 563 c 128,-1,38
 486 548 486 548 486 516 c 0,0,1
EndSplineSet
EndChar

StartChar: four
Encoding: 20 52 23
Width: 464
GlyphClass: 2
Flags: W
LayerCount: 2
Fore
SplineSet
438 353 m 2,0,-1
 456 354 l 1,1,-1
 462 351 l 1,2,-1
 463 345 l 2,3,4
 463 342 463 342 433 283 c 128,-1,5
 403 224 403 224 396 212 c 1,6,-1
 420 212 l 1,7,-1
 426 208 l 1,8,-1
 421 197 l 1,9,-1
 414 192 l 1,10,-1
 385 191 l 1,11,12
 296 13 296 13 292 9 c 128,-1,13
 288 5 288 5 261 -1 c 128,-1,14
 234 -7 234 -7 227 -7 c 2,15,-1
 222 -6 l 1,16,-1
 222 -2 l 2,17,18
 222 10 222 10 322 188 c 1,19,-1
 79 182 l 1,20,-1
 79 190 l 1,21,22
 88 208 88 208 154 275 c 0,23,24
 283 404 283 404 374 526 c 0,25,26
 394 551 394 551 407 556.5 c 128,-1,27
 420 562 420 562 426.5 563.5 c 128,-1,28
 433 565 433 565 449.5 567.5 c 128,-1,29
 466 570 466 570 477 572 c 1,30,-1
 484 569 l 1,31,-1
 485 562 l 2,32,33
 485 543 485 543 352 418 c 0,34,35
 316 384 316 384 275.5 347.5 c 128,-1,36
 235 311 235 311 204.5 283.5 c 128,-1,37
 174 256 174 256 147 232 c 128,-1,38
 120 208 120 208 117 205 c 1,39,-1
 334 209 l 1,40,-1
 399 335 l 2,41,42
 404 346 404 346 414 348 c 0,43,44
 430 353 430 353 438 353 c 2,0,-1
EndSplineSet
EndChar

StartChar: five
Encoding: 21 53 24
Width: 445
GlyphClass: 2
Flags: W
LayerCount: 2
Fore
SplineSet
273 554 m 1,0,1
 299 563 299 563 317.5 563 c 128,-1,2
 336 563 336 563 356.5 560 c 128,-1,3
 377 557 377 557 426 557 c 128,-1,4
 475 557 475 557 503 578 c 1,5,-1
 507 576 l 1,6,7
 490 531 490 531 447 512 c 128,-1,8
 404 493 404 493 361 493 c 2,9,-1
 259 496 l 1,10,-1
 149 305 l 1,11,12
 216 350 216 350 283 350 c 0,13,14
 327 350 327 350 355 328 c 128,-1,15
 383 306 383 306 383 263 c 0,16,17
 383 197 383 197 328.5 131.5 c 128,-1,18
 274 66 274 66 198.5 26.5 c 128,-1,19
 123 -13 123 -13 64 -13 c 128,-1,20
 5 -13 5 -13 -12 -1 c 1,21,-1
 -12 6 l 1,22,-1
 -6 13 l 1,23,-1
 -2 15 l 1,24,25
 22 6 22 6 60 6 c 0,26,27
 144 6 144 6 230 91 c 128,-1,28
 316 176 316 176 316 260 c 0,29,30
 316 291 316 291 299 307.5 c 128,-1,31
 282 324 282 324 255.5 324 c 128,-1,32
 229 324 229 324 208 316 c 128,-1,33
 187 308 187 308 158 290.5 c 128,-1,34
 129 273 129 273 119 268 c 1,35,-1
 113 270 l 1,36,-1
 113 276 l 1,37,38
 120 296 120 296 191.5 421 c 128,-1,39
 263 546 263 546 273 554 c 1,0,1
EndSplineSet
EndChar

StartChar: six
Encoding: 22 54 25
Width: 421
GlyphClass: 2
Flags: W
LayerCount: 2
Fore
SplineSet
96 74 m 0,0,1
 96 47 96 47 110.5 29.5 c 128,-1,2
 125 12 125 12 151 12 c 0,3,4
 195 12 195 12 240.5 58 c 128,-1,5
 286 104 286 104 312.5 163.5 c 128,-1,6
 339 223 339 223 339 264.5 c 128,-1,7
 339 306 339 306 305 306 c 0,8,9
 274 306 274 306 242 276 c 0,10,11
 193 230 193 230 160 147 c 1,12,-1
 156 142 l 1,13,-1
 146 141 l 1,14,-1
 144 147 l 1,15,16
 160 214 160 214 213.5 275.5 c 128,-1,17
 267 337 267 337 329 337 c 0,18,19
 363 337 363 337 381.5 315 c 128,-1,20
 400 293 400 293 400 258 c 0,21,22
 400 203 400 203 361 139.5 c 128,-1,23
 322 76 322 76 261.5 32.5 c 128,-1,24
 201 -11 201 -11 148 -11 c 128,-1,25
 95 -11 95 -11 66 17.5 c 128,-1,26
 37 46 37 46 37 103 c 128,-1,27
 37 160 37 160 76 234.5 c 128,-1,28
 115 309 115 309 178 376 c 0,29,30
 294 499 294 499 420 587 c 1,31,-1
 426 588 l 1,32,-1
 433 577 l 2,33,34
 432 576 432 576 430.5 573 c 128,-1,35
 429 570 429 570 423.5 564 c 128,-1,36
 418 558 418 558 392.5 537.5 c 128,-1,37
 367 517 367 517 360 511 c 0,38,39
 290 446 290 446 234.5 373 c 128,-1,40
 179 300 179 300 137.5 218.5 c 128,-1,41
 96 137 96 137 96 74 c 0,0,1
EndSplineSet
EndChar

StartChar: seven
Encoding: 23 55 26
Width: 488
GlyphClass: 2
Flags: W
LayerCount: 2
Fore
SplineSet
499 495 m 1,0,-1
 340 499 l 2,1,2
 310 499 310 499 288.5 488 c 128,-1,3
 267 477 267 477 258 464 c 0,4,5
 235 429 235 429 221 427 c 1,6,-1
 218 429 l 1,7,-1
 218 435 l 1,8,9
 260 518 260 518 293 541.5 c 128,-1,10
 326 565 326 565 412.5 565 c 128,-1,11
 499 565 499 565 554 558 c 1,12,13
 567 568 567 568 574 568 c 1,14,-1
 578 562 l 1,15,-1
 576 555 l 1,16,17
 545 520 545 520 410 378 c 0,18,19
 271 233 271 233 138 63 c 0,20,21
 93 6 93 6 87 3.5 c 128,-1,22
 81 1 81 1 17 -5 c 1,23,-1
 11 -2 l 1,24,-1
 10 2 l 1,25,26
 17 32 17 32 400 401 c 0,27,28
 465 463 465 463 499 495 c 1,0,-1
EndSplineSet
EndChar

StartChar: eight
Encoding: 24 56 27
Width: 420
GlyphClass: 2
Flags: W
LayerCount: 2
Fore
SplineSet
435 557.5 m 128,-1,1
 461 538 461 538 461 504.5 c 128,-1,2
 461 471 461 471 447 440 c 128,-1,3
 433 409 433 409 406 378 c 0,4,5
 363 330 363 330 310 284 c 1,6,7
 329 242 329 242 329 170.5 c 128,-1,8
 329 99 329 99 265.5 44 c 128,-1,9
 202 -11 202 -11 128 -11 c 0,10,11
 81 -11 81 -11 47.5 14.5 c 128,-1,12
 14 40 14 40 14 79.5 c 128,-1,13
 14 119 14 119 34 155.5 c 128,-1,14
 54 192 54 192 92 228 c 0,15,16
 157 289 157 289 218 334 c 1,17,18
 201 373 201 373 201 414 c 0,19,20
 201 479 201 479 252.5 528 c 128,-1,21
 304 577 304 577 369 577 c 0,22,0
 409 577 409 577 435 557.5 c 128,-1,1
425 501 m 0,23,24
 425 527 425 527 410.5 542 c 128,-1,25
 396 557 396 557 370 557 c 0,26,27
 328 557 328 557 297 523 c 128,-1,28
 266 489 266 489 266 446.5 c 128,-1,29
 266 404 266 404 303 305 c 1,30,31
 351 345 351 345 388 398 c 128,-1,32
 425 451 425 451 425 501 c 0,23,24
265 157 m 128,-1,34
 265 213 265 213 223 315 c 1,35,36
 60 194 60 194 60 83 c 0,37,38
 60 49 60 49 78 29.5 c 128,-1,39
 96 10 96 10 130 10 c 0,40,41
 185 10 185 10 225 55.5 c 128,-1,33
 265 101 265 101 265 157 c 128,-1,34
EndSplineSet
EndChar

StartChar: nine
Encoding: 25 57 28
Width: 435
GlyphClass: 2
Flags: W
LayerCount: 2
Fore
SplineSet
413 541.5 m 128,-1,1
 438 506 438 506 438 448 c 128,-1,2
 438 390 438 390 401.5 317.5 c 128,-1,3
 365 245 365 245 306 182 c 0,4,5
 190 57 190 57 69 -22 c 1,6,-1
 63 -22 l 1,7,-1
 58 -13 l 1,8,-1
 62 -7 l 1,9,10
 304 163 304 163 368 415 c 0,11,12
 378 453 378 453 378 487 c 0,13,14
 378 556 378 556 323 556 c 0,15,16
 278 556 278 556 232 516 c 128,-1,17
 186 476 186 476 158.5 421 c 128,-1,18
 131 366 131 366 131 322 c 0,19,20
 131 266 131 266 181 266 c 0,21,22
 260 266 260 266 318 405 c 1,23,-1
 322 408 l 1,24,-1
 333 407 l 1,25,-1
 334 402 l 1,26,27
 307 332 307 332 255.5 270 c 128,-1,28
 204 208 204 208 145 208 c 0,29,30
 112 208 112 208 93 230 c 128,-1,31
 74 252 74 252 74 286 c 0,32,33
 74 373 74 373 165 475 c 128,-1,34
 256 577 256 577 340 577 c 0,35,0
 388 577 388 577 413 541.5 c 128,-1,1
EndSplineSet
EndChar

StartChar: colon
Encoding: 26 58 29
Width: 256
GlyphClass: 2
Flags: W
LayerCount: 2
Fore
SplineSet
206 210 m 128,-1,1
 189 210 189 210 179 222 c 128,-1,2
 169 234 169 234 172 251 c 0,3,4
 174 268 174 268 188.5 280 c 128,-1,5
 203 292 203 292 220 292 c 128,-1,6
 237 292 237 292 246 281.5 c 128,-1,7
 255 271 255 271 255 263 c 128,-1,8
 255 255 255 255 253 244.5 c 128,-1,9
 251 234 251 234 237 222 c 128,-1,0
 223 210 223 210 206 210 c 128,-1,1
96 -14 m 128,-1,11
 79 -14 79 -14 70 -3.5 c 128,-1,12
 61 7 61 7 61 15 c 128,-1,13
 61 23 61 23 63 33.5 c 128,-1,14
 65 44 65 44 79 56 c 128,-1,15
 93 68 93 68 110 68 c 128,-1,16
 127 68 127 68 136 57.5 c 128,-1,17
 145 47 145 47 145 39 c 0,18,19
 145 12 145 12 129 -1 c 128,-1,10
 113 -14 113 -14 96 -14 c 128,-1,11
EndSplineSet
EndChar

StartChar: semicolon
Encoding: 27 59 30
Width: 255
GlyphClass: 2
Flags: W
LayerCount: 2
Fore
SplineSet
206 210 m 128,-1,1
 189 210 189 210 179 222 c 128,-1,2
 169 234 169 234 172 251 c 0,3,4
 174 268 174 268 188.5 280 c 128,-1,5
 203 292 203 292 220 292 c 128,-1,6
 237 292 237 292 246 281.5 c 128,-1,7
 255 271 255 271 255 263 c 128,-1,8
 255 255 255 255 253 244.5 c 128,-1,9
 251 234 251 234 237 222 c 128,-1,0
 223 210 223 210 206 210 c 128,-1,1
151 14 m 0,10,11
 151 -31 151 -31 120.5 -60 c 128,-1,12
 90 -89 90 -89 51 -102 c 0,13,14
 47 -104 47 -104 43.5 -104 c 128,-1,15
 40 -104 40 -104 40 -99 c 128,-1,16
 40 -94 40 -94 48 -91 c 0,17,18
 78 -81 78 -81 99.5 -58.5 c 128,-1,19
 121 -36 121 -36 125 -4 c 1,20,21
 110 -14 110 -14 94.5 -14 c 128,-1,22
 79 -14 79 -14 69 -2 c 128,-1,23
 59 10 59 10 62 27 c 128,-1,24
 65 44 65 44 79 56 c 128,-1,25
 93 68 93 68 111.5 68 c 128,-1,26
 130 68 130 68 140.5 52 c 128,-1,27
 151 36 151 36 151 14 c 0,10,11
EndSplineSet
EndChar

StartChar: less
Encoding: 28 60 31
Width: 329
GlyphClass: 2
Flags: W
LayerCount: 2
Fore
SplineSet
333 297 m 1,0,1
 317 270 317 270 218 202 c 0,2,3
 173 172 173 172 171 170 c 2,4,-1
 170 34 l 1,5,-1
 165 24 l 1,6,-1
 158 21 l 2,7,8
 153 21 153 21 150 24 c 0,9,10
 136 60 136 60 126 111.5 c 128,-1,11
 116 163 116 163 112 179 c 1,12,13
 116 181 116 181 171 216 c 0,14,15
 314 307 314 307 325 307 c 1,16,-1
 332 304 l 1,17,-1
 333 297 l 1,0,1
EndSplineSet
EndChar

StartChar: equal
Encoding: 29 61 32
Width: 458
GlyphClass: 2
Flags: W
LayerCount: 2
Fore
SplineSet
409 322 m 0,0,1
 409 311 409 311 392 311 c 0,2,3
 288 311 288 311 244 304 c 0,4,5
 182 294 182 294 169 294 c 0,6,7
 147 294 147 294 147 323 c 0,8,9
 147 342 147 342 164 342 c 2,10,-1
 311 342 l 2,11,12
 409 342 409 342 409 322 c 0,0,1
409 222 m 0,13,14
 409 211 409 211 392 211 c 0,15,16
 288 211 288 211 244 204 c 0,17,18
 182 194 182 194 169 194 c 0,19,20
 147 194 147 194 147 223 c 0,21,22
 147 242 147 242 164 242 c 2,23,-1
 311 242 l 2,24,25
 409 242 409 242 409 222 c 0,13,14
EndSplineSet
EndChar

StartChar: greater
Encoding: 30 62 33
Width: 329
GlyphClass: 2
Flags: W
LayerCount: 2
Fore
SplineSet
248 150 m 1,0,-1
 43 22 l 1,1,-1
 36 21 l 2,2,3
 32 21 32 21 28 23 c 2,4,-1
 27 27 l 2,5,6
 27 37 27 37 50 55 c 128,-1,7
 73 73 73 73 89.5 86 c 128,-1,8
 106 99 106 99 123.5 112 c 128,-1,9
 141 125 141 125 155 134.5 c 128,-1,10
 169 144 169 144 179 151 c 2,11,-1
 189 158 l 1,12,-1
 190 294 l 2,13,14
 191 295 191 295 192.5 298.5 c 128,-1,15
 194 302 194 302 195 303 c 2,16,-1
 203 307 l 1,17,-1
 212 303 l 1,18,19
 227 263 227 263 236 214 c 128,-1,20
 245 165 245 165 248 150 c 1,0,-1
EndSplineSet
EndChar

StartChar: question
Encoding: 31 63 34
Width: 382
GlyphClass: 2
Flags: W
LayerCount: 2
Fore
SplineSet
382 469 m 0,0,1
 418 515 418 515 418 552 c 0,2,3
 418 582 418 582 384 598 c 0,4,5
 369 604 369 604 356 604 c 128,-1,6
 343 604 343 604 326 602.5 c 128,-1,7
 309 601 309 601 283 588 c 128,-1,8
 257 575 257 575 241 556.5 c 128,-1,9
 225 538 225 538 225 523 c 0,10,11
 225 520 225 520 225 518 c 1,12,13
 230 537 230 537 260 554 c 0,14,15
 277 562 277 562 288 562 c 128,-1,16
 299 562 299 562 306 558 c 0,17,18
 323 549 323 549 323 524 c 128,-1,19
 323 499 323 499 301 482 c 128,-1,20
 279 465 279 465 257 465 c 0,21,22
 223 465 223 465 212 493 c 0,23,24
 207 503 207 503 207 517 c 128,-1,25
 207 531 207 531 214 551 c 0,26,27
 228 582 228 582 278 611 c 0,28,29
 343 649 343 649 396 649 c 0,30,31
 457 649 457 649 483 604 c 0,32,33
 490 591 490 591 490 575 c 0,34,35
 490 519 490 519 424 444 c 0,36,37
 401 418 401 418 345 363.5 c 128,-1,38
 289 309 289 309 256 265 c 128,-1,39
 223 221 223 221 200 160 c 0,40,41
 196 151 196 151 187.5 154 c 128,-1,42
 179 157 179 157 181 167 c 0,43,44
 189 202 189 202 215 247 c 128,-1,45
 241 292 241 292 259 316.5 c 128,-1,46
 277 341 277 341 326 400.5 c 128,-1,47
 375 460 375 460 382 469 c 0,0,1
154 -14 m 128,-1,49
 137 -14 137 -14 128 -3.5 c 128,-1,50
 119 7 119 7 119 15 c 0,51,52
 119 42 119 42 135 55 c 128,-1,53
 151 68 151 68 168 68 c 128,-1,54
 185 68 185 68 194 57.5 c 128,-1,55
 203 47 203 47 203 39 c 128,-1,56
 203 31 203 31 201 20.5 c 128,-1,57
 199 10 199 10 185 -2 c 128,-1,48
 171 -14 171 -14 154 -14 c 128,-1,49
EndSplineSet
EndChar

StartChar: at
Encoding: 32 64 35
Width: 956
GlyphClass: 2
Flags: W
LayerCount: 2
Fore
SplineSet
337 116 m 0,0,1
 337 74 337 74 370 74 c 0,2,3
 407 74 407 74 455 129 c 0,4,5
 506 190 506 190 548.5 271 c 128,-1,6
 591 352 591 352 607 369.5 c 128,-1,7
 623 387 623 387 648 387 c 0,8,9
 656 387 656 387 675.5 383 c 128,-1,10
 695 379 695 379 706 381 c 1,11,12
 683 359 683 359 641 279 c 0,13,14
 586 174 586 174 586 120 c 128,-1,15
 586 66 586 66 637 66 c 0,16,17
 700 66 700 66 765.5 119 c 128,-1,18
 831 172 831 172 867 254.5 c 128,-1,19
 903 337 903 337 903 413 c 0,20,21
 903 508 903 508 856 562.5 c 128,-1,22
 809 617 809 617 749 637.5 c 128,-1,23
 689 658 689 658 615 658 c 0,24,25
 482 658 482 658 364.5 584 c 128,-1,26
 247 510 247 510 185 396 c 128,-1,27
 123 282 123 282 123 169 c 256,28,29
 123 56 123 56 178 -9 c 128,-1,30
 233 -74 233 -74 304 -100 c 128,-1,31
 375 -126 375 -126 458 -126 c 0,32,33
 620 -126 620 -126 767 -27 c 0,34,35
 776 -18 776 -18 783 -28 c 128,-1,36
 790 -38 790 -38 778 -43 c 0,37,38
 620 -148 620 -148 451 -148 c 0,39,40
 243 -148 243 -148 140 -24 c 0,41,42
 75 55 75 55 75 176 c 0,43,44
 75 264 75 264 115 356 c 128,-1,45
 155 448 155 448 231.5 520 c 128,-1,46
 308 592 308 592 409 635.5 c 128,-1,47
 510 679 510 679 613 679 c 0,48,49
 734 679 734 679 828 624 c 0,50,51
 876 597 876 597 906 550 c 0,52,53
 943 494 943 494 943 413.5 c 128,-1,54
 943 333 943 333 896.5 248 c 128,-1,55
 850 163 850 163 769 98 c 0,56,57
 742 77 742 77 693 61 c 128,-1,58
 644 45 644 45 607 45 c 0,59,60
 604 45 604 45 600 45 c 0,61,62
 561 45 561 45 533 78 c 0,63,64
 517 97 517 97 517 128.5 c 128,-1,65
 517 160 517 160 528 200 c 1,66,67
 484 128 484 128 437.5 83 c 128,-1,68
 391 38 391 38 354 38 c 0,69,70
 336 38 336 38 321 48 c 0,71,72
 281 73 281 73 281 143 c 0,73,74
 281 264 281 264 387 391 c 0,75,76
 446 462 446 462 534 483 c 0,77,78
 558 489 558 489 580 489 c 0,79,80
 638 489 638 489 679 449 c 0,81,82
 691 435 691 435 686 422.5 c 128,-1,83
 681 410 681 410 666 413 c 1,84,85
 653 458 653 458 606 458 c 0,86,87
 582 458 582 458 558 444 c 0,88,89
 517 422 517 422 471.5 372.5 c 128,-1,90
 426 323 426 323 386 258 c 0,91,92
 337 177 337 177 337 116 c 0,0,1
EndSplineSet
EndChar

StartChar: A
Encoding: 33 65 36
Width: 712
GlyphClass: 2
Flags: W
AnchorPoint: "tones" 713 813 basechar 0
LayerCount: 2
Fore
SplineSet
664 445 m 0,0,1
 687 445 687 445 687 416 c 0,2,3
 687 385 687 385 662 358 c 0,4,5
 618 309 618 309 581 235 c 0,6,7
 525 123 525 123 525 33 c 0,8,9
 525 -2 525 -2 537.5 -18 c 128,-1,10
 550 -34 550 -34 566 -34 c 0,11,12
 614 -34 614 -34 678 44 c 0,13,14
 735 117 735 117 765 186 c 0,15,16
 773 202 773 202 781 200 c 128,-1,17
 789 198 789 198 782 182 c 0,18,19
 741 91 741 91 689 22 c 0,20,21
 662 -15 662 -15 622 -39.5 c 128,-1,22
 582 -64 582 -64 542.5 -64 c 128,-1,23
 503 -64 503 -64 483 -32.5 c 128,-1,24
 463 -1 463 -1 463 42 c 128,-1,25
 463 85 463 85 473.5 127 c 128,-1,26
 484 169 484 169 501 192 c 1,27,28
 400 71 400 71 286 -2 c 0,29,30
 226 -39 226 -39 153 -46 c 0,31,32
 146 -47 146 -47 129.5 -47 c 128,-1,33
 113 -47 113 -47 90 -35 c 0,34,35
 18 -5 18 -5 18 111.5 c 128,-1,36
 18 228 18 228 94 364 c 0,37,38
 134 436 134 436 182 491 c 1,39,40
 115 523 115 523 82 560 c 0,41,42
 58 587 58 587 58 625 c 128,-1,43
 58 663 58 663 73 673 c 1,44,45
 83 686 83 686 91 678 c 0,46,47
 97 669 97 669 91.5 656 c 128,-1,48
 86 643 86 643 86 631 c 0,49,50
 86 604 86 604 115 571 c 128,-1,51
 144 538 144 538 200 512 c 1,52,53
 435 773 435 773 688 773 c 0,54,55
 767 773 767 773 813.5 737.5 c 128,-1,56
 860 702 860 702 860 646 c 0,57,58
 860 585 860 585 792 528 c 0,59,60
 758 498 758 498 695 476 c 0,61,62
 599 442 599 442 466.5 442 c 128,-1,63
 334 442 334 442 247 470 c 1,64,65
 146 327 146 327 108 232.5 c 128,-1,66
 70 138 70 138 70 86 c 0,67,68
 70 75 70 75 71 66 c 0,69,70
 83 -17 83 -17 155 -17 c 0,71,72
 236 -17 236 -17 343 71 c 0,73,74
 419 135 419 135 492 223 c 128,-1,75
 565 311 565 311 600.5 378 c 128,-1,76
 636 445 636 445 664 445 c 0,0,1
819 658 m 0,77,78
 819 701 819 701 783.5 724 c 128,-1,79
 748 747 748 747 686 747 c 128,-1,80
 624 747 624 747 562.5 727 c 128,-1,81
 501 707 501 707 447.5 668 c 128,-1,82
 394 629 394 629 352.5 588 c 128,-1,83
 311 547 311 547 263 490 c 1,84,85
 338 466 338 466 447 466 c 0,86,87
 652 466 652 466 746 532 c 0,88,89
 819 583 819 583 819 658 c 0,77,78
EndSplineSet
EndChar

StartChar: B
Encoding: 34 66 37
Width: 1041
GlyphClass: 2
Flags: W
LayerCount: 2
Fore
SplineSet
1038 192 m 0,0,1
 1038 135 1038 135 997 86 c 0,2,3
 939 16 939 16 842 -15 c 0,4,5
 770 -38 770 -38 702 -38 c 0,6,7
 677 -38 677 -38 653 -35 c 0,8,9
 496 -15 496 -15 387 34 c 1,10,11
 288 -39 288 -39 178 -39 c 0,12,13
 48 -39 48 -39 17 33 c 0,14,15
 10 50 10 50 10 73 c 128,-1,16
 10 96 10 96 33 122 c 0,17,18
 69 162 69 162 133 162 c 0,19,20
 175 162 175 162 209 150 c 128,-1,21
 243 138 243 138 293 111 c 128,-1,22
 343 84 343 84 367 72 c 1,23,24
 411 115 411 115 458 191.5 c 128,-1,25
 505 268 505 268 540.5 341.5 c 128,-1,26
 576 415 576 415 631 505 c 128,-1,27
 686 595 686 595 743 658 c 2,28,-1
 800 723 l 1,29,30
 721 737 721 737 626 737 c 128,-1,31
 531 737 531 737 417 712 c 0,32,33
 261 679 261 679 177 578 c 0,34,35
 126 517 126 517 126 462 c 0,36,37
 126 389 126 389 197 367 c 0,38,39
 222 360 222 360 241 360 c 128,-1,40
 260 360 260 360 285 367 c 128,-1,41
 310 374 310 374 333.5 396.5 c 128,-1,42
 357 419 357 419 367.5 440 c 128,-1,43
 378 461 378 461 378 471.5 c 128,-1,44
 378 482 378 482 388 482 c 0,45,46
 398 481 398 481 399 468 c 2,47,-1
 399 467 l 1,48,49
 388 394 388 394 321 356 c 0,50,51
 280 334 280 334 239 334 c 1,52,-1
 187 343 l 1,53,54
 81 380 81 380 81 481 c 0,55,56
 81 550 81 550 142 617 c 0,57,58
 240 727 240 727 430 754 c 0,59,60
 522 767 522 767 621.5 767 c 128,-1,61
 721 767 721 767 824 745 c 1,62,63
 852 769 852 769 873 777 c 128,-1,64
 894 785 894 785 897.5 785 c 128,-1,65
 901 785 901 785 902 784 c 0,66,67
 908 784 908 784 904.5 777.5 c 128,-1,68
 901 771 901 771 882.5 759 c 128,-1,69
 864 747 864 747 860 737 c 1,70,71
 996 702 996 702 1056 637 c 0,72,73
 1088 601 1088 601 1088 563.5 c 128,-1,74
 1088 526 1088 526 1066 488 c 0,75,76
 1037 438 1037 438 972 412.5 c 128,-1,77
 907 387 907 387 841 384 c 1,78,79
 905 364 905 364 960 328 c 0,80,81
 1038 277 1038 277 1038 192 c 0,0,1
688 -10 m 0,82,83
 800 -10 800 -10 878 54 c 0,84,85
 963 122 963 122 963 201 c 0,86,87
 963 283 963 283 876 325 c 0,88,89
 844 340 844 340 797.5 354.5 c 128,-1,90
 751 369 751 369 722.5 379 c 128,-1,91
 694 389 694 389 690 398 c 1,92,93
 690 417 690 417 719 418 c 0,94,95
 738 418 738 418 777 415 c 128,-1,96
 816 412 816 412 844 412.5 c 128,-1,97
 872 413 872 413 911.5 432.5 c 128,-1,98
 951 452 951 452 979 483 c 0,99,100
 1024 533 1024 533 1024 577 c 0,101,102
 1024 671 1024 671 848 712 c 1,103,104
 795 639 795 639 658 403.5 c 128,-1,105
 521 168 521 168 447 88 c 1,106,-1
 409 52 l 1,107,108
 522 5 522 5 652 -8 c 0,109,110
 671 -10 671 -10 688 -10 c 0,82,83
345 53 m 1,111,112
 228 109 228 109 197 120 c 128,-1,113
 166 131 166 131 135.5 131 c 128,-1,114
 105 131 105 131 87 109.5 c 128,-1,115
 69 88 69 88 69 70.5 c 128,-1,116
 69 53 69 53 77 37 c 0,117,118
 99 -8 99 -8 169 -8 c 0,119,120
 264 -8 264 -8 345 53 c 1,111,112
EndSplineSet
EndChar

StartChar: C
Encoding: 35 67 38
Width: 710
GlyphClass: 2
Flags: W
LayerCount: 2
Fore
SplineSet
379 -101 m 0,0,1
 301 -101 301 -101 229.5 -70.5 c 128,-1,2
 158 -40 158 -40 115.5 19 c 128,-1,3
 73 78 73 78 64 148 c 0,4,5
 60 178 60 178 60 214 c 128,-1,6
 60 250 60 250 69 309 c 128,-1,7
 78 368 78 368 108.5 437 c 128,-1,8
 139 506 139 506 181 559 c 1,9,10
 164 626 164 626 164 682.5 c 128,-1,11
 164 739 164 739 177 788 c 0,12,13
 179 796 179 796 183.5 799.5 c 128,-1,14
 188 803 188 803 190 803 c 0,15,16
 200 803 200 803 196 778.5 c 128,-1,17
 192 754 192 754 192 708.5 c 128,-1,18
 192 663 192 663 205 593 c 1,19,20
 285 696 285 696 393 743 c 0,21,22
 476 779 476 779 567 779 c 0,23,24
 593 779 593 779 621 776 c 0,25,26
 775 759 775 759 829 658 c 0,27,28
 851 616 851 616 851 571 c 128,-1,29
 851 526 851 526 830 478 c 0,30,31
 786 382 786 382 679 336 c 0,32,33
 610 306 610 306 528 306 c 0,34,35
 493 306 493 306 457 311 c 0,36,37
 278 337 278 337 209 481 c 1,38,39
 185 447 185 447 159.5 367 c 128,-1,40
 134 287 134 287 130 244 c 128,-1,41
 126 201 126 201 126 172 c 128,-1,42
 126 143 126 143 130 112 c 0,43,44
 137 57 137 57 172 12.5 c 128,-1,45
 207 -32 207 -32 265.5 -49.5 c 128,-1,46
 324 -67 324 -67 367 -67 c 0,47,48
 506 -67 506 -67 604 -9 c 0,49,50
 663 26 663 26 696.5 70.5 c 128,-1,51
 730 115 730 115 768 193 c 0,52,53
 774 206 774 206 780.5 202 c 128,-1,54
 787 198 787 198 780 183 c 0,55,56
 742 106 742 106 709.5 61 c 128,-1,57
 677 16 677 16 621 -23 c 0,58,59
 509 -101 509 -101 379 -101 c 0,0,1
229 513 m 1,60,61
 300 332 300 332 525 332 c 0,62,63
 652 332 652 332 728.5 403 c 128,-1,64
 805 474 805 474 805 564 c 128,-1,65
 805 654 805 654 727 704 c 0,66,67
 669 741 669 741 584 741 c 128,-1,68
 499 741 499 741 413 692 c 0,69,70
 305 629 305 629 229 513 c 1,60,61
EndSplineSet
EndChar

StartChar: D
Encoding: 36 68 39
Width: 1014
GlyphClass: 2
Flags: W
LayerCount: 2
Fore
SplineSet
375 36 m 1,0,1
 282 -39 282 -39 169 -39 c 0,2,3
 40 -39 40 -39 10 33 c 0,4,5
 3 50 3 50 3 72.5 c 128,-1,6
 3 95 3 95 26 121 c 0,7,8
 62 162 62 162 126 162 c 0,9,10
 169 162 169 162 212.5 146.5 c 128,-1,11
 256 131 256 131 367 72 c 1,12,13
 417 120 417 120 467 200 c 128,-1,14
 517 280 517 280 553.5 354.5 c 128,-1,15
 590 429 590 429 642.5 517 c 128,-1,16
 695 605 695 605 747 663 c 1,17,18
 635 730 635 730 509 730 c 0,19,20
 457 730 457 730 403 719 c 0,21,22
 248 686 248 686 167 584 c 0,23,24
 117 522 117 522 117 466 c 0,25,26
 117 390 117 390 190 367 c 0,27,28
 216 360 216 360 235 360 c 128,-1,29
 254 360 254 360 277.5 366 c 128,-1,30
 301 372 301 372 324 394 c 0,31,32
 368 438 368 438 371 476 c 0,33,34
 372 485 372 485 382.5 482.5 c 128,-1,35
 393 480 393 480 391 467 c 0,36,37
 381 394 381 394 314 356 c 0,38,39
 273 334 273 334 232 334 c 1,40,-1
 180 343 l 1,41,42
 104 369 104 369 80 440 c 0,43,44
 70 467 70 467 70 494 c 0,45,46
 70 549 70 549 111 603 c 0,47,48
 199 721 199 721 423 754 c 0,49,50
 467 760 467 760 510 760 c 0,51,52
 649 760 649 760 775 694 c 1,53,54
 814 739 814 739 847 762.5 c 128,-1,55
 880 786 880 786 900 786 c 0,56,57
 911 786 911 786 913 781.5 c 128,-1,58
 915 777 915 777 912.5 774.5 c 128,-1,59
 910 772 910 772 906 772 c 0,60,61
 889 772 889 772 862 736 c 128,-1,62
 835 700 835 700 818 669 c 1,63,64
 925 598 925 598 981 487 c 0,65,66
 1026 398 1026 398 1026 293 c 0,67,68
 1026 163 1026 163 964 86 c 0,69,70
 913 23 913 23 840 -3 c 0,71,72
 753 -34 753 -34 668 -34 c 0,73,74
 496 -34 496 -34 375 36 c 1,0,1
399 54 m 1,75,76
 500 -6 500 -6 636 -6 c 0,77,78
 794 -6 794 -6 888 84 c 0,79,80
 963 157 963 157 963 286 c 0,81,82
 963 378 963 378 927 459 c 0,83,84
 882 562 882 562 794 631 c 1,85,86
 765 586 765 586 682.5 449.5 c 128,-1,87
 600 313 600 313 543 228 c 128,-1,88
 486 143 486 143 453 107.5 c 128,-1,89
 420 72 420 72 399 54 c 1,75,76
341 52 m 1,90,91
 224 108 224 108 193 119 c 128,-1,92
 162 130 162 130 132.5 130 c 128,-1,93
 103 130 103 130 85.5 108 c 128,-1,94
 68 86 68 86 68 68.5 c 128,-1,95
 68 51 68 51 76 35 c 0,96,97
 97 -8 97 -8 162 -8 c 0,98,99
 258 -8 258 -8 341 52 c 1,90,91
EndSplineSet
EndChar

StartChar: E
Encoding: 37 69 40
Width: 815
GlyphClass: 2
Flags: W
AnchorPoint: "tones" 657 854 basechar 0
LayerCount: 2
Fore
SplineSet
492 375 m 2,0,-1
 385 376 l 2,1,2
 253 376 253 376 179 312 c 0,3,4
 92 238 92 238 92 140 c 0,5,6
 92 94 92 94 113.5 55.5 c 128,-1,7
 135 17 135 17 190.5 -8 c 128,-1,8
 246 -33 246 -33 340.5 -33 c 128,-1,9
 435 -33 435 -33 540 7 c 128,-1,10
 645 47 645 47 717 103 c 0,11,12
 799 167 799 167 799 215 c 0,13,14
 799 238 799 238 775 243.5 c 128,-1,15
 751 249 751 249 750 256 c 0,16,17
 748 265 748 265 765 264 c 128,-1,18
 782 263 782 263 793 257 c 0,19,20
 838 233 838 233 838 195 c 0,21,22
 838 139 838 139 760.5 78 c 128,-1,23
 683 17 683 17 565 -19 c 128,-1,24
 447 -55 447 -55 344 -55 c 128,-1,25
 241 -55 241 -55 177 -35 c 0,26,27
 64 0 64 0 30 94 c 0,28,29
 21 118 21 118 21 140 c 128,-1,30
 21 162 21 162 29 194.5 c 128,-1,31
 37 227 37 227 65 269 c 128,-1,32
 93 311 93 311 146 347 c 128,-1,33
 199 383 199 383 259.5 400.5 c 128,-1,34
 320 418 320 418 368 420 c 1,35,36
 318 438 318 438 283 470 c 128,-1,37
 248 502 248 502 248 539 c 0,38,39
 248 542 248 542 248 545 c 0,40,41
 255 626 255 626 339 690.5 c 128,-1,42
 423 755 423 755 515 779.5 c 128,-1,43
 607 804 607 804 674 804 c 0,44,45
 695 804 695 804 715 802 c 0,46,47
 798 792 798 792 834 760.5 c 128,-1,48
 870 729 870 729 870 697 c 0,49,50
 870 652 870 652 818.5 610.5 c 128,-1,51
 767 569 767 569 694 553 c 0,52,53
 676 549 676 549 664.5 549 c 128,-1,54
 653 549 653 549 654 555 c 0,55,56
 658 567 658 567 688 570.5 c 128,-1,57
 718 574 718 574 746 594 c 0,58,59
 802 635 802 635 810 700 c 0,60,61
 810 703 810 703 810 706 c 0,62,63
 810 731 810 731 786 752 c 0,64,65
 756 780 756 780 685 780 c 128,-1,66
 614 780 614 780 538 757.5 c 128,-1,67
 462 735 462 735 398 683 c 0,68,69
 322 621 322 621 322 548 c 0,70,71
 322 519 322 519 339.5 495 c 128,-1,72
 357 471 357 471 390.5 459.5 c 128,-1,73
 424 448 424 448 458 440 c 0,74,75
 535 424 535 424 535 398 c 0,76,77
 535 375 535 375 492 375 c 2,0,-1
EndSplineSet
EndChar

StartChar: F
Encoding: 38 70 41
Width: 1048
GlyphClass: 2
Flags: W
LayerCount: 2
Fore
SplineSet
1003 610 m 1,0,1
 801 710 801 710 678 710 c 128,-1,2
 555 710 555 710 472 640 c 0,3,4
 393 573 393 573 393 496 c 0,5,6
 393 456 393 456 422 438 c 0,7,8
 461 416 461 416 496 416 c 0,9,10
 509 416 509 416 522 419 c 0,11,12
 568 430 568 430 600 456 c 128,-1,13
 632 482 632 482 632 498 c 128,-1,14
 632 514 632 514 641.5 520 c 128,-1,15
 651 526 651 526 651 516 c 0,16,17
 651 510 651 510 648 502 c 0,18,19
 627 431 627 431 550 405 c 0,20,21
 517 394 517 394 482 394 c 128,-1,22
 447 394 447 394 413 415 c 0,23,24
 349 451 349 451 349 525 c 0,25,26
 349 614 349 614 431 687 c 128,-1,27
 513 760 513 760 631 760 c 0,28,29
 689 760 689 760 748 743 c 0,30,31
 896 703 896 703 1016 627 c 1,32,33
 1047 661 1047 661 1080 661 c 0,34,35
 1117 661 1117 661 1118 636 c 0,36,37
 1119 625 1119 625 1111 626 c 0,38,39
 1106 627 1106 627 1100 634 c 1,40,41
 1092 637 1092 637 1085 637 c 0,42,43
 1063 637 1063 637 1040 615 c 1,44,45
 1114 578 1114 578 1214 552 c 0,46,47
 1253 543 1253 543 1276 543 c 128,-1,48
 1299 543 1299 543 1311 544 c 0,49,50
 1355 549 1355 549 1368 577 c 0,51,52
 1375 592 1375 592 1380.5 595.5 c 128,-1,53
 1386 599 1386 599 1387 592 c 0,54,55
 1387 589 1387 589 1387 584 c 0,56,57
 1387 543 1387 543 1345 522 c 0,58,59
 1319 509 1319 509 1296 509 c 128,-1,60
 1273 509 1273 509 1246 513.5 c 128,-1,61
 1219 518 1219 518 1176 532 c 128,-1,62
 1133 546 1133 546 1106 558 c 128,-1,63
 1079 570 1079 570 1053 583 c 2,64,-1
 1025 597 l 1,65,66
 973 538 973 538 914 394 c 0,67,68
 895 346 895 346 892 339 c 1,69,70
 950 331 950 331 999 331 c 128,-1,71
 1048 331 1048 331 1076.5 332.5 c 128,-1,72
 1105 334 1105 334 1106 326 c 0,73,74
 1107 304 1107 304 957 304 c 0,75,76
 909 304 909 304 880 308 c 1,77,78
 818 138 818 138 756 56 c 0,79,80
 730 22 730 22 691 -15.5 c 128,-1,81
 652 -53 652 -53 608 -76 c 0,82,83
 509 -130 509 -130 387 -130 c 128,-1,84
 265 -130 265 -130 180 -76 c 0,85,86
 51 4 51 4 51 155 c 0,87,88
 51 206 51 206 68 264 c 0,89,90
 80 302 80 302 112.5 331 c 128,-1,91
 145 360 145 360 167 366.5 c 128,-1,92
 189 373 189 373 187.5 369 c 128,-1,93
 186 365 186 365 153 342 c 0,94,95
 88 295 88 295 76 226 c 0,96,97
 71 201 71 201 71 168 c 128,-1,98
 71 135 71 135 86 96 c 0,99,100
 127 -10 127 -10 256 -60 c 0,101,102
 317 -83 317 -83 387 -83 c 128,-1,103
 457 -83 457 -83 526 -55 c 128,-1,104
 595 -27 595 -27 654 29 c 0,105,106
 769 138 769 138 844 311 c 1,107,-1
 780 312 l 2,108,109
 663 312 663 312 626 258 c 0,110,111
 617 247 617 247 611.5 252.5 c 128,-1,112
 606 258 606 258 610 267 c 0,113,114
 632 315 632 315 672 336 c 128,-1,115
 712 357 712 357 751.5 357 c 128,-1,116
 791 357 791 357 858 348 c 1,117,118
 889 424 889 424 936.5 506 c 128,-1,119
 984 588 984 588 1003 610 c 1,0,1
EndSplineSet
EndChar

StartChar: G
Encoding: 39 71 42
Width: 699
GlyphClass: 2
Flags: W
LayerCount: 2
Fore
SplineSet
158 462 m 1,0,1
 110 358 110 358 110 276 c 0,2,3
 110 107 110 107 226 69 c 0,4,5
 260 60 260 60 295.5 60 c 128,-1,6
 331 60 331 60 367 69 c 0,7,8
 439 88 439 88 496 126 c 128,-1,9
 553 164 553 164 568 199 c 0,10,11
 608 292 608 292 654 292 c 0,12,13
 677 292 677 292 685 266 c 0,14,15
 689 256 689 256 687 244 c 0,16,17
 677 166 677 166 644 89.5 c 128,-1,18
 611 13 611 13 551 -86 c 1,19,20
 671 -87 671 -87 770 -112 c 0,21,22
 791 -117 791 -117 791 -126 c 0,23,24
 791 -137 791 -137 762 -130 c 0,25,26
 693 -112 693 -112 563 -112 c 0,27,28
 551 -112 551 -112 537 -112 c 1,29,30
 476 -200 476 -200 374.5 -267.5 c 128,-1,31
 273 -335 273 -335 177 -360 c 0,32,33
 124 -374 124 -374 87 -374 c 128,-1,34
 50 -374 50 -374 25 -365 c 0,35,36
 -48 -338 -48 -338 -48 -294 c 0,37,38
 -48 -281 -48 -281 -41 -266 c 0,39,40
 -14 -206 -14 -206 101 -155 c 0,41,42
 188 -116 188 -116 284.5 -102 c 128,-1,43
 381 -88 381 -88 501 -86 c 1,44,45
 575 39 575 39 602 160 c 2,46,-1
 606 177 l 1,47,48
 558 131 558 131 497.5 95.5 c 128,-1,49
 437 60 437 60 392 46 c 0,50,51
 320 23 320 23 273.5 23 c 128,-1,52
 227 23 227 23 192 36 c 0,53,54
 128 58 128 58 88 124 c 0,55,56
 45 194 45 194 45 291 c 128,-1,57
 45 388 45 388 96 499 c 1,58,59
 30 567 30 567 30 643.5 c 128,-1,60
 30 720 30 720 92 789 c 0,61,62
 104 802 104 802 109.5 798.5 c 128,-1,63
 115 795 115 795 105 781 c 0,64,65
 60 721 60 721 60 660 c 0,66,67
 60 590 60 590 112 529 c 1,68,69
 118 542 118 542 134 568 c 0,70,71
 212 696 212 696 346 764 c 0,72,73
 451 818 451 818 549 818 c 0,74,75
 576 818 576 818 603 814 c 0,76,77
 732 794 732 794 777 708 c 0,78,79
 795 674 795 674 795 634.5 c 128,-1,80
 795 595 795 595 770 550 c 0,81,82
 714 453 714 453 574 414 c 0,83,84
 500 393 500 393 423 393 c 0,85,86
 261 393 261 393 158 462 c 1,0,1
572 787 m 0,87,88
 486 787 486 787 390 729 c 0,89,90
 249 645 249 645 171 488 c 1,91,92
 218 452 218 452 279.5 437 c 128,-1,93
 341 422 341 422 378 422 c 0,94,95
 589 422 589 422 697 535 c 0,96,97
 751 593 751 593 751 651 c 0,98,99
 751 743 751 743 648 775 c 0,100,101
 610 787 610 787 572 787 c 0,87,88
3 -301 m 0,102,103
 3 -329 3 -329 51 -339 c 0,104,105
 67 -343 67 -343 86 -343 c 0,106,107
 157 -343 157 -343 266 -292 c 0,108,109
 404 -229 404 -229 485 -113 c 1,110,111
 380 -116 380 -116 301 -129 c 0,112,113
 187 -146 187 -146 84 -212 c 0,114,115
 3 -264 3 -264 3 -301 c 0,102,103
EndSplineSet
EndChar

StartChar: H
Encoding: 40 72 43
Width: 1381
GlyphClass: 2
Flags: W
LayerCount: 2
Fore
SplineSet
1412 684.5 m 128,-1,1
 1449 740 1449 740 1481.5 751.5 c 128,-1,2
 1514 763 1514 763 1525.5 763 c 128,-1,3
 1537 763 1537 763 1537 760 c 256,4,5
 1537 757 1537 757 1524 750.5 c 128,-1,6
 1511 744 1511 744 1479.5 698 c 128,-1,7
 1448 652 1448 652 1400 557 c 128,-1,8
 1352 462 1352 462 1316 356 c 1,9,10
 1377 356 1377 356 1393.5 362 c 128,-1,11
 1410 368 1410 368 1413.5 364 c 128,-1,12
 1417 360 1417 360 1404 351 c 0,13,14
 1371 328 1371 328 1307 324 c 0,15,16
 1306 322 1306 322 1291 276 c 0,17,18
 1241 121 1241 121 1241 59 c 0,19,20
 1241 24 1241 24 1253.5 10 c 128,-1,21
 1266 -4 1266 -4 1280 -4 c 128,-1,22
 1294 -4 1294 -4 1311 8 c 0,23,24
 1368 50 1368 50 1436 189 c 0,25,26
 1444 206 1444 206 1451.5 203 c 128,-1,27
 1459 200 1459 200 1451 182 c 0,28,29
 1414 103 1414 103 1389.5 66 c 128,-1,30
 1365 29 1365 29 1334 -2 c 0,31,32
 1293 -41 1293 -41 1252 -41 c 0,33,34
 1206 -41 1206 -41 1188 -3 c 0,35,36
 1179 15 1179 15 1179 30 c 128,-1,37
 1179 45 1179 45 1179.5 61.5 c 128,-1,38
 1180 78 1180 78 1183 104.5 c 128,-1,39
 1186 131 1186 131 1197.5 170.5 c 128,-1,40
 1209 210 1209 210 1215.5 230.5 c 128,-1,41
 1222 251 1222 251 1235 286 c 128,-1,42
 1248 321 1248 321 1249 324 c 1,43,44
 1206 324 1206 324 910 337 c 1,45,46
 849 155 849 155 718 11 c 0,47,48
 654 -60 654 -60 569 -108 c 0,49,50
 455 -171 455 -171 329 -171 c 0,51,52
 276 -171 276 -171 211 -155.5 c 128,-1,53
 146 -140 146 -140 88 -96.5 c 128,-1,54
 30 -53 30 -53 5.5 21 c 128,-1,55
 -19 95 -19 95 4 185 c 0,56,57
 16 231 16 231 57.5 271 c 128,-1,58
 99 311 99 311 126 312 c 0,59,60
 136 312 136 312 138 309.5 c 128,-1,61
 140 307 140 307 136.5 303.5 c 128,-1,62
 133 300 133 300 128 298 c 0,63,64
 98 285 98 285 66 241 c 0,65,66
 24 183 24 183 24 106 c 0,67,68
 24 -14 24 -14 140 -73 c 0,69,70
 210 -108 210 -108 304 -108 c 0,71,72
 345 -108 345 -108 381 -100 c 0,73,74
 720 -24 720 -24 858 339 c 1,75,76
 832 339 832 339 807.5 327.5 c 128,-1,77
 783 316 783 316 775.5 316 c 128,-1,78
 768 316 768 316 767 322 c 0,79,80
 767 339 767 339 791 354.5 c 128,-1,81
 815 370 815 370 833 372 c 2,82,-1
 872 372 l 1,83,84
 936 532 936 532 1018 696 c 1,85,86
 992 693 992 693 944 689 c 128,-1,87
 896 685 896 685 866 682 c 128,-1,88
 836 679 836 679 792 672 c 128,-1,89
 748 665 748 665 719 655.5 c 128,-1,90
 690 646 690 646 654.5 629 c 128,-1,91
 619 612 619 612 595 590 c 0,92,93
 538 536 538 536 514 458 c 0,94,95
 504 426 504 426 504 390 c 128,-1,96
 504 354 504 354 530 320 c 128,-1,97
 556 286 556 286 599 286 c 0,98,99
 684 286 684 286 720 384 c 0,100,101
 737 430 737 430 737 448.5 c 128,-1,102
 737 467 737 467 730.5 476.5 c 128,-1,103
 724 486 724 486 734 488 c 0,104,105
 741 489 741 489 746 480 c 0,106,107
 758 454 758 454 758 424 c 128,-1,108
 758 394 758 394 738 359 c 0,109,110
 704 297 704 297 646 276 c 0,111,112
 618 266 618 266 590 266 c 128,-1,113
 562 266 562 266 534 278 c 0,114,115
 481 301 481 301 456 356 c 0,116,117
 440 389 440 389 440 419 c 128,-1,118
 440 449 440 449 449.5 487.5 c 128,-1,119
 459 526 459 526 487 566 c 128,-1,120
 515 606 515 606 557 630.5 c 128,-1,121
 599 655 599 655 641 671 c 128,-1,122
 683 687 683 687 740.5 695 c 128,-1,123
 798 703 798 703 840.5 707 c 128,-1,124
 883 711 883 711 943 714 c 128,-1,125
 1003 717 1003 717 1032 720 c 1,126,127
 1043 739 1043 739 1065.5 766.5 c 128,-1,128
 1088 794 1088 794 1104 798.5 c 128,-1,129
 1120 803 1120 803 1129 803 c 0,130,131
 1166 803 1166 803 1166 771.5 c 128,-1,132
 1166 740 1166 740 1125 719 c 128,-1,133
 1084 698 1084 698 1048 698 c 1,134,135
 1021 646 1021 646 971.5 512.5 c 128,-1,136
 922 379 922 379 919 372 c 1,137,138
 994 372 994 372 1112.5 363.5 c 128,-1,139
 1231 355 1231 355 1258 355 c 1,140,141
 1278 413 1278 413 1326.5 521 c 128,-1,0
 1375 629 1375 629 1412 684.5 c 128,-1,1
1116 772 m 0,142,143
 1104 772 1104 772 1066 723 c 1,144,145
 1131 733 1131 733 1130 758 c 0,146,147
 1129 769 1129 769 1119 771 c 0,148,149
 1118 772 1118 772 1116 772 c 0,142,143
EndSplineSet
EndChar

StartChar: I
Encoding: 41 73 44
Width: 912
GlyphClass: 2
Flags: W
AnchorPoint: "tones" 867 760 basechar 0
LayerCount: 2
Fore
SplineSet
1119 735 m 2,0,-1
 1077 726 l 1,1,2
 1009 600 1009 600 954 404 c 0,3,4
 935 336 935 336 896 252.5 c 128,-1,5
 857 169 857 169 803 99 c 0,6,7
 604 -156 604 -156 294 -156 c 0,8,9
 150 -156 150 -156 65 -94 c 0,10,11
 7 -51 7 -51 -12 18 c 0,12,13
 -19 43 -19 43 -19 82 c 128,-1,14
 -19 121 -19 121 1.5 174.5 c 128,-1,15
 22 228 22 228 68 269.5 c 128,-1,16
 114 311 114 311 141 313 c 0,17,18
 151 313 151 313 153 310 c 0,19,20
 156 306 156 306 142 299 c 0,21,22
 111 286 111 286 73 240 c 0,23,24
 14 170 14 170 14 82 c 0,25,26
 14 15 14 15 57 -33 c 0,27,28
 111 -93 111 -93 210 -115 c 0,29,30
 254 -125 254 -125 277 -125 c 128,-1,31
 300 -125 300 -125 324.5 -124.5 c 128,-1,32
 349 -124 349 -124 389 -114 c 0,33,34
 472 -93 472 -93 548 -46 c 128,-1,35
 624 1 624 1 678 55.5 c 128,-1,36
 732 110 732 110 778 176 c 0,37,38
 856 289 856 289 896 398 c 0,39,40
 966 583 966 583 1046 721 c 1,41,42
 887 688 887 688 793 648 c 0,43,44
 697 606 697 606 644 554 c 0,45,46
 578 487 578 487 559 403 c 0,47,48
 553 379 553 379 553 359 c 0,49,50
 553 317 553 317 576 291 c 128,-1,51
 599 265 599 265 625.5 265 c 128,-1,52
 652 265 652 265 682.5 277 c 128,-1,53
 713 289 713 289 736 317 c 0,54,55
 768 358 768 358 768 414 c 0,56,57
 768 442 768 442 760 449 c 0,58,59
 758 452 758 452 762 458 c 0,60,61
 772 473 772 473 781 458 c 0,62,63
 794 433 794 433 794 403.5 c 128,-1,64
 794 374 794 374 775 339 c 0,65,66
 741 275 741 275 677 251 c 0,67,68
 645 239 645 239 608.5 239 c 128,-1,69
 572 239 572 239 530 272 c 128,-1,70
 488 305 488 305 488 364 c 0,71,72
 488 382 488 382 492 403 c 0,73,74
 549 660 549 660 1062 747 c 1,75,76
 1071 766 1071 766 1094.5 794 c 128,-1,77
 1118 822 1118 822 1134.5 827.5 c 128,-1,78
 1151 833 1151 833 1162 833 c 0,79,80
 1195 833 1195 833 1196 805 c 0,81,82
 1196 775 1196 775 1172 759 c 0,83,84
 1150 745 1150 745 1119 735 c 2,0,-1
1094 751 m 1,85,86
 1162 765 1162 765 1159 789 c 0,87,88
 1157 801 1157 801 1145.5 801 c 128,-1,89
 1134 801 1134 801 1094 751 c 1,85,86
EndSplineSet
EndChar

StartChar: J
Encoding: 42 74 45
Width: 966
GlyphClass: 2
Flags: W
LayerCount: 2
Fore
SplineSet
1189 706 m 1,0,-1
 1146 698 l 1,1,2
 1069 565 1069 565 998 340 c 0,3,4
 971 255 971 255 922 144.5 c 128,-1,5
 873 34 873 34 813 -60 c 0,6,7
 732 -186 732 -186 597.5 -267.5 c 128,-1,8
 463 -349 463 -349 352 -364 c 0,9,10
 301 -371 301 -371 236 -371 c 128,-1,11
 171 -371 171 -371 102 -348 c 0,12,13
 -6 -312 -6 -312 -46 -230 c 0,14,15
 -64 -192 -64 -192 -64 -141 c 128,-1,16
 -64 -90 -64 -90 -37 -21 c 0,17,18
 -18 25 -18 25 30 65 c 128,-1,19
 78 105 78 105 105 106 c 0,20,21
 117 107 117 107 117 102 c 0,22,23
 116 98 116 98 104 92 c 0,24,25
 72 79 72 79 33 35 c 128,-1,26
 -6 -9 -6 -9 -18.5 -53.5 c 128,-1,27
 -31 -98 -31 -98 -31 -122 c 0,28,29
 -31 -195 -31 -195 8 -240 c 0,30,31
 35 -270 35 -270 75 -294 c 128,-1,32
 115 -318 115 -318 161 -327 c 0,33,34
 229 -340 229 -340 269 -340 c 128,-1,35
 309 -340 309 -340 340 -332 c 0,36,37
 408 -317 408 -317 471.5 -282 c 128,-1,38
 535 -247 535 -247 584 -205.5 c 128,-1,39
 633 -164 633 -164 681.5 -103 c 128,-1,40
 730 -42 730 -42 763 8 c 128,-1,41
 796 58 796 58 833 128 c 0,42,43
 893 242 893 242 956 390 c 0,44,45
 1035 566 1035 566 1116 694 c 1,46,47
 977 671 977 671 833 594 c 0,48,49
 760 555 760 555 708 495 c 0,50,51
 641 419 641 419 641 332 c 0,52,53
 641 285 641 285 663.5 259 c 128,-1,54
 686 233 686 233 711 233 c 128,-1,55
 736 233 736 233 766 244 c 128,-1,56
 796 255 796 255 820 282 c 0,57,58
 858 326 858 326 858 383 c 0,59,60
 858 407 858 407 851 415 c 0,61,62
 839 423 839 423 849 430 c 0,63,64
 860 436 860 436 872 423 c 1,65,66
 882 401 882 401 882 371.5 c 128,-1,67
 882 342 882 342 860 304 c 0,68,69
 823 241 823 241 758 218 c 0,70,71
 728 208 728 208 701 208 c 0,72,73
 656 208 656 208 620 237 c 0,74,75
 574 275 574 275 574 339 c 0,76,77
 574 420 574 420 632 494 c 0,78,79
 676 551 676 551 735.5 588 c 128,-1,80
 795 625 795 625 870 654 c 0,81,82
 991 701 991 701 1133 720 c 1,83,84
 1145 740 1145 740 1169 767 c 128,-1,85
 1193 794 1193 794 1209 799 c 128,-1,86
 1225 804 1225 804 1235 804 c 0,87,88
 1270 804 1270 804 1270 774 c 0,89,90
 1269 747 1269 747 1248 732.5 c 128,-1,91
 1227 718 1227 718 1189 706 c 1,0,-1
1220 772 m 0,92,93
 1218 772 1218 772 1215.5 771 c 128,-1,94
 1213 770 1213 770 1208.5 766.5 c 128,-1,95
 1204 763 1204 763 1200 760 c 128,-1,96
 1196 757 1196 757 1190.5 751 c 128,-1,97
 1185 745 1185 745 1181.5 741.5 c 128,-1,98
 1178 738 1178 738 1172 731.5 c 128,-1,99
 1166 725 1166 725 1164 723 c 1,100,101
 1233 735 1233 735 1232 760 c 0,102,103
 1230 772 1230 772 1220 772 c 0,92,93
EndSplineSet
EndChar

StartChar: K
Encoding: 43 75 46
Width: 1144
GlyphClass: 2
Flags: W
LayerCount: 2
Fore
SplineSet
898 152 m 0,0,1
 892 186 892 186 890 208 c 128,-1,2
 888 230 888 230 888 253.5 c 128,-1,3
 888 277 888 277 896 280 c 0,4,5
 897 280 897 280 899 280 c 0,6,7
 929 280 929 280 1010 321 c 128,-1,8
 1091 362 1091 362 1194.5 431.5 c 128,-1,9
 1298 501 1298 501 1410.5 609.5 c 128,-1,10
 1523 718 1523 718 1596 829 c 0,11,12
 1609 848 1609 848 1618 848 c 0,13,14
 1621 848 1621 848 1624.5 845 c 128,-1,15
 1628 842 1628 842 1628 835 c 128,-1,16
 1628 828 1628 828 1621 816 c 0,17,18
 1507 627 1507 627 1300 460.5 c 128,-1,19
 1093 294 1093 294 954 259 c 0,20,21
 952 256 952 256 952 246.5 c 128,-1,22
 952 237 952 237 954 215 c 128,-1,23
 956 193 956 193 973.5 130.5 c 128,-1,24
 991 68 991 68 1014 15 c 0,25,26
 1082 -141 1082 -141 1193 -141 c 0,27,28
 1257 -141 1257 -141 1315.5 -114 c 128,-1,29
 1374 -87 1374 -87 1400 -36 c 0,30,31
 1406 -22 1406 -22 1415 -22 c 128,-1,32
 1424 -22 1424 -22 1413 -44 c 0,33,34
 1386 -99 1386 -99 1318.5 -141.5 c 128,-1,35
 1251 -184 1251 -184 1180 -184 c 128,-1,36
 1109 -184 1109 -184 1046 -132 c 0,37,38
 936 -42 936 -42 898 152 c 0,0,1
1065.5 766.5 m 128,-1,40
 1088 794 1088 794 1104.5 798.5 c 128,-1,41
 1121 803 1121 803 1136.5 803 c 128,-1,42
 1152 803 1152 803 1160 790 c 128,-1,43
 1168 777 1168 777 1168 764 c 128,-1,44
 1168 751 1168 751 1149 734 c 0,45,46
 1117 705 1117 705 1048 698 c 1,47,48
 991 595 991 595 917 367 c 0,49,50
 890 284 890 284 844.5 190.5 c 128,-1,51
 799 97 799 97 747 27 c 128,-1,52
 695 -43 695 -43 609.5 -96.5 c 128,-1,53
 524 -150 524 -150 416 -166 c 0,54,55
 381 -171 381 -171 338.5 -171 c 128,-1,56
 296 -171 296 -171 246 -160 c 0,57,58
 63 -118 63 -118 10 20 c 0,59,60
 -6 62 -6 62 -6 103.5 c 128,-1,61
 -6 145 -6 145 5.5 189 c 128,-1,62
 17 233 17 233 55.5 267.5 c 128,-1,63
 94 302 94 302 119 305 c 0,64,65
 132 307 132 307 132 299 c 0,66,67
 132 294 132 294 126 291 c 0,68,69
 102 280 102 280 68 239 c 0,70,71
 24 185 24 185 24 105 c 0,72,73
 24 23 24 23 74 -28 c 0,74,75
 135 -92 135 -92 218 -108 c 0,76,77
 275 -119 275 -119 312 -119 c 128,-1,78
 349 -119 349 -119 377 -111 c 0,79,80
 459 -92 459 -92 530.5 -51.5 c 128,-1,81
 602 -11 602 -11 650.5 34.5 c 128,-1,82
 699 80 699 80 743.5 143.5 c 128,-1,83
 788 207 788 207 813.5 255 c 128,-1,84
 839 303 839 303 904 450 c 128,-1,85
 969 597 969 597 1018 696 c 1,86,87
 1003 694 1003 694 932 688 c 0,88,89
 801 677 801 677 728 656 c 0,90,91
 591 618 591 618 533 510 c 0,92,93
 505 458 505 458 505 409 c 0,94,95
 505 383 505 383 513 358 c 0,96,97
 535 291 535 291 600 291 c 0,98,99
 682 291 682 291 715 376 c 0,100,101
 731 417 731 417 731 444 c 128,-1,102
 731 471 731 471 729 482 c 128,-1,103
 727 493 727 493 732 493 c 0,104,105
 740 491 740 491 746 480 c 0,106,107
 755 459 755 459 755 430.5 c 128,-1,108
 755 402 755 402 736 365 c 0,109,110
 706 302 706 302 652 282 c 0,111,112
 619 270 619 270 590 270 c 0,113,114
 540 270 540 270 500 306 c 0,115,116
 446 354 446 354 446 431 c 0,117,118
 446 540 446 540 548 614 c 0,119,120
 642 684 642 684 820 703 c 0,121,122
 874 709 874 709 943.5 713.5 c 128,-1,123
 1013 718 1013 718 1032 720 c 1,124,39
 1043 739 1043 739 1065.5 766.5 c 128,-1,40
1137 764 m 0,125,126
 1137 775 1137 775 1128 775 c 0,127,128
 1117 775 1117 775 1105.5 765.5 c 128,-1,129
 1094 756 1094 756 1066 723 c 1,130,131
 1095 727 1095 727 1110 735 c 0,132,133
 1137 748 1137 748 1137 764 c 0,125,126
EndSplineSet
EndChar

StartChar: L
Encoding: 44 76 47
Width: 712
GlyphClass: 2
Flags: W
LayerCount: 2
Fore
SplineSet
958 760 m 0,0,1
 958 673 958 673 901.5 578 c 128,-1,2
 845 483 845 483 745.5 412.5 c 128,-1,3
 646 342 646 342 540 324 c 1,4,5
 479 201 479 201 452 152 c 2,6,-1
 431 118 l 1,7,8
 629 69 629 69 759 -31 c 0,9,10
 825 -82 825 -82 848 -156 c 0,11,12
 860 -194 860 -194 860 -221 c 128,-1,13
 860 -248 860 -248 849.5 -266.5 c 128,-1,14
 839 -285 839 -285 825 -292 c 128,-1,15
 811 -299 811 -299 805 -299 c 128,-1,16
 799 -299 799 -299 799 -294 c 128,-1,17
 799 -289 799 -289 810.5 -264.5 c 128,-1,18
 822 -240 822 -240 822 -207 c 128,-1,19
 822 -174 822 -174 808 -134 c 128,-1,20
 794 -94 794 -94 756 -60.5 c 128,-1,21
 718 -27 718 -27 650.5 2.5 c 128,-1,22
 583 32 583 32 533.5 44.5 c 128,-1,23
 484 57 484 57 401 73 c 1,24,25
 316 -46 316 -46 224 -90 c 0,26,27
 169 -117 169 -117 126.5 -117 c 128,-1,28
 84 -117 84 -117 51 -100 c 0,29,30
 -6 -72 -6 -72 -6 -15 c 128,-1,31
 -6 42 -6 42 69 85 c 0,32,33
 154 135 154 135 299 135 c 0,34,35
 351 135 351 135 393 127 c 1,36,37
 438 197 438 197 498 320 c 1,38,39
 492 320 492 320 487 320 c 0,40,41
 424 320 424 320 370 341 c 128,-1,42
 316 362 316 362 284 398 c 0,43,44
 242 445 242 445 242 504 c 0,45,46
 242 535 242 535 257.5 571 c 128,-1,47
 273 607 273 607 326.5 644 c 128,-1,48
 380 681 380 681 462 700 c 0,49,50
 475 703 475 703 484 703 c 128,-1,51
 493 703 493 703 495 698 c 128,-1,52
 497 693 497 693 487 689 c 128,-1,53
 477 685 477 685 464 683 c 0,54,55
 421 678 421 678 384 654 c 0,56,57
 320 613 320 613 295 528 c 0,58,59
 289 508 289 508 289 489.5 c 128,-1,60
 289 471 289 471 296 445 c 128,-1,61
 303 419 303 419 326 391.5 c 128,-1,62
 349 364 349 364 388.5 353 c 128,-1,63
 428 342 428 342 457.5 342 c 128,-1,64
 487 342 487 342 512 345 c 1,65,-1
 597 559 l 2,66,67
 685 785 685 785 807 837 c 0,68,69
 839 850 839 850 869.5 850 c 128,-1,70
 900 850 900 850 927.5 830.5 c 128,-1,71
 955 811 955 811 957 783 c 0,72,73
 958 771 958 771 958 760 c 0,0,1
916 759 m 0,74,75
 916 797 916 797 881 797 c 0,76,77
 830 797 830 797 757 708 c 0,78,79
 700 637 700 637 647.5 536.5 c 128,-1,80
 595 436 595 436 554 351 c 1,81,82
 693 382 693 382 804.5 503.5 c 128,-1,83
 916 625 916 625 916 759 c 0,74,75
362 79 m 1,84,85
 313 90 313 90 261 90 c 128,-1,86
 209 90 209 90 154 75 c 0,87,88
 39 45 39 45 19 -10 c 0,89,90
 15 -20 15 -20 15 -29 c 0,91,92
 15 -55 15 -55 43.5 -71.5 c 128,-1,93
 72 -88 72 -88 106 -88 c 0,94,95
 153 -88 153 -88 208 -62 c 0,96,97
 291 -22 291 -22 362 79 c 1,84,85
EndSplineSet
EndChar

StartChar: M
Encoding: 45 77 48
Width: 1329
GlyphClass: 2
Flags: W
AnchorPoint: "tones" 1193 707 basechar 0
LayerCount: 2
Fore
SplineSet
431 358 m 0,0,1
 431 427 431 427 366 427 c 0,2,3
 357 427 357 427 344 425.5 c 128,-1,4
 331 424 331 424 326 432 c 0,5,6
 318 443 318 443 352 447 c 0,7,8
 364 449 364 449 376 449 c 0,9,10
 434 449 434 449 455 399 c 0,11,12
 464 378 464 378 464 345.5 c 128,-1,13
 464 313 464 313 436 264 c 0,14,15
 387 175 387 175 282 131 c 0,16,17
 247 116 247 116 209.5 116 c 128,-1,18
 172 116 172 116 132 135 c 0,19,20
 58 170 58 170 29 252 c 0,21,22
 18 284 18 284 18 332.5 c 128,-1,23
 18 381 18 381 45 455 c 1,24,25
 107 600 107 600 249 702 c 0,26,27
 401 812 401 812 533 812 c 0,28,29
 645 812 645 812 683 722 c 0,30,31
 700 683 700 683 700 628 c 0,32,33
 700 610 700 610 698 591 c 0,34,35
 688 504 688 504 646 392 c 0,36,37
 639 373 639 373 639 366.5 c 128,-1,38
 639 360 639 360 642 360 c 0,39,40
 647 359 647 359 659 381 c 0,41,42
 733 516 733 516 822 623 c 0,43,44
 851 658 851 658 892 680 c 0,45,46
 937 704 937 704 972.5 704 c 128,-1,47
 1008 704 1008 704 1028.5 678 c 128,-1,48
 1049 652 1049 652 1049 609 c 0,49,50
 1049 508 1049 508 970 272 c 0,51,52
 954 225 954 225 950 212 c 1,53,54
 1031 339 1031 339 1153.5 491.5 c 128,-1,55
 1276 644 1276 644 1371 672 c 0,56,57
 1388 677 1388 677 1401 677 c 0,58,59
 1439 677 1439 677 1450 639 c 0,60,61
 1454 626 1454 626 1454 609 c 0,62,63
 1454 558 1454 558 1414 478 c 0,64,65
 1332 314 1332 314 1302 217 c 0,66,67
 1261 89 1261 89 1261 42 c 128,-1,68
 1261 -5 1261 -5 1270 -36 c 0,69,70
 1288 -98 1288 -98 1365 -98 c 0,71,72
 1369 -98 1369 -98 1381.5 -97.5 c 128,-1,73
 1394 -97 1394 -97 1395.5 -102 c 128,-1,74
 1397 -107 1397 -107 1388.5 -111 c 128,-1,75
 1380 -115 1380 -115 1371.5 -115 c 128,-1,76
 1363 -115 1363 -115 1358 -114 c 0,77,78
 1200 -98 1200 -98 1200 48 c 0,79,80
 1200 101 1200 101 1221.5 168.5 c 128,-1,81
 1243 236 1243 236 1258 272 c 0,82,83
 1282 330 1282 330 1359 499 c 0,84,85
 1386 562 1386 562 1386 595 c 128,-1,86
 1386 628 1386 628 1358 628 c 0,87,88
 1319 628 1319 628 1237 548 c 0,89,90
 1195 506 1195 506 1146 445.5 c 128,-1,91
 1097 385 1097 385 1001 233.5 c 128,-1,92
 905 82 905 82 879 20 c 0,93,94
 856 -34 856 -34 818 -34 c 0,95,96
 791 -34 791 -34 786 -15 c 0,97,98
 783 -7 783 -7 786 -2.5 c 128,-1,99
 789 2 789 2 805 31 c 128,-1,100
 821 60 821 60 838 92 c 128,-1,101
 855 124 855 124 878.5 179 c 128,-1,102
 902 234 902 234 922 291 c 0,103,104
 970 432 970 432 987 581 c 0,105,106
 989 598 989 598 989 623.5 c 128,-1,107
 989 649 989 649 975.5 664 c 128,-1,108
 962 679 962 679 947 679 c 0,109,110
 898 679 898 679 839 605 c 0,111,112
 759 506 759 506 700 410.5 c 128,-1,113
 641 315 641 315 609.5 250 c 128,-1,114
 578 185 578 185 536.5 93.5 c 128,-1,115
 495 2 495 2 492.5 -4 c 128,-1,116
 490 -10 490 -10 485.5 -19 c 128,-1,117
 481 -28 481 -28 478 -36 c 0,118,119
 465 -65 465 -65 422 -65 c 0,120,121
 397 -65 397 -65 395 -49 c 0,122,123
 395 -46 395 -46 396 -42 c 0,124,125
 462 60 462 60 542 267 c 0,126,127
 644 529 644 529 644 649 c 0,128,129
 644 792 644 792 526 792 c 0,130,131
 450 792 450 792 334.5 719 c 128,-1,132
 219 646 219 646 143 532 c 0,133,134
 113 487 113 487 98 445 c 0,135,136
 72 368 72 368 72 323 c 0,137,138
 72 194 72 194 158 153 c 0,139,140
 188 138 188 138 219 138 c 0,141,142
 327 138 327 138 396 255 c 0,143,144
 431 314 431 314 431 358 c 0,0,1
EndSplineSet
EndChar

StartChar: N
Encoding: 46 78 49
Width: 1039
GlyphClass: 2
Flags: W
AnchorPoint: "tones" 827 760 basechar 0
LayerCount: 2
Fore
SplineSet
423 363 m 0,0,1
 423 427 423 427 356 427 c 0,2,3
 348 427 348 427 338.5 426 c 128,-1,4
 329 425 329 425 326.5 428.5 c 128,-1,5
 324 432 324 432 328 436 c 0,6,7
 337 448 337 448 387.5 448 c 128,-1,8
 438 448 438 448 454 404 c 0,9,10
 461 387 461 387 461 368 c 0,11,12
 461 325 461 325 429 270 c 0,13,14
 375 180 375 180 280 142 c 0,15,16
 231 122 231 122 171.5 122 c 128,-1,17
 112 122 112 122 63.5 162.5 c 128,-1,18
 15 203 15 203 0 277 c 0,19,20
 -3 296 -3 296 -3 318 c 0,21,22
 -3 378 -3 378 29 457.5 c 128,-1,23
 61 537 61 537 136 610 c 0,24,25
 278 750 278 750 436 783 c 0,26,27
 480 792 480 792 513 792 c 128,-1,28
 546 792 546 792 569 789 c 0,29,30
 631 780 631 780 666 730 c 0,31,32
 694 691 694 691 694 631 c 0,33,34
 694 577 694 577 682 540.5 c 128,-1,35
 670 504 670 504 666 492.5 c 128,-1,36
 662 481 662 481 651.5 457 c 128,-1,37
 641 433 641 433 638 426 c 128,-1,38
 635 419 635 419 622 390 c 0,39,40
 580 299 580 299 582 298 c 2,41,-1
 613 348 l 2,42,43
 674 442 674 442 745 528 c 0,44,45
 877 688 877 688 982 736 c 0,46,47
 1041 764 1041 764 1085 764 c 128,-1,48
 1129 764 1129 764 1158.5 742.5 c 128,-1,49
 1188 721 1188 721 1188 669 c 128,-1,50
 1188 617 1188 617 1155 542.5 c 128,-1,51
 1122 468 1122 468 1058.5 352 c 128,-1,52
 995 236 995 236 951 141 c 128,-1,53
 907 46 907 46 907 -28 c 0,54,55
 907 -54 907 -54 914 -75 c 0,56,57
 928 -121 928 -121 968 -121 c 0,58,59
 990 -121 990 -121 1013.5 -110 c 128,-1,60
 1037 -99 1037 -99 1049 -99 c 128,-1,61
 1061 -99 1061 -99 1061 -112 c 128,-1,62
 1061 -125 1061 -125 1042 -135.5 c 128,-1,63
 1023 -146 1023 -146 1011 -146 c 0,64,65
 851 -146 851 -146 851 -7 c 0,66,67
 851 44 851 44 868.5 96 c 128,-1,68
 886 148 886 148 993 373 c 128,-1,69
 1100 598 1100 598 1109 657 c 0,70,71
 1111 666 1111 666 1111 674 c 0,72,73
 1111 716 1111 716 1062 716 c 0,74,75
 1029 716 1029 716 987 694 c 0,76,77
 830 619 830 619 688 407 c 0,78,79
 604 282 604 282 497 52 c 0,80,81
 458 -32 458 -32 456 -36 c 0,82,83
 442 -65 442 -65 400 -65 c 0,84,85
 375 -65 375 -65 373 -49 c 0,86,87
 372 -46 372 -46 373 -42 c 0,88,89
 421 29 421 29 507.5 220.5 c 128,-1,90
 594 412 594 412 626 554 c 0,91,92
 636 601 636 601 636 637.5 c 128,-1,93
 636 674 636 674 626 700 c 0,94,95
 605 753 605 753 555 761 c 0,96,97
 540 763 540 763 513 763 c 128,-1,98
 486 763 486 763 432.5 747.5 c 128,-1,99
 379 732 379 732 312 690 c 0,100,101
 161 596 161 596 93 445 c 0,102,103
 56 363 56 363 56 294 c 0,104,105
 56 259 56 259 65 228 c 0,106,107
 98 145 98 145 181 141 c 1,108,109
 284 141 284 141 361 227 c 0,110,111
 423 296 423 296 423 363 c 0,0,1
EndSplineSet
EndChar

StartChar: O
Encoding: 47 79 50
Width: 726
GlyphClass: 2
Flags: W
AnchorPoint: "tones" 600 793 basechar 0
AnchorPoint: "o_dot" 827 707 basechar 0
LayerCount: 2
Fore
SplineSet
538 24 m 0,0,1
 427 -61 427 -61 313 -61 c 0,2,3
 193 -61 193 -61 138 28 c 0,4,5
 99 93 99 93 99 172.5 c 128,-1,6
 99 252 99 252 128 331 c 1,7,8
 58 378 58 378 51 457 c 0,9,10
 49 472 49 472 49 487 c 0,11,12
 49 607 49 607 152 688 c 0,13,14
 262 774 262 774 412 774 c 128,-1,15
 562 774 562 774 660.5 690.5 c 128,-1,16
 759 607 759 607 759 452 c 0,17,18
 759 442 759 442 759 432 c 1,19,20
 859 498 859 498 889 558 c 0,21,22
 894 569 894 569 902 567.5 c 128,-1,23
 910 566 910 566 910 561 c 128,-1,24
 910 556 910 556 904 547 c 0,25,26
 845 454 845 454 755 397 c 1,27,28
 751 350 751 350 729.5 284 c 128,-1,29
 708 218 708 218 657 147.5 c 128,-1,30
 606 77 606 77 538 24 c 0,0,1
700 453 m 0,31,32
 700 622 700 622 592 703 c 0,33,34
 520 757 520 757 424 757 c 0,35,36
 396 757 396 757 367 752 c 0,37,38
 245 734 245 734 168 651 c 0,39,40
 103 579 103 579 103 488 c 0,41,42
 103 409 103 409 146 372 c 1,43,44
 185 455 185 455 261 540 c 0,45,46
 344 633 344 633 436 654 c 0,47,48
 451 657 451 657 474.5 657 c 128,-1,49
 498 657 498 657 529 638 c 0,50,51
 536 634 536 634 536.5 630 c 128,-1,52
 537 626 537 626 532 624 c 128,-1,53
 527 622 527 622 517 625.5 c 128,-1,54
 507 629 507 629 483.5 629 c 128,-1,55
 460 629 460 629 416 605 c 128,-1,56
 372 581 372 581 327 530 c 0,57,58
 238 429 238 429 197 338 c 1,59,60
 260 309 260 309 348 309 c 0,61,62
 387 309 387 309 431 314 c 0,63,64
 574 333 574 333 698 400 c 1,65,66
 700 427 700 427 700 453 c 0,31,32
692 365 m 1,67,68
 525 276 525 276 340 276 c 0,69,70
 250 276 250 276 182 303 c 1,71,72
 151 222 151 222 151 163 c 0,73,74
 151 25 151 25 234 -16 c 0,75,76
 279 -37 279 -37 323.5 -37 c 128,-1,77
 368 -37 368 -37 410 -18 c 0,78,79
 498 22 498 22 568 107 c 128,-1,80
 638 192 638 192 674 294 c 0,81,82
 688 334 688 334 692 365 c 1,67,68
EndSplineSet
EndChar

StartChar: P
Encoding: 48 80 51
Width: 890
GlyphClass: 2
Flags: W
LayerCount: 2
Fore
SplineSet
964 705 m 0,0,1
 1070 642 1070 642 1070 553 c 0,2,3
 1070 483 1070 483 992 403 c 0,4,5
 947 356 947 356 885.5 322 c 128,-1,6
 824 288 824 288 764 273 c 0,7,8
 660 248 660 248 576 248 c 0,9,10
 558 248 558 248 540 249 c 1,11,12
 467 142 467 142 390 67 c 0,13,14
 277 -39 277 -39 141 -39 c 0,15,16
 11 -39 11 -39 -19 32 c 0,17,18
 -26 49 -26 49 -26 71.5 c 128,-1,19
 -26 94 -26 94 -3 120 c 0,20,21
 33 161 33 161 98 161 c 0,22,23
 140 161 140 161 186 146 c 0,24,25
 203 140 203 140 198 133 c 0,26,27
 194 129 194 129 172 137 c 128,-1,28
 150 145 150 145 117.5 145 c 128,-1,29
 85 145 85 145 60.5 120.5 c 128,-1,30
 36 96 36 96 36 68 c 0,31,32
 36 57 36 57 40 46 c 0,33,34
 56 -8 56 -8 131 -8 c 0,35,36
 243 -8 243 -8 351 96 c 0,37,38
 428 171 428 171 524 366 c 0,39,40
 561 439 561 439 616 528.5 c 128,-1,41
 671 618 671 618 728 682 c 0,42,43
 735 689 735 689 746 700 c 0,44,45
 767 724 767 724 781 738 c 1,46,47
 709 748 709 748 627 748 c 128,-1,48
 545 748 545 748 472 734.5 c 128,-1,49
 399 721 399 721 345 702.5 c 128,-1,50
 291 684 291 684 235.5 654.5 c 128,-1,51
 180 625 180 625 142 580 c 0,52,53
 92 523 92 523 92 461 c 0,54,55
 92 423 92 423 119 390 c 0,56,57
 148 355 148 355 193.5 355 c 128,-1,58
 239 355 239 355 281.5 390 c 128,-1,59
 324 425 324 425 342 476 c 0,60,61
 343 483 343 483 346.5 485.5 c 128,-1,62
 350 488 350 488 353 485 c 128,-1,63
 356 482 356 482 356 475 c 0,64,65
 355 410 355 410 305.5 372.5 c 128,-1,66
 256 335 256 335 196 335 c 0,67,68
 128 335 128 335 85 375 c 128,-1,69
 42 415 42 415 42 478 c 0,70,71
 42 536 42 536 73 582.5 c 128,-1,72
 104 629 104 629 147 658 c 128,-1,73
 190 687 190 687 246 710 c 0,74,75
 341 748 341 748 445.5 763.5 c 128,-1,76
 550 779 550 779 640.5 779 c 128,-1,77
 731 779 731 779 808 763 c 1,78,79
 844 791 844 791 871 801 c 128,-1,80
 898 811 898 811 901.5 811 c 128,-1,81
 905 811 905 811 906 810 c 0,82,83
 912 810 912 810 908.5 803.5 c 128,-1,84
 905 797 905 797 885.5 784 c 128,-1,85
 866 771 866 771 848 753 c 1,86,87
 912 736 912 736 964 705 c 0,0,1
568 270 m 0,88,89
 641 270 641 270 726.5 295.5 c 128,-1,90
 812 321 812 321 878 370 c 0,91,92
 1006 467 1006 467 1006 570 c 0,93,94
 1006 687 1006 687 829 729 c 1,95,96
 773 651 773 651 684 492 c 128,-1,97
 595 333 595 333 554 270 c 1,98,99
 561 270 561 270 568 270 c 0,88,89
EndSplineSet
EndChar

StartChar: Q
Encoding: 49 81 52
Width: 752
GlyphClass: 2
Flags: W
LayerCount: 2
Fore
SplineSet
491 628 m 0,0,1
 446 628 446 628 390 590 c 0,2,3
 316 539 316 539 258 455 c 128,-1,4
 200 371 200 371 170 266 c 0,5,6
 152 205 152 205 152 160 c 0,7,8
 152 44 152 44 216 -10 c 0,9,10
 256 -43 256 -43 304 -43 c 0,11,12
 404 -43 404 -43 503 32 c 0,13,14
 567 81 567 81 614 142 c 0,15,16
 717 278 717 278 717 433 c 0,17,18
 717 539 717 539 662 621 c 0,19,20
 593 724 593 724 466 750 c 0,21,22
 427 759 427 759 389 759 c 128,-1,23
 351 759 351 759 316 754 c 0,24,25
 201 739 201 739 152 655 c 0,26,27
 120 602 120 602 120 536 c 0,28,29
 120 497 120 497 131 453 c 0,30,31
 135 436 135 436 126 432 c 128,-1,32
 117 428 117 428 107 447 c 0,33,34
 82 497 82 497 82 549.5 c 128,-1,35
 82 602 82 602 118 656 c 0,36,37
 183 754 183 754 312 776 c 0,38,39
 377 786 377 786 418 786 c 0,40,41
 545 786 545 786 616 746 c 0,42,43
 729 683 729 683 756 572 c 0,44,45
 770 518 770 518 770 457 c 128,-1,46
 770 396 770 396 749.5 330.5 c 128,-1,47
 729 265 729 265 696.5 205.5 c 128,-1,48
 664 146 664 146 614 92 c 0,49,50
 474 -63 474 -63 310 -63 c 0,51,52
 240 -63 240 -63 191 -27 c 128,-1,53
 142 9 142 9 120 64 c 0,54,55
 96 125 96 125 96 184 c 128,-1,56
 96 243 96 243 109 294 c 128,-1,57
 122 345 122 345 147.5 400 c 128,-1,58
 173 455 173 455 208 499 c 128,-1,59
 243 543 243 543 283 580 c 0,60,61
 357 649 357 649 450 656 c 0,62,63
 456 657 456 657 461 657 c 0,64,65
 496 657 496 657 529 638 c 0,66,67
 536 634 536 634 536.5 630 c 128,-1,68
 537 626 537 626 532 624 c 128,-1,69
 527 622 527 622 517 625 c 128,-1,70
 507 628 507 628 491 628 c 0,0,1
428 -314 m 0,71,72
 351 -270 351 -270 283 -200 c 0,73,74
 254 -171 254 -171 228 -146 c 0,75,76
 169 -91 169 -91 111 -91 c 0,77,78
 90 -91 90 -91 68.5 -104.5 c 128,-1,79
 47 -118 47 -118 45.5 -134.5 c 128,-1,80
 44 -151 44 -151 37 -150 c 0,81,82
 29 -150 29 -150 29 -130.5 c 128,-1,83
 29 -111 29 -111 54.5 -86 c 128,-1,84
 80 -61 80 -61 111 -61 c 0,85,86
 197 -61 197 -61 298 -142 c 0,87,88
 342 -178 342 -178 390.5 -215.5 c 128,-1,89
 439 -253 439 -253 510.5 -288 c 128,-1,90
 582 -323 582 -323 665 -339 c 0,91,92
 694 -345 694 -345 718 -345 c 0,93,94
 779 -345 779 -345 801 -307 c 0,95,96
 811 -290 811 -290 811 -266.5 c 128,-1,97
 811 -243 811 -243 789 -211 c 0,98,99
 743 -143 743 -143 647 -127 c 0,100,101
 631 -125 631 -125 631 -115 c 0,102,103
 631 -106 631 -106 644 -108 c 0,104,105
 761 -127 761 -127 814 -197 c 0,106,107
 839 -232 839 -232 839 -258.5 c 128,-1,108
 839 -285 839 -285 827 -306 c 0,109,110
 790 -369 790 -369 657.5 -369 c 128,-1,111
 525 -369 525 -369 428 -314 c 0,71,72
EndSplineSet
EndChar

StartChar: R
Encoding: 50 82 53
Width: 1024
GlyphClass: 2
Flags: W
LayerCount: 2
Fore
SplineSet
889.5 -41 m 128,-1,1
 831 -41 831 -41 777 15.5 c 128,-1,2
 723 72 723 72 687 177 c 128,-1,3
 651 282 651 282 637 365 c 1,4,5
 605 301 605 301 587 267.5 c 128,-1,6
 569 234 569 234 534 182 c 128,-1,7
 499 130 499 130 461 88 c 0,8,9
 343 -39 343 -39 194 -39 c 0,10,11
 59 -39 59 -39 26 34 c 0,12,13
 18 51 18 51 18 73.5 c 128,-1,14
 18 96 18 96 41 122 c 0,15,16
 78 163 78 163 143 163 c 0,17,18
 187 163 187 163 236 146 c 0,19,20
 249 141 249 141 246 135 c 128,-1,21
 243 129 243 129 220 138 c 128,-1,22
 197 147 197 147 164.5 147 c 128,-1,23
 132 147 132 147 108.5 122 c 128,-1,24
 85 97 85 97 85 70 c 0,25,26
 85 58 85 58 90 44 c 0,27,28
 110 -8 110 -8 184 -8 c 0,29,30
 266 -8 266 -8 329 41 c 0,31,32
 365 69 365 69 394 98 c 128,-1,33
 423 127 423 127 456 176 c 0,34,35
 508 251 508 251 544.5 315.5 c 128,-1,36
 581 380 581 380 623.5 456.5 c 128,-1,37
 666 533 666 533 686 568 c 0,38,39
 750 677 750 677 803 735 c 1,40,41
 747 740 747 740 691 740 c 0,42,43
 563 740 563 740 436.5 713.5 c 128,-1,44
 310 687 310 687 236 626 c 0,45,46
 143 549 143 549 143 462 c 0,47,48
 143 420 143 420 173 387.5 c 128,-1,49
 203 355 203 355 254 355 c 0,50,51
 316 355 316 355 357 399 c 128,-1,52
 398 443 398 443 400 469 c 0,53,54
 401 482 401 482 406 482 c 0,55,56
 414 482 414 482 413 467 c 0,57,58
 406 419 406 419 374 386 c 0,59,60
 318 328 318 328 240 328 c 0,61,62
 181 328 181 328 137.5 368 c 128,-1,63
 94 408 94 408 94 475 c 0,64,65
 94 574 94 574 190.5 652.5 c 128,-1,66
 287 731 287 731 444 754 c 0,67,68
 556 770 556 770 650.5 770 c 128,-1,69
 745 770 745 770 825 759 c 1,70,71
 851 787 851 787 861 787 c 0,72,73
 867 787 867 787 867 777.5 c 128,-1,74
 867 768 867 768 862 754 c 1,75,76
 936 742 936 742 961 735 c 0,77,78
 1111 691 1111 691 1111 599 c 0,79,80
 1111 540 1111 540 1038 482 c 0,81,82
 946 411 946 411 792 386 c 0,83,84
 748 379 748 379 700 377 c 1,85,86
 732 200 732 200 811 79 c 0,87,88
 838 38 838 38 860.5 19.5 c 128,-1,89
 883 1 883 1 909 1 c 0,90,91
 945 1 945 1 985.5 41 c 128,-1,92
 1026 81 1026 81 1079 187 c 0,93,94
 1087 202 1087 202 1095 202 c 256,95,96
 1103 202 1103 202 1096 187 c 0,97,98
 1038 57 1038 57 993 8 c 128,-1,0
 948 -41 948 -41 889.5 -41 c 128,-1,1
1039 614 m 0,99,100
 1039 622 1039 622 1037 630 c 0,101,102
 1026 686 1026 686 948 710 c 0,103,104
 924 717 924 717 850 729 c 1,105,106
 832 698 832 698 762 584 c 128,-1,107
 692 470 692 470 658 403 c 1,108,109
 680 407 680 407 722.5 410.5 c 128,-1,110
 765 414 765 414 784 416 c 0,111,112
 898 430 898 430 978 505 c 0,113,114
 1039 561 1039 561 1039 614 c 0,99,100
EndSplineSet
EndChar

StartChar: S
Encoding: 51 83 54
Width: 901
GlyphClass: 2
Flags: W
LayerCount: 2
Fore
SplineSet
900 679 m 0,0,1
 900 714 900 714 868 745 c 0,2,3
 822 789 822 789 741 789 c 0,4,5
 670 789 670 789 584 758 c 0,6,7
 539 742 539 742 506 714 c 0,8,9
 455 670 455 670 455 626 c 0,10,11
 455 567 455 567 530 520 c 0,12,13
 558 503 558 503 642.5 464.5 c 128,-1,14
 727 426 727 426 766 402 c 0,15,16
 825 366 825 366 847.5 325 c 128,-1,17
 870 284 870 284 870 249 c 0,18,19
 870 199 870 199 837 147 c 0,20,21
 779 54 779 54 667 -13 c 0,22,23
 538 -91 538 -91 356 -91 c 0,24,25
 181 -91 181 -91 78 -2 c 0,26,27
 -2 66 -2 66 -2 173 c 0,28,29
 -2 241 -2 241 47.5 323 c 128,-1,30
 97 405 97 405 169 439 c 0,31,32
 184 445 184 445 191.5 443 c 128,-1,33
 199 441 199 441 179 424 c 0,34,35
 136 390 136 390 110 349 c 0,36,37
 54 261 54 261 54 158 c 0,38,39
 54 90 54 90 92 39 c 0,40,41
 160 -52 160 -52 328 -64 c 0,42,43
 347 -66 347 -66 384.5 -66 c 128,-1,44
 422 -66 422 -66 486.5 -52.5 c 128,-1,45
 551 -39 551 -39 611 -8 c 0,46,47
 740 60 740 60 778 168 c 0,48,49
 790 200 790 200 790 230 c 0,50,51
 790 298 790 298 729 350 c 0,52,53
 696 376 696 376 594.5 419.5 c 128,-1,54
 493 463 493 463 458 486 c 0,55,56
 381 538 381 538 381 609 c 0,57,58
 381 671 381 671 450 730 c 0,59,60
 549 814 549 814 730 814 c 0,61,62
 815 814 815 814 868.5 788.5 c 128,-1,63
 922 763 922 763 934 712 c 0,64,65
 936 702 936 702 936 692 c 0,66,67
 936 653 936 653 900 622 c 0,68,69
 875 602 875 602 833 590 c 0,70,71
 815 585 815 585 813 594 c 0,72,73
 811 607 811 607 838 610 c 0,74,75
 886 616 886 616 897 658 c 0,76,77
 900 669 900 669 900 679 c 0,0,1
EndSplineSet
EndChar

StartChar: T
Encoding: 52 84 55
Width: 918
GlyphClass: 2
Flags: W
LayerCount: 2
Fore
SplineSet
1317 586 m 0,0,1
 1379 586 1379 586 1379 616 c 0,2,3
 1379 631 1379 631 1389.5 631 c 128,-1,4
 1400 631 1400 631 1400 606.5 c 128,-1,5
 1400 582 1400 582 1372 569 c 128,-1,6
 1344 556 1344 556 1322.5 556 c 128,-1,7
 1301 556 1301 556 1287 558 c 0,8,9
 1140 577 1140 577 1035 622 c 1,10,11
 964 510 964 510 908 324 c 0,12,13
 887 257 887 257 848.5 179 c 128,-1,14
 810 101 810 101 765.5 50.5 c 128,-1,15
 721 0 721 0 663 -32 c 0,16,17
 549 -94 549 -94 394 -94 c 0,18,19
 268 -94 268 -94 158 -32 c 0,20,21
 50 29 50 29 32 156 c 0,22,23
 30 173 30 173 30 206.5 c 128,-1,24
 30 240 30 240 49.5 302 c 128,-1,25
 69 364 69 364 123 396 c 0,26,27
 145 409 145 409 156 409 c 0,28,29
 174 409 174 409 172 392 c 0,30,31
 168 387 168 387 151.5 375.5 c 128,-1,32
 135 364 135 364 120 351.5 c 128,-1,33
 105 339 105 339 90 313 c 0,34,35
 64 269 64 269 64 214 c 0,36,37
 64 88 64 88 150 20 c 0,38,39
 196 -18 196 -18 253 -38 c 128,-1,40
 310 -58 310 -58 367 -58 c 0,41,42
 369 -58 369 -58 372 -58 c 0,43,44
 579 -53 579 -53 712 92 c 0,45,46
 796 183 796 183 942 503 c 0,47,48
 992 613 992 613 1006 632 c 1,49,50
 829 688 829 688 688 688 c 128,-1,51
 547 688 547 688 459 603 c 0,52,53
 388 535 388 535 388 461 c 0,54,55
 388 380 388 380 459 358 c 0,56,57
 484 351 484 351 504.5 351 c 128,-1,58
 525 351 525 351 551.5 358.5 c 128,-1,59
 578 366 578 366 602.5 389.5 c 128,-1,60
 627 413 627 413 639.5 436 c 128,-1,61
 652 459 652 459 650 471 c 2,62,-1
 650 473 l 1,63,64
 658 480 658 480 664 477.5 c 128,-1,65
 670 475 670 475 670 465 c 0,66,67
 660 387 660 387 591 348 c 0,68,69
 549 323 549 323 513 323 c 128,-1,70
 477 323 477 323 449 333 c 0,71,72
 367 362 367 362 345 444 c 0,73,74
 338 470 338 470 338 495 c 0,75,76
 338 555 338 555 375 612 c 0,77,78
 441 714 441 714 582 735 c 0,79,80
 614 740 614 740 643 740 c 128,-1,81
 672 740 672 740 710.5 737 c 128,-1,82
 749 734 749 734 812.5 717 c 128,-1,83
 876 700 876 700 942.5 677.5 c 128,-1,84
 1009 655 1009 655 1022 651 c 1,85,86
 1071 711 1071 711 1095 712 c 0,87,88
 1100 714 1100 714 1108.5 714 c 128,-1,89
 1117 714 1117 714 1122 700 c 128,-1,90
 1127 686 1127 686 1115 682 c 0,91,92
 1110 681 1110 681 1102 683 c 0,93,94
 1096 687 1096 687 1077.5 670.5 c 128,-1,95
 1059 654 1059 654 1050 643 c 1,96,97
 1144 613 1144 613 1215 599.5 c 128,-1,98
 1286 586 1286 586 1317 586 c 0,0,1
EndSplineSet
EndChar

StartChar: U
Encoding: 53 85 56
Width: 942
GlyphClass: 2
Flags: W
AnchorPoint: "tones" 880 573 basechar 0
LayerCount: 2
Fore
SplineSet
986 482 m 1,0,1
 1006 472 1006 472 1006 453 c 0,2,3
 1006 430 1006 430 981 386 c 0,4,5
 898 237 898 237 872 83 c 0,6,7
 865 41 865 41 865 7 c 0,8,9
 865 -62 865 -62 902 -62 c 2,10,-1
 913 -62 l 2,11,12
 931 -62 931 -62 931 -70 c 0,13,14
 931 -82 931 -82 909 -85 c 2,15,-1
 897 -85 l 1,16,17
 864 -79 864 -79 846 -50 c 128,-1,18
 828 -21 828 -21 826.5 9.5 c 128,-1,19
 825 40 825 40 825 60 c 0,20,21
 825 117 825 117 838 179 c 1,22,23
 767 62 767 62 698 6 c 0,24,25
 633 -46 633 -46 575 -46 c 0,26,27
 533 -46 533 -46 510 -19 c 0,28,29
 480 17 480 17 480 71.5 c 128,-1,30
 480 126 480 126 511 214.5 c 128,-1,31
 542 303 542 303 593.5 416 c 128,-1,32
 645 529 645 529 660.5 591 c 128,-1,33
 676 653 676 653 676 702 c 0,34,35
 676 775 676 775 637 798 c 0,36,37
 590 823 590 823 531 823 c 0,38,39
 425 823 425 823 304 753 c 0,40,41
 125 648 125 648 62 488 c 0,42,43
 36 421 36 421 36 365.5 c 128,-1,44
 36 310 36 310 55 265 c 0,45,46
 97 163 97 163 201 163 c 0,47,48
 323 163 323 163 396 287 c 0,49,50
 436 353 436 353 436 404 c 0,51,52
 436 479 436 479 368 479 c 0,53,54
 352 479 352 479 327.5 473.5 c 128,-1,55
 303 468 303 468 305 474 c 0,56,57
 308 482 308 482 335 494 c 128,-1,58
 362 506 362 506 389 506 c 0,59,60
 430 506 430 506 451 471 c 0,61,62
 465 446 465 446 465 412 c 128,-1,63
 465 378 465 378 448 332 c 0,64,65
 410 231 410 231 318 176 c 0,66,67
 250 134 250 134 188 134 c 128,-1,68
 126 134 126 134 78 171 c 0,69,70
 -4 234 -4 234 -4 362.5 c 128,-1,71
 -4 491 -4 491 94 614 c 0,72,73
 173 713 173 713 306 786 c 0,74,75
 421 850 421 850 528 850 c 0,76,77
 584 850 584 850 632 830 c 0,78,79
 729 788 729 788 729 669 c 0,80,81
 729 580 729 580 672 448 c 0,82,83
 639 370 639 370 608.5 305.5 c 128,-1,84
 578 241 578 241 558 175 c 128,-1,85
 538 109 538 109 538 64 c 0,86,87
 538 -20 538 -20 594 -20 c 0,88,89
 654 -20 654 -20 735 80 c 1,90,-1
 762 117 l 2,91,92
 802 175 802 175 865.5 301.5 c 128,-1,93
 929 428 929 428 930 429 c 0,94,95
 960 482 960 482 986 482 c 1,0,1
EndSplineSet
EndChar

StartChar: V
Encoding: 54 86 57
Width: 975
GlyphClass: 2
Flags: W
LayerCount: 2
Fore
SplineSet
548 -96 m 0,0,1
 539 -96 539 -96 530 -94 c 0,2,3
 482 -85 482 -85 482 -9 c 0,4,5
 482 114 482 114 606 410 c 0,6,7
 654 522 654 522 677 628 c 0,8,9
 686 669 686 669 686 693.5 c 128,-1,10
 686 718 686 718 684 732 c 0,11,12
 679 776 679 776 651 793 c 0,13,14
 601 820 601 820 539 820 c 0,15,16
 474 820 474 820 402 788 c 128,-1,17
 330 756 330 756 266.5 710 c 128,-1,18
 203 664 203 664 151 600.5 c 128,-1,19
 99 537 99 537 73.5 467.5 c 128,-1,20
 48 398 48 398 48 342 c 0,21,22
 48 319 48 319 52 298 c 0,23,24
 68 229 68 229 112 195 c 128,-1,25
 156 161 156 161 216 161 c 0,26,27
 300 161 300 161 373.5 235 c 128,-1,28
 447 309 447 309 447 392 c 0,29,30
 447 437 447 437 429 457 c 128,-1,31
 411 477 411 477 392 477 c 128,-1,32
 373 477 373 477 354 471.5 c 128,-1,33
 335 466 335 466 335 472.5 c 128,-1,34
 335 479 335 479 358 489.5 c 128,-1,35
 381 500 381 500 406 500 c 128,-1,36
 431 500 431 500 452 485 c 0,37,38
 491 455 491 455 491 394 c 128,-1,39
 491 333 491 333 444.5 271.5 c 128,-1,40
 398 210 398 210 330 172.5 c 128,-1,41
 262 135 262 135 195.5 135 c 128,-1,42
 129 135 129 135 72 183.5 c 128,-1,43
 15 232 15 232 -4 314 c 0,44,45
 -9 338 -9 338 -9 365 c 0,46,47
 -9 428 -9 428 22 502 c 128,-1,48
 53 576 53 576 111.5 639.5 c 128,-1,49
 170 703 170 703 238 745.5 c 128,-1,50
 306 788 306 788 382 816 c 0,51,52
 458 845 458 845 525 845 c 128,-1,53
 592 845 592 845 647 824 c 0,54,55
 744 782 744 782 744 646 c 0,56,57
 744 546 744 546 672 398 c 0,58,59
 627 306 627 306 592 200 c 0,60,61
 540 43 540 43 540 -18 c 0,62,63
 540 -64 540 -64 571 -64 c 0,64,65
 633 -64 633 -64 788 97 c 0,66,67
 897 210 897 210 959 345 c 0,68,69
 999 431 999 431 999 503 c 0,70,71
 999 541 999 541 993 556.5 c 128,-1,72
 987 572 987 572 985 576.5 c 128,-1,73
 983 581 983 581 977 584.5 c 128,-1,74
 971 588 971 588 969 588 c 0,75,76
 955 592 955 592 940 594.5 c 128,-1,77
 925 597 925 597 922.5 608 c 128,-1,78
 920 619 920 619 933 621 c 2,79,-1
 952 619 l 1,80,81
 998 606 998 606 1032 554 c 0,82,83
 1051 525 1051 525 1051 484.5 c 128,-1,84
 1051 444 1051 444 1032 389 c 0,85,86
 986 267 986 267 890 148.5 c 128,-1,87
 794 30 794 30 700.5 -33 c 128,-1,88
 607 -96 607 -96 548 -96 c 0,0,1
EndSplineSet
EndChar

StartChar: W
Encoding: 55 87 58
Width: 1344
GlyphClass: 2
Flags: W
LayerCount: 2
Fore
SplineSet
869 47 m 0,0,1
 869 -48 869 -48 946 -48 c 0,2,3
 1018 -48 1018 -48 1124 37 c 0,4,5
 1240 129 1240 129 1283 231 c 0,6,7
 1332 346 1332 346 1332 427 c 128,-1,8
 1332 508 1332 508 1299.5 549 c 128,-1,9
 1267 590 1267 590 1210 590 c 0,10,11
 1197 590 1197 590 1183 588 c 0,12,13
 1159 582 1159 582 1147.5 582 c 128,-1,14
 1136 582 1136 582 1136 588 c 0,15,16
 1136 597 1136 597 1154.5 605 c 128,-1,17
 1173 613 1173 613 1182.5 613 c 128,-1,18
 1192 613 1192 613 1198 613 c 128,-1,19
 1204 613 1204 613 1212 613 c 0,20,21
 1269 613 1269 613 1316.5 568 c 128,-1,22
 1364 523 1364 523 1378 436 c 0,23,24
 1381 415 1381 415 1381 393 c 0,25,26
 1381 319 1381 319 1346 225 c 0,27,28
 1297 101 1297 101 1177.5 14 c 128,-1,29
 1058 -73 1058 -73 958 -73 c 0,30,31
 854 -73 854 -73 830 23 c 0,32,33
 823 48 823 48 823 91 c 128,-1,34
 823 134 823 134 844 203 c 1,35,36
 790 113 790 113 704 8 c 0,37,38
 657 -48 657 -48 608 -85 c 0,39,40
 556 -124 556 -124 520 -124 c 0,41,42
 449 -124 449 -124 449 -38 c 0,43,44
 449 63 449 63 580 374 c 0,45,46
 662 572 662 572 662 671 c 0,47,48
 662 735 662 735 623.5 759.5 c 128,-1,49
 585 784 585 784 532 784 c 0,50,51
 509 784 509 784 484 779 c 0,52,53
 307 743 307 743 170 588 c 0,54,55
 102 510 102 510 76 438.5 c 128,-1,56
 50 367 50 367 46.5 332.5 c 128,-1,57
 43 298 43 298 43 275.5 c 128,-1,58
 43 253 43 253 51.5 224 c 128,-1,59
 60 195 60 195 81 170 c 0,60,61
 120 125 120 125 190 125 c 0,62,63
 306 125 306 125 374 246 c 0,64,65
 409 308 409 308 409 358 c 0,66,67
 409 440 409 440 336 440 c 0,68,69
 324 440 324 440 306 437 c 128,-1,70
 288 434 288 434 289 441 c 128,-1,71
 290 448 290 448 316 456 c 128,-1,72
 342 464 342 464 368 464 c 0,73,74
 420 464 420 464 444 424 c 0,75,76
 459 399 459 399 459 365 c 128,-1,77
 459 331 459 331 440 286 c 0,78,79
 389 169 389 169 257 114 c 0,80,81
 222 99 222 99 192 99 c 0,82,83
 94 99 94 99 36 169 c 0,84,85
 -5 217 -5 217 -16 293 c 0,86,87
 -18 308 -18 308 -18 324 c 0,88,89
 -18 388 -18 388 14.5 462.5 c 128,-1,90
 47 537 47 537 103 601 c 128,-1,91
 159 665 159 665 225 708 c 128,-1,92
 291 751 291 751 364 780 c 0,93,94
 440 809 440 809 505 809 c 128,-1,95
 570 809 570 809 623 789 c 0,96,97
 719 747 719 747 719 628 c 0,98,99
 719 530 719 530 652 378 c 0,100,101
 606 275 606 275 564 157 c 0,102,103
 504 -11 504 -11 504 -62 c 0,104,105
 504 -98 504 -98 529 -98 c 0,106,107
 542 -98 542 -98 560 -86 c 0,108,109
 614 -54 614 -54 678 35 c 128,-1,110
 742 124 742 124 811 242 c 128,-1,111
 880 360 880 360 909 400 c 128,-1,112
 938 440 938 440 959 440 c 0,113,114
 964 440 964 440 969 438 c 0,115,116
 982 431 982 431 982 411 c 128,-1,117
 982 391 982 391 976.5 375 c 128,-1,118
 971 359 971 359 925 247.5 c 128,-1,119
 879 136 879 136 874 100.5 c 128,-1,120
 869 65 869 65 869 47 c 0,0,1
EndSplineSet
EndChar

StartChar: X
Encoding: 56 88 59
Width: 807
GlyphClass: 2
Flags: W
LayerCount: 2
Fore
SplineSet
1081 817 m 0,0,1
 1104 817 1104 817 1104 804 c 0,2,3
 1104 793 1104 793 1075 764 c 128,-1,4
 1046 735 1046 735 974 683.5 c 128,-1,5
 902 632 902 632 772.5 543 c 128,-1,6
 643 454 643 454 560 395 c 1,7,8
 559 337 559 337 559 287 c 0,9,10
 559 114 559 114 575 53 c 0,11,12
 598 -31 598 -31 652 -31 c 0,13,14
 727 -31 727 -31 808 92 c 0,15,16
 837 136 837 136 860 189 c 0,17,18
 867 204 867 204 876 202.5 c 128,-1,19
 885 201 885 201 877 184 c 0,20,21
 787 -5 787 -5 679 -66 c 0,22,23
 638 -89 638 -89 603.5 -89 c 128,-1,24
 569 -89 569 -89 541 -62 c 128,-1,25
 513 -35 513 -35 502 17 c 0,26,27
 496 44 496 44 496 145 c 128,-1,28
 496 246 496 246 498 357 c 1,29,30
 109 76 109 76 -47 -169 c 0,31,32
 -78 -220 -78 -220 -108 -220 c 0,33,34
 -122 -220 -122 -220 -122 -209 c 0,35,36
 -122 -201 -122 -201 -115 -189 c 2,37,-1
 -103 -169 l 1,38,39
 100 112 100 112 497 395 c 1,40,41
 497 421 497 421 497 505 c 128,-1,42
 497 589 497 589 487 658 c 0,43,44
 475 737 475 737 398 737 c 0,45,46
 304 737 304 737 196 653 c 0,47,48
 141 611 141 611 124 574 c 0,49,50
 121 571 121 571 113 574 c 0,51,52
 91 580 91 580 108 606 c 0,53,54
 117 620 117 620 166 660.5 c 128,-1,55
 215 701 215 701 294 744.5 c 128,-1,56
 373 788 373 788 432 788 c 0,57,58
 494 788 494 788 520 738 c 0,59,60
 548 687 548 687 552 630 c 0,61,62
 559 550 559 550 559 505 c 128,-1,63
 559 460 559 460 559 450 c 128,-1,64
 559 440 559 440 559 433 c 1,65,66
 617 474 617 474 731 551 c 128,-1,67
 845 628 845 628 905 672 c 128,-1,68
 965 716 965 716 1008 759 c 0,69,70
 1012 763 1012 763 1019 769.5 c 128,-1,71
 1026 776 1026 776 1029.5 780 c 128,-1,72
 1033 784 1033 784 1038.5 789 c 128,-1,73
 1044 794 1044 794 1047.5 797 c 128,-1,74
 1051 800 1051 800 1055.5 804 c 128,-1,75
 1060 808 1060 808 1063 810 c 128,-1,76
 1066 812 1066 812 1070 814 c 0,77,78
 1078 817 1078 817 1081 817 c 0,0,1
EndSplineSet
EndChar

StartChar: Y
Encoding: 57 89 60
Width: 959
GlyphClass: 2
Flags: W
LayerCount: 2
Fore
SplineSet
983 483 m 0,0,1
 1001 483 1001 483 1001 453 c 128,-1,2
 1001 423 1001 423 981.5 338 c 128,-1,3
 962 253 962 253 913.5 108 c 128,-1,4
 865 -37 865 -37 814 -128 c 1,5,6
 829 -127 829 -127 867.5 -126 c 128,-1,7
 906 -125 906 -125 930.5 -124 c 128,-1,8
 955 -123 955 -123 989.5 -117.5 c 128,-1,9
 1024 -112 1024 -112 1046 -102 c 0,10,11
 1099 -77 1099 -77 1108 -28 c 1,12,13
 1106 -15 1106 -15 1109.5 -13.5 c 128,-1,14
 1113 -12 1113 -12 1115 -17 c 0,15,16
 1122 -30 1122 -30 1122 -45 c 128,-1,17
 1122 -60 1122 -60 1106 -86.5 c 128,-1,18
 1090 -113 1090 -113 1043 -132.5 c 128,-1,19
 996 -152 996 -152 799 -154 c 1,20,21
 751 -226 751 -226 677.5 -281 c 128,-1,22
 604 -336 604 -336 522 -367 c 128,-1,23
 440 -398 440 -398 383.5 -398 c 128,-1,24
 327 -398 327 -398 288 -385 c 0,25,26
 213 -360 213 -360 213 -309 c 0,27,28
 213 -243 213 -243 334 -193 c 0,29,30
 489 -129 489 -129 766 -129 c 1,31,32
 864 111 864 111 903 258 c 1,33,34
 812 62 812 62 700 -14 c 0,35,36
 641 -54 641 -54 586 -54 c 128,-1,37
 531 -54 531 -54 500.5 -24 c 128,-1,38
 470 6 470 6 470 58 c 0,39,40
 470 167 470 167 618 408 c 0,41,42
 664 483 664 483 692 560 c 0,43,44
 724 645 724 645 724 706 c 128,-1,45
 724 767 724 767 684.5 793 c 128,-1,46
 645 819 645 819 589 819 c 0,47,48
 567 819 567 819 542 814 c 0,49,50
 362 780 362 780 217 627 c 0,51,52
 144 550 144 550 110 469 c 0,53,54
 75 382 75 382 75 320 c 0,55,56
 75 294 75 294 82 272 c 0,57,58
 102 199 102 199 161 172 c 0,59,60
 191 159 191 159 223 159 c 0,61,62
 334 159 334 159 412 283 c 0,63,64
 456 354 456 354 456 407 c 0,65,66
 456 476 456 476 394 476 c 0,67,68
 382 476 382 476 365 472.5 c 128,-1,69
 348 469 348 469 347 475 c 0,70,71
 346 483 346 483 370 489 c 128,-1,72
 394 495 394 495 416 495 c 0,73,74
 468 495 468 495 486 451 c 0,75,76
 494 432 494 432 494 410 c 0,77,78
 494 366 494 366 463 308 c 0,79,80
 402 197 402 197 284 148 c 0,81,82
 248 133 248 133 218 133 c 0,83,84
 121 133 121 133 66 203 c 0,85,86
 18 262 18 262 18 338 c 128,-1,87
 18 414 18 414 55 490 c 128,-1,88
 92 566 92 566 151.5 630 c 128,-1,89
 211 694 211 694 279 738 c 128,-1,90
 347 782 347 782 422 811 c 0,91,92
 501 842 501 842 567 842 c 128,-1,93
 633 842 633 842 684 822 c 0,94,95
 737 798 737 798 759 757.5 c 128,-1,96
 781 717 781 717 781 672 c 0,97,98
 781 559 781 559 698 421 c 0,99,100
 569 201 569 201 542 79 c 0,101,102
 538 58 538 58 538 35 c 128,-1,103
 538 12 538 12 553 -8 c 128,-1,104
 568 -28 568 -28 597 -28 c 0,105,106
 638 -28 638 -28 686 7 c 0,107,108
 743 47 743 47 800 138 c 0,109,110
 895 290 895 290 943 449 c 0,111,112
 946 465 946 465 961 474 c 128,-1,113
 976 483 976 483 983 483 c 0,0,1
267 -319 m 0,114,115
 267 -327 267 -327 271 -335 c 0,116,117
 292 -369 292 -369 367.5 -369 c 128,-1,118
 443 -369 443 -369 511.5 -344 c 128,-1,119
 580 -319 580 -319 645 -270.5 c 128,-1,120
 710 -222 710 -222 752 -154 c 1,121,122
 490 -154 490 -154 350 -235 c 0,123,124
 267 -283 267 -283 267 -319 c 0,114,115
EndSplineSet
EndChar

StartChar: Z
Encoding: 58 90 61
Width: 677
GlyphClass: 2
Flags: W
LayerCount: 2
Fore
SplineSet
867 685 m 1,0,1
 962 760 962 760 1018 760 c 0,2,3
 1034 760 1034 760 1047 754 c 0,4,5
 1076 742 1076 742 1076 716 c 128,-1,6
 1076 690 1076 690 1046 661 c 0,7,8
 1028 646 1028 646 987 646 c 128,-1,9
 946 646 946 646 884 661 c 1,10,11
 835 616 835 616 708 448 c 0,12,13
 626 339 626 339 599.5 309 c 128,-1,14
 573 279 573 279 552 257.5 c 128,-1,15
 531 236 531 236 515 219.5 c 128,-1,16
 499 203 499 203 476 182 c 128,-1,17
 453 161 453 161 440.5 149.5 c 128,-1,18
 428 138 428 138 404.5 118.5 c 128,-1,19
 381 99 381 99 373.5 92.5 c 128,-1,20
 366 86 366 86 342.5 67 c 128,-1,21
 319 48 319 48 317 46 c 1,22,23
 591 -73 591 -73 698 -94 c 0,24,25
 737 -101 737 -101 778 -101 c 128,-1,26
 819 -101 819 -101 861.5 -94.5 c 128,-1,27
 904 -88 904 -88 936.5 -63 c 128,-1,28
 969 -38 969 -38 974 -5 c 128,-1,29
 979 28 979 28 990 28 c 0,30,31
 999 28 999 28 999 13 c 128,-1,32
 999 -2 999 -2 997.5 -17 c 128,-1,33
 996 -32 996 -32 986 -52 c 128,-1,34
 976 -72 976 -72 953 -97.5 c 128,-1,35
 930 -123 930 -123 880 -140 c 0,36,37
 828 -158 828 -158 762 -158 c 128,-1,38
 696 -158 696 -158 579 -111 c 128,-1,39
 462 -64 462 -64 377 -16 c 2,40,-1
 292 32 l 1,41,42
 191 -40 191 -40 119 -40 c 0,43,44
 105 -40 105 -40 92 -37 c 0,45,46
 32 -23 32 -23 16 29 c 0,47,48
 11 44 11 44 11 58 c 0,49,50
 11 88 11 88 35.5 114 c 128,-1,51
 60 140 60 140 105 140 c 0,52,53
 127 140 127 140 154 133 c 0,54,55
 206 119 206 119 297 61 c 1,56,57
 557 365 557 365 635 460 c 0,58,59
 736 579 736 579 848 670 c 1,60,61
 699 711 699 711 568 711 c 0,62,63
 498 711 498 711 430 698 c 0,64,65
 384 686 384 686 348 658 c 0,66,67
 305 623 305 623 305 587.5 c 128,-1,68
 305 552 305 552 350 521 c 0,69,70
 373 505 373 505 361 501 c 128,-1,71
 349 497 349 497 338 502 c 0,72,73
 321 506 321 506 301 528 c 0,74,75
 271 563 271 563 271 604 c 0,76,77
 271 651 271 651 306 693 c 0,78,79
 328 720 328 720 376 740 c 0,80,81
 439 766 439 766 523 766 c 0,82,83
 580 766 580 766 635.5 752.5 c 128,-1,84
 691 739 691 739 719.5 731 c 128,-1,85
 748 723 748 723 799.5 706.5 c 128,-1,86
 851 690 851 690 867 685 c 1,0,1
899 676 m 1,87,88
 954 660 954 660 984 660 c 128,-1,89
 1014 660 1014 660 1030.5 670.5 c 128,-1,90
 1047 681 1047 681 1047 710 c 0,91,92
 1047 718 1047 718 1040.5 729.5 c 128,-1,93
 1034 741 1034 741 1017 741 c 0,94,95
 976 741 976 741 899 676 c 1,87,88
62 73 m 0,96,97
 56 62 56 62 56 47 c 128,-1,98
 56 32 56 32 76.5 12 c 128,-1,99
 97 -8 97 -8 144 -8 c 0,100,101
 180 -8 180 -8 218 7.5 c 128,-1,102
 256 23 256 23 278 42 c 1,103,104
 258 58 258 58 248 65 c 0,105,106
 176 105 176 105 127.5 105 c 128,-1,107
 79 105 79 105 62 73 c 0,96,97
EndSplineSet
EndChar

StartChar: bracketleft
Encoding: 59 91 62
Width: 585
GlyphClass: 2
Flags: W
LayerCount: 2
Fore
SplineSet
164 24 m 2,0,-1
 236 28 l 2,1,2
 278 28 278 28 278 5.5 c 128,-1,3
 278 -17 278 -17 158 -17 c 128,-1,4
 38 -17 38 -17 38 28 c 0,5,6
 38 143 38 143 140 336 c 128,-1,7
 242 529 242 529 339 642 c 0,8,9
 363 670 363 670 378 684 c 0,10,11
 415 718 415 718 472 718 c 2,12,-1
 492 718 l 2,13,14
 583 718 583 718 583 682 c 0,15,16
 583 664 583 664 568 664 c 2,17,-1
 558 664 l 1,18,-1
 484 668 l 2,19,20
 446 668 446 668 437 663 c 0,21,22
 389 639 389 639 306.5 516 c 128,-1,23
 224 393 224 393 160.5 258.5 c 128,-1,24
 97 124 97 124 97 68 c 0,25,26
 97 24 97 24 164 24 c 2,0,-1
EndSplineSet
EndChar

StartChar: backslash
Encoding: 60 92 63
Width: 867
GlyphClass: 2
Flags: W
LayerCount: 2
Fore
SplineSet
69 761 m 0,0,1
 61 761 61 761 46 754.5 c 128,-1,2
 31 748 31 748 27 747 c 2,3,-1
 20 754 l 1,4,5
 32 790 32 790 92 790 c 0,6,7
 226 790 226 790 433 513 c 0,8,9
 464 472 464 472 531 379.5 c 128,-1,10
 598 287 598 287 635 236 c 0,11,12
 735 100 735 100 850 -19 c 0,13,14
 858 -29 858 -29 859 -34 c 1,15,-1
 852 -40 l 1,16,17
 763 -13 763 -13 548 266 c 0,18,19
 460 381 460 381 371 494 c 128,-1,20
 282 607 282 607 200.5 684 c 128,-1,21
 119 761 119 761 69 761 c 0,0,1
EndSplineSet
EndChar

StartChar: bracketright
Encoding: 61 93 64
Width: 556
GlyphClass: 2
Flags: W
LayerCount: 2
Fore
SplineSet
453 669 m 2,0,-1
 342 665 l 1,1,-1
 339 667 l 1,2,3
 352 716 352 716 485 716 c 0,4,5
 506 716 506 716 517.5 714 c 128,-1,6
 529 712 529 712 538.5 701 c 128,-1,7
 548 690 548 690 548 670 c 0,8,9
 548 527 548 527 463 330 c 128,-1,10
 378 133 378 133 275 29 c 0,11,12
 254 8 254 8 219 -3 c 128,-1,13
 184 -14 184 -14 158.5 -15.5 c 128,-1,14
 133 -17 133 -17 80.5 -17 c 128,-1,15
 28 -17 28 -17 17 -12 c 1,16,17
 25 27 25 27 99 27 c 1,18,-1
 117 26 l 2,19,20
 147 26 147 26 186 36.5 c 128,-1,21
 225 47 225 47 251 77 c 0,22,23
 328 163 328 163 408.5 346.5 c 128,-1,24
 489 530 489 530 489 635 c 0,25,26
 489 650 489 650 486 665 c 1,27,28
 475 669 475 669 453 669 c 2,0,-1
EndSplineSet
EndChar

StartChar: asciicircum
Encoding: 62 94 65
Width: 370
GlyphClass: 2
Flags: W
LayerCount: 2
Fore
SplineSet
403 391 m 1,0,1
 403 382 403 382 386 382 c 128,-1,2
 369 382 369 382 323 416.5 c 128,-1,3
 277 451 277 451 260 474 c 1,4,5
 141 389 141 389 124 386 c 1,6,-1
 118 393 l 1,7,8
 120 406 120 406 192.5 460 c 128,-1,9
 265 514 265 514 282 516 c 1,10,-1
 288 513 l 1,11,12
 329 456 329 456 398 399 c 1,13,-1
 403 391 l 1,0,1
EndSplineSet
EndChar

StartChar: underscore
Encoding: 63 95 66
Width: 806
GlyphClass: 2
Flags: W
LayerCount: 2
Fore
SplineSet
219 -67 m 2,0,-1
 25 -73 l 2,1,2
 17 -73 17 -73 12.5 -63 c 128,-1,3
 8 -53 8 -53 8 -44 c 0,4,5
 8 -25 8 -25 25 -25 c 2,6,-1
 765 -25 l 2,7,8
 776 -25 776 -25 784 -33.5 c 128,-1,9
 792 -42 792 -42 793 -53 c 1,10,-1
 786 -60 l 1,11,12
 550 -60 550 -60 219 -67 c 2,0,-1
EndSplineSet
EndChar

StartChar: grave
Encoding: 64 96 67
Width: 211
GlyphClass: 2
Flags: W
LayerCount: 2
Fore
SplineSet
193 408 m 0,0,1
 193 399 193 399 183 399 c 0,2,3
 177 399 177 399 114.5 432 c 128,-1,4
 52 465 52 465 46 468 c 0,5,6
 9 486 9 486 9 510 c 128,-1,7
 9 534 9 534 28 534 c 0,8,9
 41 534 41 534 117 474 c 128,-1,10
 193 414 193 414 193 408 c 0,0,1
EndSplineSet
EndChar

StartChar: a
Encoding: 65 97 68
Width: 350
GlyphClass: 2
Flags: W
AnchorPoint: "tones" 275 398 basechar 0
LayerCount: 2
Fore
SplineSet
310 189.5 m 128,-1,1
 277 126 277 126 270.5 94.5 c 128,-1,2
 264 63 264 63 264 43.5 c 128,-1,3
 264 24 264 24 279 24 c 0,4,5
 298 24 298 24 326 59 c 0,6,7
 367 110 367 110 407 192 c 0,8,9
 411 201 411 201 416 202 c 0,10,11
 424 205 424 205 424 196 c 0,12,13
 424 191 424 191 421 184 c 0,14,15
 329 -2 329 -2 266 -2 c 0,16,17
 237 -2 237 -2 219 26 c 0,18,19
 210 41 210 41 210 66 c 128,-1,20
 210 91 210 91 220 127 c 1,21,22
 140 -2 140 -2 82 -2 c 0,23,24
 66 -2 66 -2 53 8 c 0,25,26
 23 29 23 29 23 80 c 0,27,28
 23 178 23 178 108 279 c 0,29,30
 156 335 156 335 226 352 c 0,31,32
 245 357 245 357 262 357 c 0,33,34
 308 357 308 357 340 325 c 0,35,36
 350 314 350 314 346 304 c 128,-1,37
 342 294 342 294 329 296 c 1,38,39
 318 332 318 332 281 332 c 0,40,41
 238 332 238 332 175 264 c 0,42,43
 139 224 139 224 108 170 c 0,44,45
 69 105 69 105 69 66 c 128,-1,46
 69 27 69 27 94 27 c 0,47,48
 154 27 154 27 251 211 c 0,49,50
 270 248 270 248 283 261.5 c 128,-1,51
 296 275 296 275 316 275 c 0,52,53
 320 275 320 275 336.5 272 c 128,-1,54
 353 269 353 269 361 271 c 1,55,0
 343 253 343 253 310 189.5 c 128,-1,1
EndSplineSet
EndChar

StartChar: b
Encoding: 66 98 69
Width: 345
GlyphClass: 2
Flags: W
LayerCount: 2
Fore
SplineSet
308 272 m 0,0,1
 308 329 308 329 261 329 c 0,2,3
 257 329 257 329 253 329 c 0,4,5
 235 327 235 327 232 336 c 128,-1,6
 229 345 229 345 241 348 c 128,-1,7
 253 351 253 351 267 349 c 0,8,9
 319 341 319 341 338 300 c 0,10,11
 351 275 351 275 351 251 c 0,12,13
 351 165 351 165 288 82 c 0,14,15
 225 -2 225 -2 125 -2 c 0,16,17
 88 -2 88 -2 65 19 c 128,-1,18
 42 40 42 40 42 75 c 0,19,20
 42 117 42 117 90 217 c 1,21,22
 8 62 8 62 -16 39 c 0,23,24
 -26 30 -26 30 -26 45 c 0,25,26
 -26 48 -26 48 -24 52 c 0,27,28
 11 98 11 98 115.5 302 c 128,-1,29
 220 506 220 506 262 569 c 0,30,31
 296 618 296 618 328 618 c 2,32,33
 328 618 328 618 329 618 c 2,34,-1
 334 618 l 2,35,36
 335 618 335 618 351.5 615 c 128,-1,37
 368 612 368 612 376 614 c 1,38,39
 343 579 343 579 272 474 c 0,40,41
 96 213 96 213 96 84 c 0,42,43
 96 31 96 31 130 24 c 0,44,45
 133 23 133 23 137 23 c 0,46,47
 168 23 168 23 214.5 78.5 c 128,-1,48
 261 134 261 134 291 205 c 0,49,50
 308 242 308 242 308 272 c 0,0,1
EndSplineSet
EndChar

StartChar: c
Encoding: 67 99 70
Width: 260
GlyphClass: 2
Flags: W
LayerCount: 2
Fore
SplineSet
241 230 m 1,0,1
 276 272 276 272 276 301 c 128,-1,2
 276 330 276 330 252 330 c 0,3,4
 205 330 205 330 145 244 c 0,5,6
 126 217 126 217 108 173 c 128,-1,7
 90 129 90 129 90 93.5 c 128,-1,8
 90 58 90 58 104.5 36 c 128,-1,9
 119 14 119 14 149.5 14 c 128,-1,10
 180 14 180 14 206 28.5 c 128,-1,11
 232 43 232 43 255.5 74.5 c 128,-1,12
 279 106 279 106 291 127 c 128,-1,13
 303 148 303 148 324 190 c 0,14,15
 331 204 331 204 336 201.5 c 128,-1,16
 341 199 341 199 341 194.5 c 128,-1,17
 341 190 341 190 327.5 161.5 c 128,-1,18
 314 133 314 133 300.5 108 c 128,-1,19
 287 83 287 83 262 52 c 0,20,21
 217 -4 217 -4 139 -4 c 0,22,23
 83 -4 83 -4 58.5 23.5 c 128,-1,24
 34 51 34 51 34 87 c 0,25,26
 34 131 34 131 55.5 183 c 128,-1,27
 77 235 77 235 105 273 c 0,28,29
 163 352 163 352 239 352 c 0,30,31
 276 352 276 352 292.5 334.5 c 128,-1,32
 309 317 309 317 309 294 c 0,33,34
 309 260 309 260 281 236 c 0,35,36
 267 223 267 223 257.5 223 c 128,-1,37
 248 223 248 223 241 230 c 1,0,1
EndSplineSet
EndChar

StartChar: d
Encoding: 68 100 71
Width: 367
GlyphClass: 2
Flags: W
LayerCount: 2
Fore
SplineSet
268 58 m 0,0,1
 268 26 268 26 294 26 c 0,2,3
 341 26 341 26 419 183 c 0,4,5
 422 189 422 189 424.5 195 c 128,-1,6
 427 201 427 201 432.5 203 c 128,-1,7
 438 205 438 205 440 200.5 c 128,-1,8
 442 196 442 196 438 186 c 0,9,10
 358 0 358 0 276 0 c 0,11,12
 249 0 249 0 233 24 c 128,-1,13
 217 48 217 48 217 71.5 c 128,-1,14
 217 95 217 95 222 115 c 1,15,16
 164 19 164 19 122 6 c 0,17,18
 110 1 110 1 98.5 1 c 128,-1,19
 87 1 87 1 76 4 c 0,20,21
 27 17 27 17 27 82 c 0,22,23
 27 126 27 126 49.5 179.5 c 128,-1,24
 72 233 72 233 113 282 c 128,-1,25
 154 331 154 331 212 348 c 0,26,27
 233 355 233 355 261.5 355 c 128,-1,28
 290 355 290 355 325 337 c 1,29,30
 393 465 393 465 441 574 c 0,31,32
 455 607 455 607 468.5 616.5 c 128,-1,33
 482 626 482 626 493.5 626 c 128,-1,34
 505 626 505 626 507.5 626 c 128,-1,35
 510 626 510 626 526.5 623.5 c 128,-1,36
 543 621 543 621 552 622 c 1,37,38
 529 601 529 601 430 418 c 0,39,40
 304 184 304 184 278 106 c 0,41,42
 268 77 268 77 268 58 c 0,0,1
317 321 m 1,43,44
 304 334 304 334 280.5 334 c 128,-1,45
 257 334 257 334 215 299 c 0,46,47
 148 243 148 243 104 161 c 0,48,49
 75 107 75 107 75 72 c 0,50,51
 75 56 75 56 81.5 43 c 128,-1,52
 88 30 88 30 102 30 c 0,53,54
 136 30 136 30 186 100 c 128,-1,55
 236 170 236 170 317 321 c 1,43,44
EndSplineSet
EndChar

StartChar: e
Encoding: 69 101 72
Width: 246
GlyphClass: 2
Flags: W
AnchorPoint: "tones" 207 382 basechar 0
LayerCount: 2
Fore
SplineSet
101 154 m 1,0,1
 87 120 87 120 87 78 c 0,2,3
 87 50 87 50 99.5 33.5 c 128,-1,4
 112 17 112 17 135 17 c 0,5,6
 226 17 226 17 300 188 c 0,7,8
 307 204 307 204 317 202 c 0,9,10
 321 201 321 201 321 197 c 128,-1,11
 321 193 321 193 298.5 144.5 c 128,-1,12
 276 96 276 96 253 66 c 0,13,14
 202 -4 202 -4 127 -4 c 0,15,16
 87 -4 87 -4 59 22 c 128,-1,17
 31 48 31 48 31 93 c 128,-1,18
 31 138 31 138 52.5 188.5 c 128,-1,19
 74 239 74 239 111 282.5 c 128,-1,20
 148 326 148 326 196 346 c 0,21,22
 219 356 219 356 240 356 c 128,-1,23
 261 356 261 356 279 344 c 0,24,25
 296 330 296 330 296 313 c 0,26,27
 296 253 296 253 224 198 c 0,28,29
 202 181 202 181 162 167.5 c 128,-1,30
 122 154 122 154 101 154 c 1,0,1
269 314 m 0,31,32
 269 334 269 334 253 334 c 0,33,34
 225 334 225 334 168 265 c 0,35,36
 134 223 134 223 108 171 c 1,37,38
 125 171 125 171 157.5 183 c 128,-1,39
 190 195 190 195 214 215 c 0,40,41
 269 262 269 262 269 314 c 0,31,32
EndSplineSet
EndChar

StartChar: f
Encoding: 70 102 73
Width: 198
GlyphClass: 2
Flags: W
LayerCount: 2
Fore
SplineSet
-62 -348 m 0,0,1
 -117 -348 -117 -348 -117 -293 c 0,2,3
 -117 -214 -117 -214 -14 29 c 1,4,5
 -26 49 -26 49 -26 62 c 0,6,7
 -26 104 -26 104 -7 118 c 0,8,9
 7 130 7 130 16.5 130 c 128,-1,10
 26 130 26 130 29 129 c 0,11,12
 143 386 143 386 234 556 c 0,13,14
 252 592 252 592 271 609 c 128,-1,15
 290 626 290 626 319 626 c 0,16,17
 323 626 323 626 339 623 c 128,-1,18
 355 620 355 620 363 621 c 1,19,20
 316 577 316 577 231 427 c 128,-1,21
 146 277 146 277 70 106 c 1,22,23
 93 78 93 78 102 31 c 2,24,-1
 105 18 l 2,25,26
 107 18 107 18 108 18 c 0,27,28
 135 18 135 18 165 49.5 c 128,-1,29
 195 81 195 81 214 114.5 c 128,-1,30
 233 148 233 148 245 173.5 c 128,-1,31
 257 199 257 199 260 201 c 128,-1,32
 263 203 263 203 265.5 202.5 c 128,-1,33
 268 202 268 202 270 200.5 c 128,-1,34
 272 199 272 199 272 195.5 c 128,-1,35
 272 192 272 192 270 188 c 0,36,37
 187 -1 187 -1 107 -1 c 1,38,39
 108 -17 108 -17 108 -53.5 c 128,-1,40
 108 -90 108 -90 90 -162 c 128,-1,41
 72 -234 72 -234 29.5 -291 c 128,-1,42
 -13 -348 -13 -348 -62 -348 c 0,0,1
-63 -293 m 0,43,44
 -63 -322 -63 -322 -47 -322 c 0,45,46
 -28 -322 -28 -322 5.5 -277.5 c 128,-1,47
 39 -233 39 -233 62.5 -155.5 c 128,-1,48
 86 -78 86 -78 86 -15 c 0,49,50
 86 -10 86 -10 86 -5 c 1,51,52
 81 -5 81 -5 77 -5 c 0,53,54
 48 -5 48 -5 28 11 c 1,55,56
 -63 -219 -63 -219 -63 -293 c 0,43,44
78 14 m 2,57,-1
 84 14 l 1,58,59
 81 57 81 57 60 83 c 1,60,-1
 38 33 l 1,61,62
 48 14 48 14 78 14 c 2,57,-1
EndSplineSet
EndChar

StartChar: g
Encoding: 71 103 74
Width: 392
GlyphClass: 2
Flags: W
LayerCount: 2
Fore
SplineSet
-12 -316 m 0,0,1
 -106 -316 -106 -316 -106 -239 c 0,2,3
 -106 -175 -106 -175 -19 -124 c 0,4,5
 55 -81 55 -81 170 -43 c 0,6,7
 223 -26 223 -26 247 -16 c 1,8,9
 273 60 273 60 273 150 c 0,10,11
 273 168 273 168 271 177 c 1,12,13
 243 120 243 120 194 60 c 0,14,15
 136 -12 136 -12 79 4 c 1,16,17
 27 26 27 26 27 90 c 0,18,19
 27 176 27 176 113 279 c 0,20,21
 160 335 160 335 223 350 c 0,22,23
 240 355 240 355 257 355 c 0,24,25
 302 355 302 355 345 325 c 0,26,27
 361 312 361 312 361 303 c 128,-1,28
 361 294 361 294 355 285.5 c 128,-1,29
 349 277 349 277 342.5 283.5 c 128,-1,30
 336 290 336 290 334 296 c 0,31,32
 321 333 321 333 292 333 c 0,33,34
 239 333 239 333 173 259 c 0,35,36
 136 217 136 217 109 169 c 0,37,38
 76 109 76 109 76 76.5 c 128,-1,39
 76 44 76 44 96 33 c 0,40,41
 103 30 103 30 110 30 c 0,42,43
 133 30 133 30 167.5 61.5 c 128,-1,44
 202 93 202 93 231.5 141.5 c 128,-1,45
 261 190 261 190 269 217 c 128,-1,46
 277 244 277 244 288.5 251 c 128,-1,47
 300 258 300 258 314 259 c 128,-1,48
 328 260 328 260 333 264 c 1,49,50
 341 219 341 219 341 158.5 c 128,-1,51
 341 98 341 98 320 21 c 1,52,53
 366 54 366 54 385.5 80 c 128,-1,54
 405 106 405 106 416.5 127 c 128,-1,55
 428 148 428 148 437 168.5 c 128,-1,56
 446 189 446 189 449 195 c 128,-1,57
 452 201 452 201 459 202.5 c 128,-1,58
 466 204 466 204 466 196 c 0,59,60
 466 191 466 191 463 184 c 0,61,62
 419 93 419 93 389.5 52.5 c 128,-1,63
 360 12 360 12 309 -12 c 1,64,65
 285 -80 285 -80 239.5 -147 c 128,-1,66
 194 -214 194 -214 125 -265 c 128,-1,67
 56 -316 56 -316 -12 -316 c 0,0,1
-85 -258 m 0,68,69
 -85 -296 -85 -296 -36 -296 c 0,70,71
 -7 -296 -7 -296 29.5 -279 c 128,-1,72
 66 -262 66 -262 90 -244 c 0,73,74
 131 -211 131 -211 180 -146 c 0,75,76
 217 -94 217 -94 237 -45 c 1,77,-1
 202 -57 l 2,78,79
 46 -111 46 -111 -18 -153 c 0,80,81
 -65 -184 -65 -184 -80 -232 c 0,82,83
 -85 -247 -85 -247 -85 -258 c 0,68,69
EndSplineSet
EndChar

StartChar: h
Encoding: 72 104 75
Width: 332
GlyphClass: 2
Flags: W
LayerCount: 2
Fore
SplineSet
235 45 m 0,0,1
 235 17 235 17 255 17 c 0,2,3
 302 17 302 17 388 193 c 0,4,5
 395 207 395 207 400.5 204 c 128,-1,6
 406 201 406 201 406 196 c 128,-1,7
 406 191 406 191 394.5 167.5 c 128,-1,8
 383 144 383 144 371.5 122.5 c 128,-1,9
 360 101 360 101 338 66 c 0,10,11
 292 -4 292 -4 240 -4 c 0,12,13
 206 -4 206 -4 186 24 c 0,14,15
 177 37 177 37 177 59.5 c 128,-1,16
 177 82 177 82 187 114 c 128,-1,17
 197 146 197 146 242 218 c 0,18,19
 253 236 253 236 253 246.5 c 128,-1,20
 253 257 253 257 236 257 c 128,-1,21
 219 257 219 257 171 212 c 0,22,23
 99 146 99 146 31 14 c 0,24,25
 24 -1 24 -1 -6 -1 c 0,26,27
 -33 -3 -33 -3 -40 -7 c 1,28,29
 150 388 150 388 235 544 c 0,30,31
 254 579 254 579 268.5 593 c 128,-1,32
 283 607 283 607 303 607 c 0,33,34
 308 607 308 607 324 604.5 c 128,-1,35
 340 602 340 602 348 603 c 1,36,37
 318 572 318 572 240.5 431.5 c 128,-1,38
 163 291 163 291 92 146 c 1,39,40
 139 205 139 205 176.5 238 c 128,-1,41
 214 271 214 271 268 300.5 c 128,-1,42
 322 330 322 330 347 330 c 0,43,44
 353 330 353 330 358 328 c 1,45,46
 235 112 235 112 235 45 c 0,0,1
EndSplineSet
EndChar

StartChar: i
Encoding: 73 105 76
Width: 174
GlyphClass: 2
Flags: W
AnchorPoint: "tones" 180 488 basechar 0
LayerCount: 2
Fore
SplineSet
163 377 m 128,-1,1
 146 377 146 377 136 389 c 128,-1,2
 126 401 126 401 128 418 c 0,3,4
 131 435 131 435 145 447 c 128,-1,5
 159 459 159 459 176 459 c 128,-1,6
 193 459 193 459 203.5 447 c 128,-1,7
 214 435 214 435 211 418 c 128,-1,8
 208 401 208 401 194 389 c 128,-1,0
 180 377 180 377 163 377 c 128,-1,1
96 22 m 0,9,10
 115 22 115 22 136 41 c 0,11,12
 173 78 173 78 230 192 c 0,13,14
 237 207 237 207 244 201 c 0,15,16
 246 199 246 199 246 194.5 c 128,-1,17
 246 190 246 190 238 172.5 c 128,-1,18
 230 155 230 155 223.5 141 c 128,-1,19
 217 127 217 127 198.5 95.5 c 128,-1,20
 180 64 180 64 165 47 c 0,21,22
 124 0 124 0 87.5 0 c 128,-1,23
 51 0 51 0 35 22 c 128,-1,24
 19 44 19 44 19 71 c 128,-1,25
 19 98 19 98 32 130 c 2,26,-1
 96 293 l 2,27,28
 98 299 98 299 98 309 c 128,-1,29
 98 319 98 319 86 335 c 1,30,-1
 141 336 l 2,31,32
 164 336 164 336 168 327.5 c 128,-1,33
 172 319 172 319 162 301 c 2,34,-1
 82 114 l 2,35,36
 65 77 65 77 65 51 c 0,37,38
 65 22 65 22 96 22 c 0,9,10
EndSplineSet
EndChar

StartChar: j
Encoding: 74 106 77
Width: 177
GlyphClass: 2
Flags: W
LayerCount: 2
Fore
SplineSet
103 293 m 2,0,1
 106 299 106 299 106 309 c 128,-1,2
 106 319 106 319 93 335 c 1,3,-1
 148 336 l 2,4,5
 171 336 171 336 175 327.5 c 128,-1,6
 179 319 179 319 169 301 c 2,7,-1
 89 114 l 2,8,9
 64 55 64 55 27 -18 c 1,10,11
 66 -3 66 -3 84 5 c 128,-1,12
 102 13 102 13 127.5 34 c 128,-1,13
 153 55 153 55 171.5 82.5 c 128,-1,14
 190 110 190 110 234 193 c 0,15,16
 241 207 241 207 246.5 204 c 128,-1,17
 252 201 252 201 252 196 c 128,-1,18
 252 191 252 191 235.5 157.5 c 128,-1,19
 219 124 219 124 202 95 c 128,-1,20
 185 66 185 66 158 36 c 128,-1,21
 131 6 131 6 98 -12 c 128,-1,22
 65 -30 65 -30 10 -50 c 1,23,24
 -67 -190 -67 -190 -146 -256 c 0,25,26
 -176 -281 -176 -281 -217 -298.5 c 128,-1,27
 -258 -316 -258 -316 -302.5 -316 c 128,-1,28
 -347 -316 -347 -316 -371 -297.5 c 128,-1,29
 -395 -279 -395 -279 -395 -253 c 128,-1,30
 -395 -227 -395 -227 -380 -194 c 0,31,32
 -354 -143 -354 -143 -286 -112 c 0,33,34
 -235 -88 -235 -88 -151 -67.5 c 128,-1,35
 -67 -47 -67 -47 -43 -40 c 1,36,37
 -18 3 -18 3 -13.5 12.5 c 128,-1,38
 -9 22 -9 22 59 162 c 1,39,40
 43 162 43 162 50 178 c 2,41,-1
 103 293 l 2,0,1
-361 -217 m 0,42,43
 -372 -239 -372 -239 -372 -257 c 128,-1,44
 -372 -275 -372 -275 -358 -285.5 c 128,-1,45
 -344 -296 -344 -296 -324 -296 c 0,46,47
 -266 -296 -266 -296 -199 -236 c 0,48,49
 -105 -152 -105 -152 -62 -72 c 1,50,51
 -228 -116 -228 -116 -269 -134 c 0,52,53
 -334 -162 -334 -162 -361 -217 c 0,42,43
163 377 m 128,-1,55
 146 377 146 377 137 388 c 128,-1,56
 128 399 128 399 128 407 c 128,-1,57
 128 415 128 415 129.5 425 c 128,-1,58
 131 435 131 435 145 447 c 128,-1,59
 159 459 159 459 176 459 c 128,-1,60
 193 459 193 459 202.5 448.5 c 128,-1,61
 212 438 212 438 212 430 c 128,-1,62
 212 422 212 422 210 411.5 c 128,-1,63
 208 401 208 401 194 389 c 128,-1,54
 180 377 180 377 163 377 c 128,-1,55
EndSplineSet
EndChar

StartChar: k
Encoding: 75 107 78
Width: 363
GlyphClass: 2
Flags: W
LayerCount: 2
Fore
SplineSet
314 270 m 0,0,1
 314 297 314 297 287 297 c 0,2,3
 247 297 247 297 194.5 251.5 c 128,-1,4
 142 206 142 206 107 156 c 1,5,6
 92 127 92 127 82.5 83 c 128,-1,7
 73 39 73 39 73 22 c 128,-1,8
 73 5 73 5 79 0 c 1,9,-1
 16 0 l 2,10,11
 1 0 1 0 8.5 26.5 c 128,-1,12
 16 53 16 53 29 84 c 128,-1,13
 42 115 42 115 61.5 155.5 c 128,-1,14
 81 196 81 196 90 217 c 1,15,16
 8 62 8 62 -16 39 c 0,17,18
 -26 30 -26 30 -26 45 c 0,19,20
 -26 48 -26 48 -24 52 c 0,21,22
 11 98 11 98 115.5 302 c 128,-1,23
 220 506 220 506 262 569 c 0,24,25
 296 618 296 618 328 618 c 2,26,27
 328 618 328 618 329 618 c 2,28,-1
 334 618 l 2,29,30
 335 618 335 618 351.5 615 c 128,-1,31
 368 612 368 612 376 614 c 1,32,33
 339 586 339 586 274 485.5 c 128,-1,34
 209 385 209 385 171 309.5 c 128,-1,35
 133 234 133 234 120 195 c 1,36,37
 211 308 211 308 283 335 c 0,38,39
 317 346 317 346 337 346 c 0,40,41
 381 346 381 346 381 309 c 0,42,43
 381 297 381 297 376 282 c 0,44,45
 362 244 362 244 318.5 213.5 c 128,-1,46
 275 183 275 183 223 178 c 1,47,48
 211 150 211 150 211 126.5 c 128,-1,49
 211 103 211 103 216 84 c 0,50,51
 228 36 228 36 261 25 c 0,52,53
 268 23 268 23 275 23 c 0,54,55
 303 23 303 23 341 58 c 1,56,57
 372 92 372 92 422 195 c 0,58,59
 429 208 429 208 433 203.5 c 128,-1,60
 437 199 437 199 437 195 c 128,-1,61
 437 191 437 191 422 156 c 128,-1,62
 407 121 407 121 380 79 c 0,63,64
 323 -7 323 -7 254 -7 c 0,65,66
 212 -7 212 -7 189 17 c 0,67,68
 156 51 156 51 156 106 c 0,69,70
 156 134 156 134 171 163 c 128,-1,71
 186 192 186 192 206 194 c 0,72,73
 209 194 209 194 212 194 c 0,74,75
 247 194 247 194 280.5 221 c 128,-1,76
 314 248 314 248 314 270 c 0,0,1
EndSplineSet
EndChar

StartChar: l
Encoding: 76 108 79
Width: 212
GlyphClass: 2
Flags: W
LayerCount: 2
Fore
SplineSet
103 165.5 m 128,-1,1
 95 142 95 142 89.5 120.5 c 128,-1,2
 84 99 84 99 84 77.5 c 128,-1,3
 84 56 84 56 94 37.5 c 128,-1,4
 104 19 104 19 126 19 c 0,5,6
 162 19 162 19 196 67.5 c 128,-1,7
 230 116 230 116 268 191 c 0,8,9
 276 205 276 205 283 202 c 0,10,11
 288 198 288 198 285 191.5 c 128,-1,12
 282 185 282 185 272.5 163.5 c 128,-1,13
 263 142 263 142 258.5 133.5 c 128,-1,14
 254 125 254 125 242.5 103.5 c 128,-1,15
 231 82 231 82 222.5 71.5 c 128,-1,16
 214 61 214 61 199.5 44.5 c 128,-1,17
 185 28 185 28 172 20 c 0,18,19
 137 -2 137 -2 106 -2 c 128,-1,20
 75 -2 75 -2 58 11.5 c 128,-1,21
 41 25 41 25 37.5 40.5 c 128,-1,22
 34 56 34 56 34 68 c 128,-1,23
 34 80 34 80 35 99 c 0,24,25
 38 131 38 131 47.5 161 c 128,-1,26
 57 191 57 191 58 195 c 0,27,28
 81 278 81 278 123.5 376 c 128,-1,29
 166 474 166 474 195.5 523.5 c 128,-1,30
 225 573 225 573 242 591 c 0,31,32
 276 627 276 627 309 627 c 0,33,34
 332 627 332 627 340 594 c 0,35,36
 341 588 341 588 341 579 c 0,37,38
 341 545 341 545 317 493 c 0,39,40
 231 302 231 302 112 193 c 0,41,0
 111 189 111 189 103 165.5 c 128,-1,1
221 356 m 128,-1,43
 271 435 271 435 294.5 490.5 c 128,-1,44
 318 546 318 546 318 566 c 128,-1,45
 318 586 318 586 311 586 c 0,46,47
 301 586 301 586 273 546.5 c 128,-1,48
 245 507 245 507 197.5 404.5 c 128,-1,49
 150 302 150 302 120 225 c 1,50,42
 171 277 171 277 221 356 c 128,-1,43
EndSplineSet
EndChar

StartChar: m
Encoding: 77 109 80
Width: 507
GlyphClass: 2
Flags: W
AnchorPoint: "tones" 361 370 basechar 0
LayerCount: 2
Fore
SplineSet
530 328 m 1,0,1
 408 111 408 111 408 48 c 0,2,3
 408 20 408 20 427 20 c 0,4,5
 451 20 451 20 482 56 c 0,6,7
 529 113 529 113 564 193 c 0,8,9
 570 207 570 207 576 204 c 128,-1,10
 582 201 582 201 582 196 c 128,-1,11
 582 191 582 191 572 171 c 128,-1,12
 562 151 562 151 556 139 c 128,-1,13
 550 127 550 127 529.5 93 c 128,-1,14
 509 59 509 59 494.5 43 c 128,-1,15
 480 27 480 27 457.5 11.5 c 128,-1,16
 435 -4 435 -4 406.5 -4 c 128,-1,17
 378 -4 378 -4 358 24 c 0,18,19
 349 37 349 37 349 59.5 c 128,-1,20
 349 82 349 82 359 114 c 128,-1,21
 369 146 369 146 414 218 c 0,22,23
 425 236 425 236 425 246.5 c 128,-1,24
 425 257 425 257 408.5 257 c 128,-1,25
 392 257 392 257 349 217 c 128,-1,26
 306 177 306 177 258.5 109 c 128,-1,27
 211 41 211 41 202 0 c 1,28,29
 185 0 185 0 177 14 c 128,-1,30
 169 28 169 28 169 38 c 0,31,32
 169 79 169 79 224 194 c 0,33,34
 242 232 242 232 243 245.5 c 128,-1,35
 244 259 244 259 239.5 259.5 c 128,-1,36
 235 260 235 260 227 256 c 0,37,38
 209 247 209 247 172 212 c 0,39,40
 102 148 102 148 34 17 c 0,41,42
 29 6 29 6 21.5 3.5 c 128,-1,43
 14 1 14 1 -8 0 c 128,-1,44
 -30 -1 -30 -1 -37 -5 c 1,45,46
 -19 30 -19 30 26 126 c 0,47,48
 107 298 107 298 134 324 c 0,49,50
 146 336 146 336 167 336 c 0,51,52
 171 336 171 336 187.5 333 c 128,-1,53
 204 330 204 330 212 332 c 1,54,55
 175 312 175 312 91 144 c 1,56,57
 138 202 138 202 158.5 220 c 128,-1,58
 179 238 179 238 189 247 c 128,-1,59
 199 256 199 256 204.5 261 c 128,-1,60
 210 266 210 266 220.5 275.5 c 128,-1,61
 231 285 231 285 236.5 289.5 c 128,-1,62
 242 294 242 294 252 302 c 128,-1,63
 262 310 262 310 267.5 312.5 c 128,-1,64
 273 315 273 315 282.5 321 c 128,-1,65
 292 327 292 327 296.5 327 c 128,-1,66
 301 327 301 327 309 329.5 c 128,-1,67
 317 332 317 332 320 328 c 0,68,69
 340 320 340 320 340 303 c 0,70,71
 340 288 340 288 306 226 c 128,-1,72
 272 164 272 164 262 144 c 1,73,74
 306 199 306 199 346 234.5 c 128,-1,75
 386 270 386 270 440.5 300 c 128,-1,76
 495 330 495 330 520 330 c 0,77,78
 526 330 526 330 530 328 c 1,0,1
EndSplineSet
EndChar

StartChar: n
Encoding: 78 110 81
Width: 335
GlyphClass: 2
Flags: W
AnchorPoint: "tones" 255 362 basechar 0
LayerCount: 2
Fore
SplineSet
359 328 m 1,0,1
 236 112 236 112 236 46 c 0,2,3
 236 20 236 20 255 20 c 0,4,5
 306 20 306 20 392 193 c 0,6,7
 398 207 398 207 404 204 c 128,-1,8
 410 201 410 201 410 196 c 128,-1,9
 410 191 410 191 406 184 c 0,10,11
 353 77 353 77 316.5 36.5 c 128,-1,12
 280 -4 280 -4 243.5 -4 c 128,-1,13
 207 -4 207 -4 188 24 c 0,14,15
 178 37 178 37 178 59.5 c 128,-1,16
 178 82 178 82 188 114 c 128,-1,17
 198 146 198 146 243 218 c 0,18,19
 254 236 254 236 254 246.5 c 128,-1,20
 254 257 254 257 237 257 c 128,-1,21
 220 257 220 257 172 212 c 0,22,23
 100 146 100 146 33 14 c 0,24,25
 27 4 27 4 19.5 1.5 c 128,-1,26
 12 -1 12 -1 -10 -2 c 128,-1,27
 -32 -3 -32 -3 -39 -7 c 1,28,29
 -23 25 -23 25 24 124 c 0,30,31
 108 299 108 299 134 324 c 0,32,33
 146 336 146 336 167 336 c 0,34,35
 171 336 171 336 187.5 333 c 128,-1,36
 204 330 204 330 212 332 c 1,37,38
 175 312 175 312 91 144 c 1,39,40
 138 202 138 202 176.5 236.5 c 128,-1,41
 215 271 215 271 269 300.5 c 128,-1,42
 323 330 323 330 348 330 c 0,43,44
 354 330 354 330 359 328 c 1,0,1
EndSplineSet
EndChar

StartChar: o
Encoding: 79 111 82
Width: 335
GlyphClass: 2
Flags: W
AnchorPoint: "tones" 241 392 basechar 0
AnchorPoint: "o_dot" 400 347 basechar 0
LayerCount: 2
Fore
SplineSet
239 350 m 0,0,1
 312 350 312 350 312 258 c 0,2,3
 312 216 312 216 290 168 c 0,4,5
 262 103 262 103 206 50 c 1,6,7
 219 25 219 25 253 25 c 0,8,9
 280 25 280 25 304 52 c 0,10,11
 334 83 334 83 347 106.5 c 128,-1,12
 360 130 360 130 366 141 c 128,-1,13
 372 152 372 152 381.5 172.5 c 128,-1,14
 391 193 391 193 393 197.5 c 128,-1,15
 395 202 395 202 400 202 c 0,16,17
 410 203 410 203 410 195 c 0,18,19
 410 192 410 192 408 188 c 2,20,-1
 402 174 l 2,21,22
 396 160 396 160 393 154 c 128,-1,23
 390 148 390 148 382.5 132.5 c 128,-1,24
 375 117 375 117 369.5 108 c 128,-1,25
 364 99 364 99 354.5 84 c 128,-1,26
 345 69 345 69 337.5 60 c 128,-1,27
 330 51 330 51 319 40 c 128,-1,28
 308 29 308 29 298 23 c 0,29,30
 273 8 273 8 251 8 c 0,31,32
 210 8 210 8 187 34 c 1,33,34
 141 0 141 0 102 0 c 0,35,36
 29 0 29 0 29 92 c 0,37,38
 29 134 29 134 51 182 c 0,39,40
 81 252 81 252 135.5 301 c 128,-1,41
 190 350 190 350 239 350 c 0,0,1
250 319 m 0,42,43
 223 319 223 319 186 283 c 128,-1,44
 149 247 149 247 120 185 c 0,45,46
 85 113 85 113 85 67 c 128,-1,47
 85 21 85 21 120 21 c 0,48,49
 145 21 145 21 176 48 c 1,50,51
 160 71 160 71 160 97 c 0,52,53
 162 140 162 140 195 140 c 0,54,55
 208 140 208 140 216.5 131 c 128,-1,56
 225 122 225 122 225 114.5 c 128,-1,57
 225 107 225 107 223 99 c 1,58,59
 240 124 240 124 262 170 c 0,60,61
 287 221 287 221 287 270 c 128,-1,62
 287 319 287 319 250 319 c 0,42,43
EndSplineSet
EndChar

StartChar: p
Encoding: 80 112 83
Width: 336
GlyphClass: 2
Flags: W
LayerCount: 2
Fore
SplineSet
357 272 m 0,0,1
 357 228 357 228 334 175 c 128,-1,2
 311 122 311 122 270.5 73 c 128,-1,3
 230 24 230 24 172 6 c 0,4,5
 150 0 150 0 121.5 0 c 128,-1,6
 93 0 93 0 59 18 c 1,7,-1
 -36 -219 l 2,8,9
 -51 -251 -51 -251 -64 -261 c 128,-1,10
 -77 -271 -77 -271 -89 -271 c 128,-1,11
 -101 -271 -101 -271 -103.5 -271 c 128,-1,12
 -106 -271 -106 -271 -121.5 -268 c 128,-1,13
 -137 -265 -137 -265 -145 -266 c 1,14,15
 -123 -245 -123 -245 -33.5 -66.5 c 128,-1,16
 56 112 56 112 68 174 c 1,17,18
 57 158 57 158 47 157 c 0,19,20
 41 157 41 157 47 168.5 c 128,-1,21
 53 180 53 180 67 213 c 0,22,23
 85 256 85 256 85 292.5 c 128,-1,24
 85 329 85 329 71 335 c 1,25,26
 131 345 131 345 141 344.5 c 128,-1,27
 151 344 151 344 153.5 336 c 128,-1,28
 156 328 156 328 156 318 c 0,29,30
 156 257 156 257 128 182 c 1,31,-1
 148 214 l 2,32,33
 184 272 184 272 200.5 289 c 128,-1,34
 217 306 217 306 236 324 c 0,35,36
 265 352 265 352 292 352 c 0,37,38
 300 352 300 352 307 350 c 0,39,40
 357 337 357 337 357 272 c 0,0,1
309 282 m 0,41,42
 309 298 309 298 302.5 311.5 c 128,-1,43
 296 325 296 325 282 325 c 0,44,45
 247 325 247 325 200.5 260 c 128,-1,46
 154 195 154 195 67 33 c 1,47,48
 80 20 80 20 103 20 c 128,-1,49
 126 20 126 20 168 55 c 0,50,51
 235 111 235 111 280 194 c 0,52,53
 309 248 309 248 309 282 c 0,41,42
EndSplineSet
EndChar

StartChar: q
Encoding: 81 113 84
Width: 342
GlyphClass: 2
Flags: W
LayerCount: 2
Fore
SplineSet
102 -257 m 0,0,1
 89 -238 89 -238 89 -221 c 128,-1,2
 89 -204 89 -204 122 -129 c 128,-1,3
 155 -54 155 -54 200.5 37.5 c 128,-1,4
 246 129 246 129 259 158 c 1,5,6
 244 131 244 131 189 56 c 1,7,8
 142 1 142 1 98 1 c 0,9,10
 88 1 88 1 78 4 c 0,11,12
 27 26 27 26 27 90 c 0,13,14
 27 176 27 176 113 279 c 0,15,16
 160 335 160 335 223 350 c 0,17,18
 240 355 240 355 257 355 c 0,19,20
 302 355 302 355 344 325 c 0,21,22
 361 312 361 312 361 303 c 128,-1,23
 361 294 361 294 357 289 c 0,24,25
 349 277 349 277 339 287 c 0,26,27
 336 290 336 290 334 296 c 0,28,29
 320 334 320 334 293 334 c 128,-1,30
 266 334 266 334 232 310 c 0,31,32
 166 264 166 264 121 186.5 c 128,-1,33
 76 109 76 109 76 71 c 0,34,35
 76 42 76 42 96 33 c 0,36,37
 101 31 101 31 107 31 c 0,38,39
 156 31 156 31 255 195 c 0,40,41
 283 240 283 240 293.5 248.5 c 128,-1,42
 304 257 304 257 313 257 c 128,-1,43
 322 257 322 257 325 257 c 128,-1,44
 328 257 328 257 343 254.5 c 128,-1,45
 358 252 358 252 366 253 c 1,46,47
 312 170 312 170 225 -33 c 128,-1,48
 138 -236 138 -236 131 -287 c 1,49,50
 127 -280 127 -280 115.5 -269.5 c 128,-1,51
 104 -259 104 -259 102 -257 c 0,0,1
EndSplineSet
EndChar

StartChar: r
Encoding: 82 114 85
Width: 260
GlyphClass: 2
Flags: W
LayerCount: 2
Fore
SplineSet
191 401 m 0,0,1
 191 356 191 356 134 316 c 1,2,3
 154 315 154 315 187.5 315 c 128,-1,4
 221 315 221 315 272 320 c 0,5,6
 274 317 274 317 274 304 c 128,-1,7
 274 291 274 291 262 265.5 c 128,-1,8
 250 240 250 240 240.5 221.5 c 128,-1,9
 231 203 231 203 222.5 186.5 c 128,-1,10
 214 170 214 170 203.5 146 c 128,-1,11
 193 122 193 122 186 102 c 0,12,13
 161 26 161 26 194 26 c 0,14,15
 236 26 236 26 318 193 c 0,16,17
 325 206 325 206 329.5 203 c 128,-1,18
 334 200 334 200 334 195.5 c 128,-1,19
 334 191 334 191 321 164.5 c 128,-1,20
 308 138 308 138 293 110 c 128,-1,21
 278 82 278 82 246 45 c 0,22,23
 208 -1 208 -1 173 -1 c 0,24,25
 134 -1 134 -1 119 46 c 0,26,27
 116 55 116 55 116 73 c 128,-1,28
 116 91 116 91 127.5 121 c 128,-1,29
 139 151 139 151 164 194 c 128,-1,30
 189 237 189 237 192 244.5 c 128,-1,31
 195 252 195 252 195 259 c 0,32,33
 195 290 195 290 115 292 c 1,34,-1
 103 260 l 2,35,36
 40 95 40 95 -18 39 c 0,37,38
 -28 30 -28 30 -28 45 c 0,39,40
 -28 48 -28 48 -26 52 c 0,41,42
 30 126 30 126 71 227 c 128,-1,43
 112 328 112 328 128 419 c 0,44,45
 134 450 134 450 156 450 c 128,-1,46
 178 450 178 450 188 422 c 0,47,48
 191 413 191 413 191 401 c 0,0,1
EndSplineSet
EndChar

StartChar: s
Encoding: 83 115 86
Width: 256
GlyphClass: 2
Flags: W
LayerCount: 2
Fore
SplineSet
142 19 m 1,0,1
 155 17 155 17 160 17 c 0,2,3
 200 17 200 17 239 64 c 0,4,5
 260 90 260 90 314 195 c 0,6,7
 316 200 316 200 321 200 c 0,8,9
 330 201 330 201 330 193 c 0,10,11
 330 191 330 191 325.5 181.5 c 128,-1,12
 321 172 321 172 317 162.5 c 128,-1,13
 313 153 313 153 304 135 c 128,-1,14
 295 117 295 117 288.5 106 c 128,-1,15
 282 95 282 95 272 79 c 128,-1,16
 262 63 262 63 252 54 c 2,17,-1
 231 32 l 2,18,19
 214 15 214 15 191 8 c 0,20,21
 154 -4 154 -4 119 6 c 1,22,23
 96 -4 96 -4 78 -4 c 0,24,25
 7 -4 7 -4 -8 52 c 0,26,27
 -11 65 -11 65 -11 83.5 c 128,-1,28
 -11 102 -11 102 1.5 119 c 128,-1,29
 14 136 14 136 28 137 c 1,30,31
 79 234 79 234 115 312 c 0,32,33
 155 397 155 397 208 397 c 0,34,35
 222 397 222 397 235.5 390.5 c 128,-1,36
 249 384 249 384 245.5 376 c 128,-1,37
 242 368 242 368 231 373 c 128,-1,38
 220 378 220 378 212 378 c 128,-1,39
 204 378 204 378 198 375 c 0,40,41
 164 359 164 359 164 306 c 0,42,43
 164 278 164 278 172 260 c 128,-1,44
 180 242 180 242 190 221 c 0,45,46
 213 169 213 169 213 136 c 256,47,48
 213 103 213 103 192 71 c 128,-1,49
 171 39 171 39 142 19 c 1,0,1
108 26 m 1,50,51
 152 60 152 60 152 136 c 0,52,53
 152 167 152 167 145 221 c 128,-1,54
 138 275 138 275 138 294 c 128,-1,55
 138 313 138 313 139 320 c 1,56,57
 63 168 63 168 45 135 c 1,58,59
 66 135 66 135 66 105 c 0,60,61
 66 46 66 46 108 26 c 1,50,51
33 53 m 0,62,63
 33 47 33 47 34 40 c 0,64,65
 42 13 42 13 71 13 c 0,66,67
 83 13 83 13 91 17 c 1,68,69
 54 40 54 40 51 92 c 1,70,71
 33 74 33 74 33 53 c 0,62,63
EndSplineSet
EndChar

StartChar: t
Encoding: 84 116 87
Width: 200
GlyphClass: 2
Flags: W
LayerCount: 2
Fore
SplineSet
32 80 m 0,0,1
 32 163 32 163 112 358 c 1,2,-1
 60 358 l 2,3,4
 55 358 55 358 53.5 363.5 c 128,-1,5
 52 369 52 369 54.5 374.5 c 128,-1,6
 57 380 57 380 62 380 c 2,7,-1
 122 380 l 1,8,9
 158 459 158 459 189 512 c 128,-1,10
 220 565 220 565 246 583.5 c 128,-1,11
 272 602 272 602 283.5 602 c 128,-1,12
 295 602 295 602 300 600 c 0,13,14
 323 589 323 589 323 554.5 c 128,-1,15
 323 520 323 520 300 471 c 128,-1,16
 277 422 277 422 255 380 c 1,17,-1
 303 380 l 2,18,19
 308 380 308 380 309.5 374.5 c 128,-1,20
 311 369 311 369 308.5 363.5 c 128,-1,21
 306 358 306 358 301 358 c 2,22,-1
 243 358 l 1,23,24
 188 265 188 265 110 193 c 1,25,-1
 87 91 l 2,26,27
 84 78 84 78 84 65.5 c 128,-1,28
 84 53 84 53 91 40 c 128,-1,29
 98 27 98 27 113 27 c 0,30,31
 130 27 130 27 151 39 c 0,32,33
 199 75 199 75 257 190 c 0,34,35
 261 199 261 199 266.5 201 c 128,-1,36
 272 203 272 203 273 198.5 c 128,-1,37
 274 194 274 194 270 184 c 0,38,39
 237 115 237 115 218 86 c 0,40,41
 164 -1 164 -1 103 -1 c 0,42,43
 72 -1 72 -1 52 22 c 128,-1,44
 32 45 32 45 32 80 c 0,0,1
233 380 m 1,45,46
 299 498 299 498 299 544 c 0,47,48
 299 564 299 564 292 564 c 0,49,50
 281 564 281 564 258.5 532 c 128,-1,51
 236 500 236 500 183 380 c 1,52,-1
 233 380 l 1,45,46
220 358 m 1,53,-1
 173 358 l 1,54,55
 161 330 161 330 119 225 c 1,56,57
 173 281 173 281 220 358 c 1,53,-1
EndSplineSet
EndChar

StartChar: u
Encoding: 85 117 88
Width: 357
GlyphClass: 2
Flags: W
AnchorPoint: "tones" 261 378 basechar 0
LayerCount: 2
Fore
SplineSet
22 58 m 0,0,1
 22 101 22 101 59 162 c 1,2,3
 43 162 43 162 50 178 c 2,4,-1
 68 213 l 2,5,6
 102 278 102 278 124 323 c 0,7,8
 134 344 134 344 163 344 c 2,9,-1
 224 344 l 1,10,11
 188 318 188 318 151.5 243.5 c 128,-1,12
 115 169 115 169 95 126.5 c 128,-1,13
 75 84 75 84 75 62 c 128,-1,14
 75 40 75 40 82.5 31 c 128,-1,15
 90 22 90 22 103 22 c 0,16,17
 122 22 122 22 156 62 c 0,18,19
 209 124 209 124 305 323 c 0,20,21
 316 344 316 344 344 344 c 2,22,-1
 398 344 l 1,23,24
 376 327 376 327 363.5 309 c 128,-1,25
 351 291 351 291 329 245 c 0,26,27
 269 125 269 125 262 86 c 0,28,29
 259 72 259 72 259 60 c 0,30,31
 259 28 259 28 281 26 c 0,32,33
 335 26 335 26 414 193 c 0,34,35
 420 207 420 207 426 204 c 128,-1,36
 432 201 432 201 432 196 c 128,-1,37
 432 191 432 191 423 173 c 128,-1,38
 414 155 414 155 405.5 138 c 128,-1,39
 397 121 397 121 379.5 91.5 c 128,-1,40
 362 62 362 62 347 45 c 0,41,42
 308 1 308 1 270.5 1 c 128,-1,43
 233 1 233 1 219 34 c 0,44,45
 213 49 213 49 213 72 c 128,-1,46
 213 95 213 95 223 129 c 1,47,48
 150 1 150 1 88 1 c 0,49,50
 34 1 34 1 25 46 c 0,51,52
 22 51 22 51 22 58 c 0,0,1
EndSplineSet
EndChar

StartChar: v
Encoding: 86 118 89
Width: 262
GlyphClass: 2
Flags: W
LayerCount: 2
Fore
SplineSet
323 349 m 1,0,-1
 318 331 l 1,1,2
 267 172 267 172 224 99 c 0,3,4
 161 -7 161 -7 92 -7 c 0,5,6
 36 -7 36 -7 36 47 c 0,7,8
 36 88 36 88 66 174 c 1,9,10
 56 158 56 158 50.5 163.5 c 128,-1,11
 45 169 45 169 48 177 c 2,12,-1
 66 211 l 2,13,14
 85 250 85 250 85 289 c 128,-1,15
 85 328 85 328 69 335 c 1,16,17
 129 345 129 345 139 344.5 c 128,-1,18
 149 344 149 344 151.5 336 c 128,-1,19
 154 328 154 328 154 318 c 0,20,21
 154 257 154 257 122.5 174 c 128,-1,22
 91 91 91 91 91 62.5 c 128,-1,23
 91 34 91 34 100 29.5 c 128,-1,24
 109 25 109 25 118 25 c 0,25,26
 144 25 144 25 177 67 c 128,-1,27
 210 109 210 109 243 191 c 1,28,29
 229 223 229 223 229 247.5 c 128,-1,30
 229 272 229 272 235 291 c 0,31,32
 253 348 253 348 292 362 c 0,33,34
 300 365 300 365 307 365 c 0,35,36
 323 365 323 365 323 349 c 1,0,-1
EndSplineSet
EndChar

StartChar: w
Encoding: 87 119 90
Width: 476
GlyphClass: 2
Flags: W
LayerCount: 2
Fore
SplineSet
503 349 m 1,0,-1
 498 332 l 2,1,2
 454 186 454 186 418 118 c 0,3,4
 353 -2 353 -2 276 -2 c 0,5,6
 240 -2 240 -2 227 16.5 c 128,-1,7
 214 35 214 35 212.5 50 c 128,-1,8
 211 65 211 65 211 76 c 0,9,10
 211 103 211 103 220 135 c 1,11,12
 146 0 146 0 87 0 c 0,13,14
 65 0 65 0 47 12.5 c 128,-1,15
 29 25 29 25 25 46 c 0,16,17
 22 51 22 51 22 58 c 0,18,19
 22 101 22 101 59 162 c 1,20,21
 43 162 43 162 50 178 c 2,22,-1
 68 213 l 2,23,24
 117 309 117 309 124 323 c 0,25,26
 134 344 134 344 163 344 c 2,27,-1
 224 344 l 1,28,29
 188 318 188 318 151.5 243.5 c 128,-1,30
 115 169 115 169 95.5 127 c 128,-1,31
 76 85 76 85 76 62.5 c 128,-1,32
 76 40 76 40 83.5 30.5 c 128,-1,33
 91 21 91 21 103 21 c 128,-1,34
 115 21 115 21 132 37.5 c 128,-1,35
 149 54 149 54 163 73 c 128,-1,36
 177 92 177 92 191.5 116 c 128,-1,37
 206 140 206 140 218 161.5 c 128,-1,38
 230 183 230 183 244 211.5 c 128,-1,39
 258 240 258 240 266 256 c 0,40,41
 295 314 295 314 298 323 c 0,42,43
 307 344 307 344 336 344 c 2,44,-1
 397 344 l 1,45,46
 395 342 395 342 386 336 c 0,47,48
 366 323 366 323 357 307 c 0,49,50
 312 232 312 232 294 186 c 0,51,52
 254 84 254 84 254 55 c 0,53,54
 254 19 254 19 281 18 c 0,55,56
 283 18 283 18 286 18 c 0,57,58
 358 18 358 18 428 192 c 1,59,60
 414 222 414 222 414 247 c 128,-1,61
 414 272 414 272 420 292 c 0,62,63
 437 350 437 350 474 363 c 0,64,65
 481 366 481 366 487 366 c 0,66,67
 503 366 503 366 503 349 c 1,0,-1
EndSplineSet
EndChar

StartChar: x
Encoding: 88 120 91
Width: 333
GlyphClass: 2
Flags: W
LayerCount: 2
Fore
SplineSet
171 205 m 1,0,1
 181 258 181 258 180.5 283 c 128,-1,2
 180 308 180 308 160.5 308 c 128,-1,3
 141 308 141 308 115 266 c 0,4,5
 108 255 108 255 83 207.5 c 128,-1,6
 58 160 58 160 51.5 148.5 c 128,-1,7
 45 137 45 137 41 143.5 c 128,-1,8
 37 150 37 150 44 164 c 0,9,10
 102 286 102 286 130 312 c 0,11,12
 158 335 158 335 181 335 c 0,13,14
 183 335 183 335 186 335 c 0,15,16
 232 330 232 330 232 265 c 0,17,18
 232 241 232 241 226 209 c 1,19,20
 253 260 253 260 288.5 303.5 c 128,-1,21
 324 347 324 347 345 353 c 0,22,23
 351 354 351 354 359.5 354 c 128,-1,24
 368 354 368 354 378.5 348 c 128,-1,25
 389 342 389 342 385.5 326 c 128,-1,26
 382 310 382 310 370.5 300.5 c 128,-1,27
 359 291 359 291 342 291 c 128,-1,28
 325 291 325 291 320 308 c 1,29,30
 289 279 289 279 258 230 c 128,-1,31
 227 181 227 181 212 134 c 0,32,33
 209 113 209 113 209 94.5 c 128,-1,34
 209 76 209 76 212 60 c 0,35,36
 220 29 220 29 239 25 c 0,37,38
 246 23 246 23 256 23 c 128,-1,39
 266 23 266 23 282.5 31.5 c 128,-1,40
 299 40 299 40 320 70 c 0,41,42
 352 117 352 117 368.5 149.5 c 128,-1,43
 385 182 385 182 387 185.5 c 128,-1,44
 389 189 389 189 390 192 c 0,45,46
 398 207 398 207 402.5 203 c 128,-1,47
 407 199 407 199 407 195.5 c 128,-1,48
 407 192 407 192 405.5 188 c 128,-1,49
 404 184 404 184 388 151.5 c 128,-1,50
 372 119 372 119 366 108 c 128,-1,51
 360 97 360 97 342.5 70.5 c 128,-1,52
 325 44 325 44 311 32 c 0,53,54
 271 0 271 0 233.5 0 c 128,-1,55
 196 0 196 0 177 29 c 128,-1,56
 158 58 158 58 158 91 c 0,57,58
 158 111 158 111 159 118 c 1,59,60
 80 -35 80 -35 5 -35 c 0,61,62
 -16 -35 -16 -35 -31 -20 c 0,63,64
 -33 -17 -33 -17 -33 -14 c 128,-1,65
 -33 -11 -33 -11 -31.5 -7 c 128,-1,66
 -30 -3 -30 -3 -24.5 -1.5 c 128,-1,67
 -19 0 -19 0 -12.5 -6 c 128,-1,68
 -6 -12 -6 -12 7 -12 c 128,-1,69
 20 -12 20 -12 37 -4 c 0,70,71
 68 11 68 11 109 74.5 c 128,-1,72
 150 138 150 138 171 205 c 1,0,1
EndSplineSet
EndChar

StartChar: y
Encoding: 89 121 92
Width: 399
GlyphClass: 2
Flags: W
LayerCount: 2
Fore
SplineSet
-82 -316 m 0,0,1
 -126 -316 -126 -316 -150 -297.5 c 128,-1,2
 -174 -279 -174 -279 -174 -253 c 128,-1,3
 -174 -227 -174 -227 -159 -194 c 0,4,5
 -133 -143 -133 -143 -65 -112 c 0,6,7
 -14 -88 -14 -88 70 -67.5 c 128,-1,8
 154 -47 154 -47 178 -40 c 1,9,10
 214 23 214 23 264 185 c 1,11,12
 206 83 206 83 167 42 c 128,-1,13
 128 1 128 1 88 1 c 0,14,15
 34 1 34 1 25 46 c 0,16,17
 21 53 21 53 23 67 c 128,-1,18
 25 81 25 81 25.5 87 c 128,-1,19
 26 93 26 93 32 106.5 c 128,-1,20
 38 120 38 120 40 126 c 0,21,22
 51 149 51 149 59 162 c 1,23,24
 43 162 43 162 50 178 c 2,25,-1
 68 213 l 2,26,27
 102 278 102 278 124 323 c 0,28,29
 134 344 134 344 163 344 c 2,30,-1
 224 344 l 1,31,32
 222 342 222 342 214 336 c 0,33,34
 196 324 196 324 187 308 c 0,35,36
 151 246 151 246 97 131 c 0,37,38
 75 84 75 84 75 62 c 128,-1,39
 75 40 75 40 82.5 31 c 128,-1,40
 90 22 90 22 103 22 c 0,41,42
 122 22 122 22 156 62 c 0,43,44
 227 145 227 145 313 323 c 0,45,46
 324 344 324 344 352 344 c 2,47,-1
 406 344 l 1,48,49
 380 326 380 326 365 298.5 c 128,-1,50
 350 271 350 271 332.5 224 c 128,-1,51
 315 177 315 177 288.5 99 c 128,-1,52
 262 21 262 21 248 -18 c 1,53,54
 342 10 342 10 392 81 c 0,55,56
 414 112 414 112 455 191 c 0,57,58
 462 205 462 205 467.5 202 c 128,-1,59
 473 199 473 199 473 194 c 128,-1,60
 473 189 473 189 456.5 155.5 c 128,-1,61
 440 122 440 122 423 93.5 c 128,-1,62
 406 65 406 65 379 35 c 128,-1,63
 352 5 352 5 319 -12.5 c 128,-1,64
 286 -30 286 -30 231 -50 c 1,65,66
 154 -190 154 -190 76 -256 c 0,67,68
 3 -316 3 -316 -82 -316 c 0,0,1
-140 -217 m 0,69,70
 -151 -239 -151 -239 -151 -257.5 c 128,-1,71
 -151 -276 -151 -276 -137 -286 c 128,-1,72
 -123 -296 -123 -296 -102 -296 c 0,73,74
 -44 -296 -44 -296 22 -236.5 c 128,-1,75
 88 -177 88 -177 138 -109 c 1,76,-1
 160 -72 l 1,77,78
 -5 -115 -5 -115 -48 -134 c 0,79,80
 -112 -162 -112 -162 -140 -217 c 0,69,70
EndSplineSet
EndChar

StartChar: z
Encoding: 90 122 93
Width: 341
GlyphClass: 2
Flags: W
LayerCount: 2
Fore
SplineSet
-106 -310 m 0,0,1
 -149 -310 -149 -310 -171.5 -284 c 128,-1,2
 -194 -258 -194 -258 -194 -231 c 128,-1,3
 -194 -204 -194 -204 -177.5 -179 c 128,-1,4
 -161 -154 -161 -154 -136.5 -135.5 c 128,-1,5
 -112 -117 -112 -117 -89 -104.5 c 128,-1,6
 -66 -92 -66 -92 -24.5 -76.5 c 128,-1,7
 17 -61 17 -61 40 -53.5 c 128,-1,8
 63 -46 63 -46 112 -31 c 128,-1,9
 161 -16 161 -16 177 -11 c 1,10,11
 195 47 195 47 195 77 c 0,12,13
 195 129 195 129 166 129 c 0,14,15
 162 129 162 129 158 128 c 0,16,17
 110 103 110 103 101 110 c 0,18,19
 96 114 96 114 97 120 c 128,-1,20
 98 126 98 126 106 128 c 0,21,22
 174 149 174 149 218 216 c 0,23,24
 231 236 231 236 231 253 c 128,-1,25
 231 270 231 270 217 286 c 128,-1,26
 203 302 203 302 187 302 c 0,27,28
 137 302 137 302 104 245 c 0,29,30
 76 198 76 198 51 145 c 0,31,32
 45 131 45 131 38 135.5 c 128,-1,33
 31 140 31 140 39 156 c 0,34,35
 92 260 92 260 98 270 c 0,36,37
 143 352 143 352 221 352 c 0,38,39
 256 352 256 352 274 326 c 0,40,41
 284 312 284 312 284 284.5 c 128,-1,42
 284 257 284 257 257.5 217.5 c 128,-1,43
 231 178 231 178 186 151 c 1,44,45
 187 151 187 151 188 151 c 0,46,47
 253 151 253 151 255 86 c 0,48,49
 255 48 255 48 244 13 c 1,50,51
 320 28 320 28 398 192 c 0,52,53
 402 201 402 201 408 202 c 0,54,55
 415 205 415 205 415 196 c 0,56,57
 415 185 415 185 389 138 c 128,-1,58
 363 91 363 91 340 60 c 0,59,60
 298 0 298 0 238 -12 c 1,61,62
 199 -119 199 -119 122.5 -195.5 c 128,-1,63
 46 -272 46 -272 -60 -303 c 0,64,65
 -85 -310 -85 -310 -106 -310 c 0,0,1
-153 -211 m 0,66,67
 -159 -230 -159 -230 -159 -250 c 128,-1,68
 -159 -270 -159 -270 -144 -279 c 128,-1,69
 -129 -288 -129 -288 -116 -288 c 0,70,71
 -68 -288 -68 -288 -10.5 -251.5 c 128,-1,72
 47 -215 47 -215 95 -159 c 128,-1,73
 143 -103 143 -103 168 -36 c 1,74,75
 147 -43 147 -43 102 -56 c 128,-1,76
 57 -69 57 -69 31 -77 c 0,77,78
 -39 -99 -39 -99 -80 -123 c 0,79,80
 -134 -154 -134 -154 -153 -211 c 0,66,67
EndSplineSet
EndChar

StartChar: braceleft
Encoding: 91 123 94
Width: 369
GlyphClass: 2
Flags: W
LayerCount: 2
Fore
SplineSet
421 726 m 2,0,1
 432 726 432 726 432 721.5 c 128,-1,2
 432 717 432 717 427 710 c 128,-1,3
 422 703 422 703 416 703 c 0,4,5
 343 703 343 703 314.5 677.5 c 128,-1,6
 286 652 286 652 271.5 592 c 128,-1,7
 257 532 257 532 242 466.5 c 128,-1,8
 227 401 227 401 200 368 c 0,9,10
 162 321 162 321 67 304 c 1,11,12
 147 289 147 289 170 250 c 0,13,14
 180 233 180 233 180 207.5 c 128,-1,15
 180 182 180 182 176 156.5 c 128,-1,16
 172 131 172 131 168 108 c 0,17,18
 161 75 161 75 147 18 c 0,19,20
 141 -13 141 -13 141 -40.5 c 128,-1,21
 141 -68 141 -68 154 -83 c 0,22,23
 176 -109 176 -109 244 -109 c 0,24,25
 254 -108 254 -108 251 -119.5 c 128,-1,26
 248 -131 248 -131 241 -131 c 2,27,-1
 236 -131 l 2,28,29
 138 -131 138 -131 105 -96 c 0,30,31
 88 -77 88 -77 88 -37 c 128,-1,32
 88 3 88 3 93.5 31.5 c 128,-1,33
 99 60 99 60 110 105 c 128,-1,34
 121 150 121 150 124.5 167.5 c 128,-1,35
 128 185 128 185 128 212 c 0,36,37
 128 261 128 261 80 282 c 0,38,39
 58 291 58 291 15 291 c 0,40,41
 8 291 8 291 8 296.5 c 128,-1,42
 8 302 8 302 21 318 c 1,43,44
 106 327 106 327 136 353 c 0,45,46
 168 377 168 377 183 454 c 0,47,48
 185 463 185 463 191.5 498 c 128,-1,49
 198 533 198 533 203 554 c 128,-1,50
 208 575 208 575 218 605 c 0,51,52
 236 664 236 664 271 691 c 0,53,54
 318 726 318 726 417 726 c 2,55,-1
 421 726 l 2,0,1
EndSplineSet
EndChar

StartChar: bar
Encoding: 92 124 95
Width: 485
GlyphClass: 2
Flags: W
LayerCount: 2
Fore
SplineSet
264 -231 m 1,0,-1
 221 -231 l 1,1,-1
 221 749 l 1,2,-1
 264 749 l 1,3,-1
 264 -231 l 1,0,-1
EndSplineSet
EndChar

StartChar: braceright
Encoding: 93 125 96
Width: 485
GlyphClass: 2
Flags: W
LayerCount: 2
Fore
SplineSet
484 299 m 0,0,1
 484 293 484 293 468 277 c 1,2,3
 394 277 394 277 349 242 c 0,4,5
 300 205 300 205 272 76 c 0,6,7
 261 29 261 29 237.5 -21.5 c 128,-1,8
 214 -72 214 -72 178 -97 c 0,9,10
 129 -131 129 -131 31 -131 c 2,11,-1
 26 -131 l 2,12,13
 19 -130 19 -130 19 -126 c 0,14,15
 19 -109 19 -109 34 -109 c 0,16,17
 107 -109 107 -109 140 -82 c 0,18,19
 183 -48 183 -48 212 69 c 0,20,21
 223 113 223 113 244 161 c 128,-1,22
 265 209 265 209 293 235 c 0,23,24
 336 273 336 273 423 290 c 1,25,26
 348 303 348 303 327 344 c 0,27,28
 320 357 320 357 320 377.5 c 128,-1,29
 320 398 320 398 323 416 c 128,-1,30
 326 434 326 434 332 459.5 c 128,-1,31
 338 485 338 485 344 502 c 0,32,33
 362 560 362 560 370 587 c 128,-1,34
 378 614 378 614 378 637.5 c 128,-1,35
 378 661 378 661 370 672 c 0,36,37
 352 699 352 699 280 699 c 0,38,39
 272 699 272 699 272 704 c 128,-1,40
 272 709 272 709 286 722 c 1,41,-1
 291 722 l 2,42,43
 394 722 394 722 420 687 c 0,44,45
 433 670 433 670 433 648 c 128,-1,46
 433 626 433 626 428 592 c 128,-1,47
 423 558 423 558 404 508 c 0,48,49
 371 425 371 425 371 375 c 0,50,51
 371 350 371 350 381 337 c 0,52,53
 400 312 400 312 477 304 c 0,54,55
 484 304 484 304 484 299 c 0,0,1
EndSplineSet
EndChar

StartChar: asciitilde
Encoding: 94 126 97
Width: 485
GlyphClass: 2
Flags: W
LayerCount: 2
Fore
SplineSet
360 414 m 0,0,1
 338 414 338 414 296 432 c 0,2,3
 249 453 249 453 224 453 c 128,-1,4
 199 453 199 453 181 420 c 0,5,6
 179 413 179 413 163 418 c 0,7,8
 158 420 158 420 158 422 c 0,9,10
 200 497 200 497 250 497 c 0,11,12
 273 497 273 497 315 479.5 c 128,-1,13
 357 462 357 462 368.5 461.5 c 128,-1,14
 380 461 380 461 384 461 c 0,15,16
 415 461 415 461 432 496 c 0,17,18
 433 499 433 499 438 499 c 0,19,20
 451 499 451 499 453 494 c 0,21,22
 414 414 414 414 360 414 c 0,0,1
EndSplineSet
EndChar

StartChar: exclamdown
Encoding: 96 161 99
Width: 401
GlyphClass: 2
Flags: W
LayerCount: 2
Fore
SplineSet
-6 -298 m 2,0,-1
 -37 -297 l 1,1,-1
 -42 -295 l 1,2,-1
 -44 -289 l 1,3,4
 -35 -265 -35 -265 124.5 -30 c 128,-1,5
 284 205 284 205 291 215 c 1,6,-1
 301 214 l 1,7,-1
 300 207 l 1,8,-1
 46 -277 l 2,9,10
 35 -298 35 -298 -6 -298 c 2,0,-1
342 336 m 128,-1,12
 359 336 359 336 368 325.5 c 128,-1,13
 377 315 377 315 377 307 c 0,14,15
 377 280 377 280 361 267 c 128,-1,16
 345 254 345 254 328 254 c 128,-1,17
 311 254 311 254 302 264.5 c 128,-1,18
 293 275 293 275 293 283 c 128,-1,19
 293 291 293 291 295 301.5 c 128,-1,20
 297 312 297 312 311 324 c 128,-1,11
 325 336 325 336 342 336 c 128,-1,12
EndSplineSet
EndChar

StartChar: cent
Encoding: 97 162 100
Width: 316
GlyphClass: 2
Flags: W
LayerCount: 2
Fore
SplineSet
149 548 m 0,0,1
 91 469 91 469 91 393.5 c 128,-1,2
 91 318 91 318 146 318 c 0,3,4
 197 318 197 318 257 392 c 0,5,6
 265 403 265 403 269.5 394 c 128,-1,7
 274 385 274 385 269 379 c 0,8,9
 215 304 215 304 141 301 c 1,10,11
 139 296 139 296 124 262 c 0,12,13
 61 114 61 114 61 59 c 0,14,15
 61 26 61 26 82 22 c 0,16,17
 96 19 96 19 91.5 11 c 128,-1,18
 87 3 87 3 82 3 c 128,-1,19
 77 3 77 3 73 4 c 0,20,21
 35 17 35 17 35 67 c 0,22,23
 35 121 35 121 94 254 c 0,24,25
 111 291 111 291 114 301 c 1,26,27
 67 305 67 305 48 339 c 0,28,29
 33 364 33 364 33 385.5 c 128,-1,30
 33 407 33 407 37 435.5 c 128,-1,31
 41 464 41 464 59.5 509 c 128,-1,32
 78 554 78 554 103.5 583.5 c 128,-1,33
 129 613 129 613 165 635 c 128,-1,34
 201 657 201 657 233 657 c 0,35,36
 235 657 235 657 236 657 c 2,37,-1
 242 657 l 1,38,39
 282 756 282 756 311 826 c 0,40,41
 319 845 319 845 327 845 c 0,42,43
 330 845 330 845 334 840.5 c 128,-1,44
 338 836 338 836 338 830.5 c 128,-1,45
 338 825 338 825 335.5 818.5 c 128,-1,46
 333 812 333 812 323 788 c 128,-1,47
 313 764 313 764 297 725 c 128,-1,48
 281 686 281 686 267 652 c 1,49,50
 291 645 291 645 305 624.5 c 128,-1,51
 319 604 319 604 319 578 c 128,-1,52
 319 552 319 552 303.5 533.5 c 128,-1,53
 288 515 288 515 266.5 515 c 128,-1,54
 245 515 245 515 231.5 528.5 c 128,-1,55
 218 542 218 542 218 562 c 128,-1,56
 218 582 218 582 231 595 c 128,-1,57
 244 608 244 608 262 608 c 0,58,59
 275 608 275 608 286 602 c 128,-1,60
 297 596 297 596 299 590 c 1,61,62
 302 606 302 606 294 618 c 0,63,64
 284 633 284 633 264.5 633 c 128,-1,65
 245 633 245 633 212 610.5 c 128,-1,66
 179 588 179 588 149 548 c 0,0,1
EndSplineSet
EndChar

StartChar: sterling
Encoding: 98 163 101
Width: 573
GlyphClass: 2
Flags: W
LayerCount: 2
Fore
SplineSet
303 240 m 1,0,-1
 296 237 l 2,1,2
 291 237 291 237 291 246.5 c 128,-1,3
 291 256 291 256 294 258 c 0,4,5
 322 272 322 272 360 272 c 128,-1,6
 398 272 398 272 420 269 c 1,7,8
 602 587 602 587 746 587 c 0,9,10
 775 587 775 587 796.5 572.5 c 128,-1,11
 818 558 818 558 818 524 c 128,-1,12
 818 490 818 490 779 440 c 128,-1,13
 740 390 740 390 698 360 c 0,14,15
 693 355 693 355 687 355 c 128,-1,16
 681 355 681 355 681 359 c 128,-1,17
 681 363 681 363 687 367 c 0,18,19
 804 464 804 464 804 532 c 0,20,21
 804 565 804 565 766 565 c 0,22,23
 718 565 718 565 668.5 525 c 128,-1,24
 619 485 619 485 587.5 439.5 c 128,-1,25
 556 394 556 394 538 352.5 c 128,-1,26
 520 311 520 311 496 259 c 1,27,28
 518 256 518 256 537.5 256 c 128,-1,29
 557 256 557 256 572 259 c 0,30,31
 587 264 587 264 591 264 c 128,-1,32
 595 264 595 264 595 254 c 128,-1,33
 595 244 595 244 592 243 c 0,34,35
 571 235 571 235 548 235 c 128,-1,36
 525 235 525 235 485 239 c 1,37,38
 403 82 403 82 279 11 c 1,39,40
 310 -11 310 -11 375 -38.5 c 128,-1,41
 440 -66 440 -66 471 -73.5 c 128,-1,42
 502 -81 502 -81 537.5 -81 c 128,-1,43
 573 -81 573 -81 611 -60.5 c 128,-1,44
 649 -40 649 -40 649 3 c 0,45,46
 649 8 649 8 653 8 c 128,-1,47
 657 8 657 8 657 1 c 2,48,-1
 657 -1 l 1,49,50
 652 -49 652 -49 613 -69.5 c 128,-1,51
 574 -90 574 -90 526.5 -90 c 128,-1,52
 479 -90 479 -90 436.5 -80.5 c 128,-1,53
 394 -71 394 -71 322 -46 c 128,-1,54
 250 -21 250 -21 226 -7 c 1,55,56
 183 -27 183 -27 143.5 -27 c 128,-1,57
 104 -27 104 -27 64 -8 c 128,-1,58
 24 11 24 11 24 42 c 128,-1,59
 24 73 24 73 48 88.5 c 128,-1,60
 72 104 72 104 100.5 104 c 128,-1,61
 129 104 129 104 160.5 90 c 128,-1,62
 192 76 192 76 206 66 c 128,-1,63
 220 56 220 56 256 29 c 1,64,65
 295 61 295 61 320.5 101 c 128,-1,66
 346 141 346 141 354 153.5 c 128,-1,67
 362 166 362 166 384.5 206 c 128,-1,68
 407 246 407 246 409 249 c 1,69,70
 387 251 387 251 365.5 251 c 128,-1,71
 344 251 344 251 321 246 c 2,72,-1
 303 240 l 1,0,-1
63 80 m 128,-1,74
 50 80 50 80 41 72.5 c 128,-1,75
 32 65 32 65 32 52 c 0,76,77
 32 24 32 24 60 5 c 0,78,79
 94 -18 94 -18 135 -18 c 128,-1,80
 176 -18 176 -18 211 2 c 1,81,82
 133 54 133 54 104.5 67 c 128,-1,73
 76 80 76 80 63 80 c 128,-1,74
EndSplineSet
EndChar

StartChar: currency
Encoding: 99 164 102
Width: 671
GlyphClass: 2
Flags: W
LayerCount: 2
Fore
SplineSet
169 260 m 0,0,1
 169 323 169 323 214 368 c 1,2,-1
 110 530 l 1,3,-1
 264 406 l 1,4,5
 309 430 309 430 356.5 430 c 128,-1,6
 404 430 404 430 436 406 c 1,7,-1
 654 536 l 1,8,-1
 471 365 l 1,9,10
 484 343 484 343 484 315 c 0,11,12
 484 261 484 261 439 211 c 1,13,-1
 545 47 l 1,14,-1
 389 174 l 1,15,16
 346 150 346 150 299.5 150 c 128,-1,17
 253 150 253 150 217 173 c 1,18,-1
 1 42 l 1,19,-1
 181 212 l 1,20,21
 169 235 169 235 169 260 c 0,0,1
322 186 m 128,-1,23
 362 186 362 186 395 216.5 c 128,-1,24
 428 247 428 247 428 290.5 c 128,-1,25
 428 334 428 334 398.5 363 c 128,-1,26
 369 392 369 392 329.5 392 c 128,-1,27
 290 392 290 392 258 362 c 256,28,29
 226 332 226 332 226 287.5 c 128,-1,30
 226 243 226 243 254 214.5 c 128,-1,22
 282 186 282 186 322 186 c 128,-1,23
EndSplineSet
EndChar

StartChar: yen
Encoding: 100 165 103
Width: 722
GlyphClass: 2
Flags: W
LayerCount: 2
Fore
SplineSet
108 514.5 m 128,-1,1
 84 478 84 478 84 444 c 128,-1,2
 84 410 84 410 110 363 c 0,3,4
 110 356 110 356 103 356 c 0,5,6
 101 356 101 356 98 359 c 0,7,8
 72 394 72 394 72 439 c 128,-1,9
 72 484 72 484 99 524 c 128,-1,10
 126 564 126 564 168 564 c 0,11,12
 227 564 227 564 272 512 c 0,13,14
 353 416 353 416 360 277 c 1,15,-1
 380 308 l 2,16,17
 380 315 380 315 388.5 324 c 128,-1,18
 397 333 397 333 404 345 c 128,-1,19
 411 357 411 357 419.5 371.5 c 128,-1,20
 428 386 428 386 440 404.5 c 128,-1,21
 452 423 452 423 464.5 442 c 128,-1,22
 477 461 477 461 506 497.5 c 128,-1,23
 535 534 535 534 557.5 556.5 c 128,-1,24
 580 579 580 579 609 597 c 128,-1,25
 638 615 638 615 663.5 615 c 128,-1,26
 689 615 689 615 708.5 595 c 128,-1,27
 728 575 728 575 728 552 c 128,-1,28
 728 529 728 529 720.5 529 c 128,-1,29
 713 529 713 529 713 536 c 2,30,-1
 715 548 l 2,31,32
 715 569 715 569 699 585.5 c 128,-1,33
 683 602 683 602 662 602 c 0,34,35
 589 602 589 602 442 343 c 0,36,37
 436 333 436 333 434 329 c 1,38,-1
 538 329 l 2,39,40
 540 329 540 329 540 325 c 128,-1,41
 540 321 540 321 533.5 314 c 128,-1,42
 527 307 527 307 522 307 c 2,43,-1
 422 307 l 1,44,-1
 369 213 l 1,45,-1
 470 213 l 2,46,47
 473 213 473 213 473 209 c 128,-1,48
 473 205 473 205 466 198 c 128,-1,49
 459 191 459 191 455 191 c 2,50,-1
 355 191 l 1,51,52
 269 62 269 62 206 11 c 0,53,54
 137 -44 137 -44 69 -44 c 0,55,56
 50 -44 50 -44 50 -37.5 c 128,-1,57
 50 -31 50 -31 64 -31 c 0,58,59
 130 -31 130 -31 204 57 c 0,60,61
 256 120 256 120 304 191 c 1,62,-1
 77 191 l 2,63,64
 74 191 74 191 74 195 c 128,-1,65
 74 199 74 199 81 206 c 128,-1,66
 88 213 88 213 92 213 c 2,67,-1
 319 213 l 1,68,-1
 324 221 l 1,69,70
 324 256 324 256 317 307 c 1,71,-1
 176 307 l 2,72,73
 173 307 173 307 173 310.5 c 128,-1,74
 173 314 173 314 179.5 321.5 c 128,-1,75
 186 329 186 329 191 329 c 2,76,-1
 314 329 l 1,77,78
 303 393 303 393 270 464 c 0,79,80
 253 502 253 502 226 526.5 c 128,-1,81
 199 551 199 551 165.5 551 c 128,-1,0
 132 551 132 551 108 514.5 c 128,-1,1
EndSplineSet
EndChar

StartChar: brokenbar
Encoding: 101 166 104
Width: 485
GlyphClass: 2
Flags: W
LayerCount: 2
Fore
SplineSet
428 749 m 1,0,-1
 334 322 l 1,1,-1
 286 327 l 1,2,-1
 376 749 l 1,3,-1
 428 749 l 1,0,-1
311 216 m 1,4,-1
 220 -231 l 1,5,-1
 168 -231 l 1,6,-1
 264 220 l 1,7,-1
 311 216 l 1,4,-1
EndSplineSet
EndChar

StartChar: section
Encoding: 102 167 105
Width: 944
GlyphClass: 2
Flags: W
LayerCount: 2
Fore
SplineSet
613 -41 m 1,0,1
 637 -78 637 -78 637 -114 c 128,-1,2
 637 -150 637 -150 616 -186 c 0,3,4
 572 -258 572 -258 474 -293 c 0,5,6
 391 -322 391 -322 298 -322 c 128,-1,7
 205 -322 205 -322 151.5 -296.5 c 128,-1,8
 98 -271 98 -271 86 -220 c 0,9,10
 84 -210 84 -210 84 -200 c 0,11,12
 84 -161 84 -161 120 -130 c 0,13,14
 145 -110 145 -110 187 -98 c 0,15,16
 205 -93 205 -93 207 -102 c 0,17,18
 209 -115 209 -115 182 -118 c 0,19,20
 134 -124 134 -124 123 -166 c 0,21,22
 120 -177 120 -177 120 -187 c 0,23,24
 120 -222 120 -222 152 -253 c 0,25,26
 198 -297 198 -297 279 -297 c 0,27,28
 350 -297 350 -297 436 -266 c 0,29,30
 481 -250 481 -250 514 -222 c 0,31,32
 565 -178 565 -178 565 -134 c 0,33,34
 565 -75 565 -75 490 -28 c 0,35,36
 462 -11 462 -11 377.5 27.5 c 128,-1,37
 293 66 293 66 254 90 c 0,38,39
 195 126 195 126 172.5 167 c 128,-1,40
 150 208 150 208 150 243 c 0,41,42
 150 293 150 293 183 345 c 0,43,44
 241 438 241 438 353 505 c 0,45,46
 378 520 378 520 407 532 c 1,47,48
 382 569 382 569 382 605.5 c 128,-1,49
 382 642 382 642 404 677 c 0,50,51
 448 750 448 750 546 785 c 0,52,53
 629 814 629 814 722 814 c 128,-1,54
 815 814 815 814 868.5 788.5 c 128,-1,55
 922 763 922 763 934 712 c 0,56,57
 936 702 936 702 936 692 c 0,58,59
 936 653 936 653 900 622 c 0,60,61
 875 602 875 602 833 590 c 0,62,63
 815 585 815 585 813 594 c 0,64,65
 811 607 811 607 838 610 c 0,66,67
 886 616 886 616 897 658 c 0,68,69
 900 669 900 669 900 679 c 0,70,71
 900 714 900 714 868 745 c 0,72,73
 822 789 822 789 741 789 c 0,74,75
 670 789 670 789 584 758 c 0,76,77
 539 742 539 742 506 714 c 0,78,79
 455 670 455 670 455 626 c 0,80,81
 455 567 455 567 530 520 c 0,82,83
 558 503 558 503 642.5 464.5 c 128,-1,84
 727 426 727 426 766 402 c 0,85,86
 825 366 825 366 847.5 325 c 128,-1,87
 870 284 870 284 870 249 c 0,88,89
 870 199 870 199 837 147 c 0,90,91
 779 54 779 54 667 -13 c 0,92,93
 636 -32 636 -32 613 -41 c 1,0,1
230 262 m 0,94,95
 230 194 230 194 291 142 c 0,96,97
 324 116 324 116 425.5 72.5 c 128,-1,98
 527 29 527 29 552 13 c 128,-1,99
 577 -3 577 -3 592 -17 c 1,100,-1
 611 -8 l 1,101,102
 740 60 740 60 778 168 c 0,103,104
 790 200 790 200 790 230 c 0,105,106
 790 298 790 298 729 350 c 0,107,108
 696 376 696 376 594 420 c 0,109,110
 460 477 460 477 428 509 c 1,111,-1
 409 500 l 1,112,113
 280 432 280 432 242 324 c 0,114,115
 230 292 230 292 230 262 c 0,94,95
EndSplineSet
EndChar

StartChar: dieresis
Encoding: 103 168 106
Width: 278
GlyphClass: 2
Flags: W
LayerCount: 2
Fore
SplineSet
223.5 488 m 128,-1,1
 233 479 233 479 233 464.5 c 128,-1,2
 233 450 233 450 224 440.5 c 128,-1,3
 215 431 215 431 200.5 431 c 128,-1,4
 186 431 186 431 176.5 440 c 128,-1,5
 167 449 167 449 167 463.5 c 128,-1,6
 167 478 167 478 176 487.5 c 128,-1,7
 185 497 185 497 199.5 497 c 128,-1,0
 214 497 214 497 223.5 488 c 128,-1,1
94.5 488 m 128,-1,9
 104 479 104 479 104 464.5 c 128,-1,10
 104 450 104 450 95 440.5 c 128,-1,11
 86 431 86 431 71.5 431 c 128,-1,12
 57 431 57 431 47.5 440 c 128,-1,13
 38 449 38 449 38 463.5 c 128,-1,14
 38 478 38 478 47 487.5 c 128,-1,15
 56 497 56 497 70.5 497 c 128,-1,8
 85 497 85 497 94.5 488 c 128,-1,9
EndSplineSet
EndChar

StartChar: copyright
Encoding: 104 169 107
Width: 717
GlyphClass: 2
Flags: W
LayerCount: 2
Fore
SplineSet
68 231 m 0,0,1
 68 139 68 139 136 68.5 c 128,-1,2
 204 -2 204 -2 316 -2 c 0,3,4
 444 -2 444 -2 540 82 c 0,5,6
 651 180 651 180 651 313 c 0,7,8
 651 406 651 406 582.5 477 c 128,-1,9
 514 548 514 548 400 548 c 0,10,11
 275 548 275 548 179 463 c 0,12,13
 68 365 68 365 68 231 c 0,0,1
615.5 487.5 m 128,-1,15
 696 412 696 412 696 314 c 0,16,17
 696 175 696 175 572 74 c 0,18,19
 461 -16 461 -16 323 -16 c 128,-1,20
 185 -16 185 -16 104.5 58.5 c 128,-1,21
 24 133 24 133 24 234 c 0,22,23
 24 372 24 372 147 472 c 0,24,25
 260 563 260 563 397.5 563 c 128,-1,14
 535 563 535 563 615.5 487.5 c 128,-1,15
399 326 m 1,26,27
 429 359 429 359 429 391 c 0,28,29
 429 413 429 413 409 413 c 0,30,31
 367 413 367 413 318 341 c 128,-1,32
 269 269 269 269 269 206 c 0,33,34
 269 177 269 177 281.5 158 c 128,-1,35
 294 139 294 139 320 139 c 0,36,37
 378 139 378 139 426 211 c 0,38,39
 432 219 432 219 437.5 220 c 128,-1,40
 443 221 443 221 444 215.5 c 128,-1,41
 445 210 445 210 441 203 c 0,42,43
 392 124 392 124 311 124 c 0,44,45
 263 124 263 124 242 148 c 128,-1,46
 221 172 221 172 221 203 c 0,47,48
 221 240 221 240 239 285 c 128,-1,49
 257 330 257 330 282 363 c 0,50,51
 333 432 333 432 397 432 c 0,52,53
 429 432 429 432 443 417 c 128,-1,54
 457 402 457 402 457 380 c 0,55,56
 457 352 457 352 434 330 c 0,57,58
 422 320 422 320 413.5 320 c 128,-1,59
 405 320 405 320 399 326 c 1,26,27
EndSplineSet
EndChar

StartChar: ordfeminine
Encoding: 105 170 108
Width: 374
GlyphClass: 2
Flags: W
LayerCount: 2
Fore
SplineSet
149 486 m 1,0,1
 109 421 109 421 80 421 c 0,2,3
 69 421 69 421 59.5 432.5 c 128,-1,4
 50 444 50 444 50 463 c 0,5,6
 50 510 50 510 93 562 c 0,7,8
 126 601 126 601 170 601 c 0,9,10
 193 601 193 601 209 585 c 0,11,12
 214 580 214 580 212 574.5 c 128,-1,13
 210 569 210 569 204 571 c 1,14,15
 198 589 198 589 185 589 c 0,16,17
 143 589 143 589 95 512 c 0,18,19
 73 475 73 475 73 455.5 c 128,-1,20
 73 436 73 436 86 436 c 0,21,22
 115 436 115 436 165 528 c 0,23,24
 177 551 177 551 184 556 c 128,-1,25
 191 561 191 561 196 560.5 c 128,-1,26
 201 560 201 560 208.5 558.5 c 128,-1,27
 216 557 216 557 220 558 c 1,28,29
 211 550 211 550 194 518 c 0,30,31
 171 473 171 473 171 454 c 128,-1,32
 171 435 171 435 178 435 c 2,33,34
 178 435 178 435 179 435 c 0,35,36
 200 435 200 435 243 519 c 0,37,38
 247 528 247 528 249.5 525 c 128,-1,39
 252 522 252 522 252 520 c 128,-1,40
 252 518 252 518 250 515 c 0,41,42
 203 422 203 422 172 422 c 0,43,44
 157 422 157 422 150.5 432.5 c 128,-1,45
 144 443 144 443 144 455.5 c 128,-1,46
 144 468 144 468 149 486 c 1,0,1
EndSplineSet
EndChar

StartChar: guillemotleft
Encoding: 106 171 109
Width: 451
GlyphClass: 2
Flags: W
LayerCount: 2
Fore
SplineSet
477 297 m 1,0,1
 461 272 461 272 390 222 c 128,-1,2
 319 172 319 172 316 170 c 2,3,-1
 315 34 l 1,4,-1
 310 24 l 1,5,-1
 303 21 l 1,6,-1
 295 24 l 1,7,8
 284 44 284 44 271.5 107 c 128,-1,9
 259 170 259 170 257 179 c 1,10,11
 261 181 261 181 316 216 c 0,12,13
 461 307 461 307 470 307 c 1,14,-1
 476 304 l 1,15,-1
 477 297 l 1,0,1
333 297 m 1,16,17
 317 270 317 270 218 202 c 0,18,19
 173 172 173 172 171 170 c 2,20,-1
 170 34 l 1,21,-1
 165 24 l 1,22,-1
 158 21 l 2,23,24
 153 21 153 21 150 24 c 0,25,26
 136 60 136 60 126 111.5 c 128,-1,27
 116 163 116 163 112 179 c 1,28,29
 116 181 116 181 171 216 c 0,30,31
 314 307 314 307 325 307 c 1,32,-1
 332 304 l 1,33,-1
 333 297 l 1,16,17
EndSplineSet
EndChar

StartChar: logicalnot
Encoding: 107 172 110
Width: 808
GlyphClass: 2
Flags: W
LayerCount: 2
Fore
SplineSet
591 14 m 0,0,1
 583 14 583 14 577 21 c 128,-1,2
 571 28 571 28 572 36 c 2,3,-1
 613 229 l 1,4,-1
 91 229 l 2,5,6
 71 229 71 229 71 242 c 0,7,8
 71 251 71 251 82 264 c 128,-1,9
 93 277 93 277 101 277 c 2,10,-1
 669 277 l 1,11,-1
 618 36 l 2,12,13
 615 14 615 14 591 14 c 0,0,1
EndSplineSet
EndChar

StartChar: uni00AD
Encoding: 108 173 111
Width: 406
GlyphClass: 2
Flags: W
LayerCount: 2
Fore
SplineSet
147 221 m 0,0,1
 147 242 147 242 164 242 c 0,2,3
 229 242 229 242 384 238 c 0,4,5
 401 237 401 237 405 225 c 1,6,7
 403 213 403 213 388 211 c 0,8,9
 310 211 310 211 236.5 202.5 c 128,-1,10
 163 194 163 194 163 194 c 2,11,12
 157 194 157 194 152 203.5 c 128,-1,13
 147 213 147 213 147 221 c 0,0,1
EndSplineSet
EndChar

StartChar: registered
Encoding: 109 174 112
Width: 717
GlyphClass: 2
Flags: W
LayerCount: 2
Fore
SplineSet
615.5 487.5 m 128,-1,1
 696 412 696 412 696 314 c 0,2,3
 696 175 696 175 572 74 c 0,4,5
 461 -16 461 -16 323 -16 c 128,-1,6
 185 -16 185 -16 104.5 58.5 c 128,-1,7
 24 133 24 133 24 234 c 0,8,9
 24 372 24 372 147 472 c 0,10,11
 260 563 260 563 397.5 563 c 128,-1,0
 535 563 535 563 615.5 487.5 c 128,-1,1
68 231 m 0,12,13
 68 139 68 139 136 68.5 c 128,-1,14
 204 -2 204 -2 316 -2 c 0,15,16
 444 -2 444 -2 540 82 c 0,17,18
 651 180 651 180 651 313 c 0,19,20
 651 406 651 406 582.5 477 c 128,-1,21
 514 548 514 548 400 548 c 0,22,23
 275 548 275 548 179 463 c 0,24,25
 68 365 68 365 68 231 c 0,12,13
308 172 m 0,26,27
 266 125 266 125 194 125 c 128,-1,28
 122 125 122 125 122 171 c 0,29,30
 122 192 122 192 146 204 c 0,31,32
 159 210 159 210 176 210 c 128,-1,33
 193 210 193 210 213 203 c 0,34,35
 220 200 220 200 217 198 c 128,-1,36
 214 196 214 196 205 199.5 c 128,-1,37
 196 203 196 203 180.5 203 c 128,-1,38
 165 203 165 203 157 190.5 c 128,-1,39
 149 178 149 178 149 168.5 c 128,-1,40
 149 159 149 159 159 149 c 0,41,42
 170 139 170 139 192 139 c 128,-1,43
 214 139 214 139 236.5 149.5 c 128,-1,44
 259 160 259 160 280 184 c 0,45,46
 314 224 314 224 335.5 263 c 128,-1,47
 357 302 357 302 374 332 c 128,-1,48
 391 362 391 362 400 378 c 0,49,50
 427 424 427 424 449 448 c 1,51,52
 426 450 426 450 387.5 450 c 128,-1,53
 349 450 349 450 296.5 439 c 128,-1,54
 244 428 244 428 213 402.5 c 128,-1,55
 182 377 182 377 175 348 c 0,56,57
 174 341 174 341 174 329 c 128,-1,58
 174 317 174 317 186.5 303.5 c 128,-1,59
 199 290 199 290 220 290 c 0,60,61
 245 290 245 290 263 308 c 128,-1,62
 281 326 281 326 281.5 334 c 128,-1,63
 282 342 282 342 283 342 c 0,64,65
 287 342 287 342 285 328 c 128,-1,66
 283 314 283 314 270 303 c 0,67,68
 247 279 247 279 218.5 279 c 128,-1,69
 190 279 190 279 172 295.5 c 128,-1,70
 154 312 154 312 154 340 c 0,71,72
 154 381 154 381 194 414 c 128,-1,73
 234 447 234 447 291 455 c 128,-1,74
 348 463 348 463 387 463 c 128,-1,75
 426 463 426 463 458 458 c 1,76,77
 469 469 469 469 472 469 c 0,78,79
 476 469 476 469 473 456 c 1,80,81
 477 455 477 455 492 452.5 c 128,-1,82
 507 450 507 450 514 448 c 0,83,84
 582 428 582 428 582 387 c 0,85,86
 582 350 582 350 526 323 c 0,87,88
 474 299 474 299 406 299 c 1,89,90
 418 226 418 226 452 175 c 0,91,92
 473 143 473 143 491 143 c 0,93,94
 529 143 529 143 563 220 c 0,95,96
 568 228 568 228 570.5 226.5 c 128,-1,97
 573 225 573 225 571 220 c 0,98,99
 541 159 541 159 525 142.5 c 128,-1,100
 509 126 509 126 481 126 c 0,101,102
 438 126 438 126 412 171 c 0,103,104
 392 206 392 206 384 270 c 0,105,106
 382 286 382 286 382 287 c 1,107,108
 343 209 343 209 308 172 c 0,26,27
534 364 m 0,109,110
 547 383 547 383 547 398.5 c 128,-1,111
 547 414 547 414 535.5 423 c 128,-1,112
 524 432 524 432 513 435.5 c 128,-1,113
 502 439 502 439 476 443 c 1,114,115
 427 361 427 361 404 312 c 1,116,-1
 452 317 l 2,117,118
 505 324 505 324 534 364 c 0,109,110
EndSplineSet
EndChar

StartChar: macron
Encoding: 110 175 113
Width: 485
GlyphClass: 2
Flags: W
LayerCount: 2
Fore
SplineSet
409 441 m 1,0,-1
 397 411 l 1,1,-1
 183 411 l 1,2,-1
 196 441 l 1,3,-1
 409 441 l 1,0,-1
EndSplineSet
EndChar

StartChar: degree
Encoding: 111 176 114
Width: 323
GlyphClass: 2
Flags: W
LayerCount: 2
Fore
SplineSet
208 733 m 128,-1,1
 227 714 227 714 227 687.5 c 128,-1,2
 227 661 227 661 208 642.5 c 128,-1,3
 189 624 189 624 161.5 624 c 128,-1,4
 134 624 134 624 116.5 642.5 c 128,-1,5
 99 661 99 661 99 687.5 c 128,-1,6
 99 714 99 714 118 733 c 128,-1,7
 137 752 137 752 163 752 c 128,-1,0
 189 752 189 752 208 733 c 128,-1,1
194 654 m 128,-1,9
 208 669 208 669 208 687.5 c 128,-1,10
 208 706 208 706 195 719.5 c 128,-1,11
 182 733 182 733 162.5 733 c 128,-1,12
 143 733 143 733 129.5 719.5 c 128,-1,13
 116 706 116 706 116 683 c 128,-1,14
 116 660 116 660 132 649.5 c 128,-1,15
 148 639 148 639 164 639 c 128,-1,8
 180 639 180 639 194 654 c 128,-1,9
EndSplineSet
EndChar

StartChar: plusminus
Encoding: 112 177 115
Width: 458
GlyphClass: 2
Flags: W
LayerCount: 2
Fore
SplineSet
165 291 m 2,0,-1
 304 288 l 1,1,2
 309 306 309 306 321 359 c 128,-1,3
 333 412 333 412 338 431 c 0,4,5
 345 454 345 454 360 454 c 0,6,7
 371 454 371 454 365.5 432 c 128,-1,8
 360 410 360 410 337 287 c 1,9,-1
 467 287 l 2,10,11
 478 287 478 287 481.5 282 c 128,-1,12
 485 277 485 277 485 273 c 0,13,14
 485 260 485 260 464 260 c 0,15,16
 463 260 463 260 331 254 c 1,17,18
 328 236 328 236 322 206 c 0,19,20
 309 131 309 131 308 117 c 0,21,22
 306 106 306 106 284 101 c 0,23,24
 278 100 278 100 273 100 c 0,25,26
 259 100 259 100 259 112 c 0,27,28
 259 117 259 117 295 252 c 1,29,30
 271 250 271 250 219.5 247.5 c 128,-1,31
 168 245 168 245 153 243 c 0,32,33
 143 242 143 242 142 262 c 0,34,35
 145 288 145 288 165 291 c 2,0,-1
149 70 m 2,36,-1
 409 62 l 2,37,38
 426 62 426 62 430 49 c 0,39,40
 430 47 430 47 430 45 c 0,41,42
 430 36 430 36 413 35 c 0,43,44
 260 35 260 35 149 22 c 0,45,46
 148 22 148 22 148 22 c 2,47,48
 142 22 142 22 137 31.5 c 128,-1,49
 132 41 132 41 132 49 c 0,50,51
 132 70 132 70 149 70 c 2,36,-1
EndSplineSet
EndChar

StartChar: twosuperior
Encoding: 113 178 116
Width: 317
GlyphClass: 2
Flags: W
LayerCount: 2
Fore
SplineSet
13 243 m 2,0,1
 4 240 4 240 -0.5 240 c 128,-1,2
 -5 240 -5 240 -5 243.5 c 128,-1,3
 -5 247 -5 247 -1 255 c 0,4,5
 2 257 2 257 47.5 294 c 128,-1,6
 93 331 93 331 106 344 c 0,7,8
 265 485 265 485 265 560 c 0,9,10
 265 580 265 580 254.5 587 c 128,-1,11
 244 594 244 594 230 590 c 0,12,13
 197 581 197 581 178 558.5 c 128,-1,14
 159 536 159 536 141 498 c 0,15,16
 135 484 135 484 126 488.5 c 128,-1,17
 117 493 117 493 120 502 c 0,18,19
 137 550 137 550 175 586 c 128,-1,20
 213 622 213 622 261 622 c 0,21,22
 290 622 290 622 308.5 607 c 128,-1,23
 327 592 327 592 327 567.5 c 128,-1,24
 327 543 327 543 305.5 511.5 c 128,-1,25
 284 480 284 480 242 440 c 0,26,27
 188 390 188 390 114 328 c 2,28,-1
 105 320 l 1,29,30
 116 309 116 309 137.5 299.5 c 128,-1,31
 159 290 159 290 174.5 290 c 128,-1,32
 190 290 190 290 214 304 c 128,-1,33
 238 318 238 318 250 332.5 c 128,-1,34
 262 347 262 347 266.5 343 c 128,-1,35
 271 339 271 339 261 322 c 0,36,37
 202 246 202 246 158 246 c 0,38,39
 103 246 103 246 57 277 c 1,40,-1
 13 243 l 2,0,1
EndSplineSet
EndChar

StartChar: threesuperior
Encoding: 114 179 117
Width: 298
GlyphClass: 2
Flags: W
LayerCount: 2
Fore
SplineSet
316 579 m 0,0,1
 316 513 316 513 197 464 c 1,2,3
 262 454 262 454 262 403 c 0,4,5
 262 344 262 344 200 293.5 c 128,-1,6
 138 243 138 243 68 243 c 0,7,8
 21 243 21 243 7 280 c 0,9,10
 4 287 4 287 4 292.5 c 128,-1,11
 4 298 4 298 17 293 c 1,12,13
 22 279 22 279 35.5 269 c 128,-1,14
 49 259 49 259 64 259 c 0,15,16
 119 259 119 259 163.5 309.5 c 128,-1,17
 208 360 208 360 208 410 c 0,18,19
 208 426 208 426 199.5 436.5 c 128,-1,20
 191 447 191 447 182 447 c 128,-1,21
 173 447 173 447 164.5 444.5 c 128,-1,22
 156 442 156 442 146 438 c 0,23,24
 112 427 112 427 111 438 c 0,25,26
 110 443 110 443 117 446 c 0,27,28
 162 455 162 455 208 492 c 128,-1,29
 254 529 254 529 254 575 c 0,30,31
 254 582 254 582 245.5 586.5 c 128,-1,32
 237 591 237 591 228 591 c 0,33,34
 191 591 191 591 149 543 c 0,35,36
 144 537 144 537 139 537.5 c 128,-1,37
 134 538 134 538 136 550 c 1,38,39
 196 624 196 624 259 624 c 0,40,41
 284 624 284 624 300 613 c 128,-1,42
 316 602 316 602 316 579 c 0,0,1
EndSplineSet
EndChar

StartChar: acute
Encoding: 115 180 118
Width: 267
GlyphClass: 2
Flags: W
LayerCount: 2
Fore
SplineSet
61 413 m 0,0,1
 60 413 60 413 57.5 414.5 c 128,-1,2
 55 416 55 416 55 419.5 c 128,-1,3
 55 423 55 423 57 426 c 128,-1,4
 59 429 59 429 85.5 449 c 128,-1,5
 112 469 112 469 143 490.5 c 128,-1,6
 174 512 174 512 188 522.5 c 128,-1,7
 202 533 202 533 215.5 533 c 128,-1,8
 229 533 229 533 239.5 528 c 128,-1,9
 250 523 250 523 250 515.5 c 128,-1,10
 250 508 250 508 247 502 c 0,11,12
 242 490 242 490 157 451.5 c 128,-1,13
 72 413 72 413 61 413 c 0,0,1
EndSplineSet
EndChar

StartChar: mu
Encoding: 116 181 119
Width: 324
GlyphClass: 2
Flags: W
LayerCount: 2
Fore
SplineSet
268 -8 m 0,0,1
 243 -8 243 -8 229.5 8 c 128,-1,2
 216 24 216 24 216 49.5 c 128,-1,3
 216 75 216 75 226 103 c 1,4,5
 201 62 201 62 167 28 c 128,-1,6
 133 -6 133 -6 100 -6 c 128,-1,7
 67 -6 67 -6 52 22 c 1,8,-1
 -77 -260 l 2,9,10
 -79 -263 -79 -263 -95.5 -263 c 128,-1,11
 -112 -263 -112 -263 -125 -257 c 0,12,13
 -129 -253 -129 -253 -129 -252 c 2,14,-1
 64 127 l 2,15,16
 71 140 71 140 88 175 c 128,-1,17
 105 210 105 210 114 228 c 0,18,19
 140 280 140 280 168 322 c 1,20,-1
 170 322 l 1,21,22
 177 317 177 317 186 317 c 0,23,24
 209 317 209 317 234 338 c 1,25,-1
 236 336 l 1,26,27
 218 316 218 316 190.5 265.5 c 128,-1,28
 163 215 163 215 141 180 c 0,29,30
 82 74 82 74 82 32 c 0,31,32
 82 5 82 5 107 5 c 0,33,34
 164 5 164 5 262 180 c 0,35,36
 314 272 314 272 339 328 c 1,37,-1
 341 328 l 1,38,39
 353 321 353 321 371 321 c 128,-1,40
 389 321 389 321 397 341 c 1,41,-1
 400 340 l 1,42,-1
 322 189 l 2,43,44
 253 61 253 61 253 22 c 0,45,46
 253 2 253 2 270 2 c 0,47,48
 295 2 295 2 326 36 c 0,49,50
 371 87 371 87 405 163 c 1,51,-1
 411 163 l 1,52,-1
 413 161 l 1,53,54
 337 -8 337 -8 268 -8 c 0,0,1
EndSplineSet
EndChar

StartChar: paragraph
Encoding: 117 182 120
Width: 403
GlyphClass: 2
Flags: W
LayerCount: 2
Fore
SplineSet
199 400 m 0,0,1
 185 418 185 418 185 445 c 128,-1,2
 185 472 185 472 199 510.5 c 128,-1,3
 213 549 213 549 248 585.5 c 128,-1,4
 283 622 283 622 325 638 c 128,-1,5
 367 654 367 654 432 654 c 2,6,-1
 604 654 l 1,7,-1
 586 604 l 1,8,-1
 566 604 l 1,9,-1
 345 0 l 1,10,-1
 278 0 l 1,11,-1
 499 604 l 1,12,-1
 450 604 l 1,13,-1
 229 0 l 1,14,-1
 162 0 l 1,15,-1
 295 363 l 1,16,17
 226 363 226 363 199 400 c 0,0,1
EndSplineSet
EndChar

StartChar: periodcentered
Encoding: 118 183 121
Width: 261
GlyphClass: 2
Flags: W
LayerCount: 2
Fore
SplineSet
159 191 m 128,-1,1
 142 191 142 191 133 201.5 c 128,-1,2
 124 212 124 212 124 220 c 0,3,4
 124 247 124 247 140 260 c 128,-1,5
 156 273 156 273 173 273 c 128,-1,6
 190 273 190 273 199 262.5 c 128,-1,7
 208 252 208 252 208 244 c 128,-1,8
 208 236 208 236 206 225.5 c 128,-1,9
 204 215 204 215 190 203 c 128,-1,0
 176 191 176 191 159 191 c 128,-1,1
EndSplineSet
EndChar

StartChar: cedilla
Encoding: 119 184 122
Width: 379
GlyphClass: 2
Flags: W
LayerCount: 2
Fore
SplineSet
288 -58 m 128,-1,1
 326 -77 326 -77 326 -116.5 c 128,-1,2
 326 -156 326 -156 274 -191 c 0,3,4
 248 -208 248 -208 206.5 -208 c 128,-1,5
 165 -208 165 -208 118.5 -196.5 c 128,-1,6
 72 -185 72 -185 72 -162 c 0,7,8
 72 -155 72 -155 77 -155 c 128,-1,9
 82 -155 82 -155 93 -166 c 0,10,11
 117 -191 117 -191 184.5 -191 c 128,-1,12
 252 -191 252 -191 275 -155 c 0,13,14
 289 -134 289 -134 289 -110.5 c 128,-1,15
 289 -87 289 -87 266 -72 c 128,-1,16
 243 -57 243 -57 217.5 -57 c 128,-1,17
 192 -57 192 -57 168 -69 c 128,-1,18
 144 -81 144 -81 139.5 -81 c 128,-1,19
 135 -81 135 -81 129 -76.5 c 128,-1,20
 123 -72 123 -72 123 -66.5 c 128,-1,21
 123 -61 123 -61 128 -56 c 128,-1,22
 133 -51 133 -51 167 -25 c 128,-1,23
 201 1 201 1 205 1 c 128,-1,24
 209 1 209 1 212 -7 c 0,25,26
 211 -8 211 -8 198 -16 c 0,27,28
 168 -37 168 -37 168 -42 c 1,29,30
 188 -39 188 -39 219 -39 c 128,-1,0
 250 -39 250 -39 288 -58 c 128,-1,1
EndSplineSet
EndChar

StartChar: onesuperior
Encoding: 120 185 123
Width: 246
GlyphClass: 2
Flags: W
LayerCount: 2
Fore
SplineSet
211 594 m 0,0,1
 229 615 229 615 241.5 616 c 128,-1,2
 254 617 254 617 260 617 c 128,-1,3
 266 617 266 617 266 612.5 c 128,-1,4
 266 608 266 608 265 601 c 0,5,6
 233 543 233 543 175.5 427.5 c 128,-1,7
 118 312 118 312 87 256 c 0,8,9
 79 244 79 244 49 244 c 0,10,11
 32 244 32 244 32 250 c 2,12,-1
 181 527 l 1,13,14
 171 519 171 519 143.5 503 c 128,-1,15
 116 487 116 487 104 478 c 0,16,17
 86 468 86 468 84.5 472 c 128,-1,18
 83 476 83 476 93 487 c 2,19,-1
 109 499 l 2,20,21
 137 520 137 520 211 594 c 0,0,1
EndSplineSet
EndChar

StartChar: ordmasculine
Encoding: 121 186 124
Width: 273
GlyphClass: 2
Flags: W
LayerCount: 2
Fore
SplineSet
95 427 m 0,0,1
 94 427 94 427 93 427 c 0,2,3
 75 427 75 427 66.5 440 c 128,-1,4
 58 453 58 453 58 472.5 c 128,-1,5
 58 492 58 492 70.5 522.5 c 128,-1,6
 83 553 83 553 110.5 577.5 c 128,-1,7
 138 602 138 602 162 602 c 0,8,9
 163 602 163 602 164 602 c 0,10,11
 182 602 182 602 190.5 588.5 c 128,-1,12
 199 575 199 575 199 555 c 128,-1,13
 199 535 199 535 187 506.5 c 128,-1,14
 175 478 175 478 146 452 c 1,15,16
 152 440 152 440 164.5 440 c 128,-1,17
 177 440 177 440 184.5 443.5 c 128,-1,18
 192 447 192 447 198.5 454.5 c 128,-1,19
 205 462 205 462 210.5 468.5 c 128,-1,20
 216 475 216 475 221 485.5 c 128,-1,21
 226 496 226 496 229 501.5 c 128,-1,22
 232 507 232 507 240 525 c 0,23,24
 242 529 242 529 244.5 527.5 c 128,-1,25
 247 526 247 526 247 524 c 128,-1,26
 247 522 247 522 246 520 c 0,27,28
 220 459 220 459 200 445 c 0,29,30
 160 417 160 417 137 444 c 1,31,32
 115 427 115 427 95 427 c 0,0,1
155 476 m 1,33,34
 186 525 186 525 186 555.5 c 128,-1,35
 186 586 186 586 169 586 c 0,36,37
 156 586 156 586 137 568 c 128,-1,38
 118 550 118 550 101 514.5 c 128,-1,39
 84 479 84 479 84 458.5 c 128,-1,40
 84 438 84 438 102 438 c 0,41,42
 116 438 116 438 131 450 c 1,43,44
 123 463 123 463 123 475 c 0,45,46
 125 496 125 496 140.5 496 c 128,-1,47
 156 496 156 496 156 482 c 0,48,49
 156 481 156 481 155.5 479 c 128,-1,50
 155 477 155 477 155 476 c 1,33,34
EndSplineSet
EndChar

StartChar: guillemotright
Encoding: 122 187 125
Width: 451
GlyphClass: 2
Flags: W
LayerCount: 2
Fore
SplineSet
334 158 m 1,0,-1
 333 224 l 2,1,2
 333 292 333 292 339 303 c 1,3,-1
 347 307 l 1,4,-1
 355 303 l 2,5,6
 362 296 362 296 377.5 224 c 128,-1,7
 393 152 393 152 393 150 c 2,8,-1
 188 22 l 1,9,-1
 180 21 l 1,10,-1
 173 23 l 1,11,-1
 173 32 l 1,12,13
 186 54 186 54 286 124 c 0,14,15
 326 152 326 152 334 158 c 1,0,-1
248 150 m 1,16,-1
 43 22 l 1,17,-1
 36 21 l 2,18,19
 32 21 32 21 28 23 c 2,20,-1
 27 27 l 2,21,22
 27 37 27 37 50 55 c 128,-1,23
 73 73 73 73 89.5 86 c 128,-1,24
 106 99 106 99 123.5 112 c 128,-1,25
 141 125 141 125 155 134.5 c 128,-1,26
 169 144 169 144 179 151 c 2,27,-1
 189 158 l 1,28,-1
 190 294 l 2,29,30
 191 295 191 295 192.5 298.5 c 128,-1,31
 194 302 194 302 195 303 c 2,32,-1
 203 307 l 1,33,-1
 212 303 l 1,34,35
 227 263 227 263 236 214 c 128,-1,36
 245 165 245 165 248 150 c 1,16,-1
EndSplineSet
EndChar

StartChar: onequarter
Encoding: 123 188 126
Width: 622
GlyphClass: 2
Flags: W
LayerCount: 2
Fore
SplineSet
528 340 m 0,0,1
 542 363 542 363 593 363 c 0,2,3
 606 363 606 363 612 357 c 1,4,5
 611 343 611 343 424 183 c 0,6,7
 398 162 398 162 381 140 c 1,8,-1
 502 143 l 1,9,10
 514 168 514 168 540 218 c 1,11,12
 554 233 554 233 578 235.5 c 128,-1,13
 602 238 602 238 600 228 c 0,14,15
 600 225 600 225 598 222 c 0,16,17
 598 215 598 215 560 145 c 1,18,-1
 565 145 l 2,19,20
 582 142 582 142 583 139 c 128,-1,21
 584 136 584 136 583 134 c 128,-1,22
 582 132 582 132 580 130 c 0,23,24
 577 127 577 127 561 120 c 1,25,-1
 546 120 l 1,26,-1
 488 7 l 2,27,28
 483 2 483 2 467.5 -1 c 128,-1,29
 452 -4 452 -4 443 -4 c 128,-1,30
 434 -4 434 -4 425 -1 c 0,31,32
 425 1 425 1 454 55.5 c 128,-1,33
 483 110 483 110 487 117 c 1,34,-1
 340 114 l 1,35,-1
 344 133 l 1,36,37
 367 161 367 161 401 194 c 2,38,-1
 442 237 l 1,39,40
 507 311 507 311 528 340 c 0,0,1
545 606 m 0,41,42
 555 618 555 618 574 618 c 128,-1,43
 593 618 593 618 593 609 c 0,44,45
 593 605 593 605 587 597.5 c 128,-1,46
 581 590 581 590 538.5 537 c 128,-1,47
 496 484 496 484 462.5 442 c 128,-1,48
 429 400 429 400 377.5 336 c 128,-1,49
 326 272 326 272 284 222 c 128,-1,50
 242 172 242 172 200 123 c 0,51,52
 87 -6 87 -6 64 -6 c 0,53,54
 61 -6 61 -6 58.5 -3.5 c 128,-1,55
 56 -1 56 -1 65 9 c 0,56,57
 145 100 145 100 323 322.5 c 128,-1,58
 501 545 501 545 545 606 c 0,41,42
211 594 m 0,59,60
 229 615 229 615 241.5 616 c 128,-1,61
 254 617 254 617 260 617 c 128,-1,62
 266 617 266 617 266 612.5 c 128,-1,63
 266 608 266 608 265 601 c 0,64,65
 233 543 233 543 175.5 427.5 c 128,-1,66
 118 312 118 312 87 256 c 0,67,68
 79 244 79 244 49 244 c 0,69,70
 32 244 32 244 32 250 c 2,71,-1
 181 527 l 1,72,73
 171 519 171 519 143.5 503 c 128,-1,74
 116 487 116 487 104 478 c 0,75,76
 86 468 86 468 84.5 472 c 128,-1,77
 83 476 83 476 93 487 c 2,78,-1
 109 499 l 2,79,80
 137 520 137 520 211 594 c 0,59,60
EndSplineSet
EndChar

StartChar: onehalf
Encoding: 124 189 127
Width: 622
GlyphClass: 2
Flags: W
LayerCount: 2
Fore
SplineSet
515 606 m 0,0,1
 525 618 525 618 535.5 618 c 128,-1,2
 546 618 546 618 551 617 c 0,3,4
 569 613 569 613 560 601.5 c 128,-1,5
 551 590 551 590 508.5 537 c 128,-1,6
 466 484 466 484 432.5 442 c 128,-1,7
 399 400 399 400 347.5 336 c 128,-1,8
 296 272 296 272 254 222 c 128,-1,9
 212 172 212 172 170 123 c 0,10,11
 45 -20 45 -20 30 -5 c 0,12,13
 29 -4 29 -4 29 -1 c 128,-1,14
 29 2 29 2 72 51 c 128,-1,15
 115 100 115 100 293 322.5 c 128,-1,16
 471 545 471 545 515 606 c 0,0,1
259 617 m 128,-1,18
 264 617 264 617 266 615.5 c 128,-1,19
 268 614 268 614 265 601 c 0,20,21
 233 543 233 543 175.5 427.5 c 128,-1,22
 118 312 118 312 87 256 c 0,23,24
 83 250 83 250 69 246.5 c 128,-1,25
 55 243 55 243 43.5 244 c 128,-1,26
 32 245 32 245 32 250 c 2,27,-1
 181 527 l 1,28,29
 171 519 171 519 143.5 503 c 128,-1,30
 116 487 116 487 104 478 c 0,31,32
 86 468 86 468 84.5 472 c 128,-1,33
 83 476 83 476 93 487 c 2,34,-1
 109 499 l 2,35,36
 137 520 137 520 211 594 c 0,37,38
 229 615 229 615 241.5 616 c 128,-1,17
 254 617 254 617 259 617 c 128,-1,18
304 -7 m 2,39,40
 295 -10 295 -10 290.5 -10 c 128,-1,41
 286 -10 286 -10 286 -6.5 c 128,-1,42
 286 -3 286 -3 290 5 c 0,43,44
 293 7 293 7 338.5 44 c 128,-1,45
 384 81 384 81 397 94 c 0,46,47
 556 235 556 235 556 310 c 0,48,49
 556 330 556 330 545.5 337 c 128,-1,50
 535 344 535 344 520 340 c 0,51,52
 488 331 488 331 469 308.5 c 128,-1,53
 450 286 450 286 432 248 c 0,54,55
 426 234 426 234 417 238.5 c 128,-1,56
 408 243 408 243 411 252 c 0,57,58
 428 300 428 300 466 336 c 128,-1,59
 504 372 504 372 552 372 c 0,60,61
 581 372 581 372 599.5 357 c 128,-1,62
 618 342 618 342 618 317.5 c 128,-1,63
 618 293 618 293 596.5 261.5 c 128,-1,64
 575 230 575 230 532 190 c 0,65,66
 479 140 479 140 405 78 c 2,67,-1
 396 70 l 1,68,69
 407 59 407 59 428.5 49.5 c 128,-1,70
 450 40 450 40 465.5 40 c 128,-1,71
 481 40 481 40 505 54 c 128,-1,72
 529 68 529 68 541 82.5 c 128,-1,73
 553 97 553 97 557.5 93 c 128,-1,74
 562 89 562 89 552 72 c 0,75,76
 493 -4 493 -4 449 -4 c 0,77,78
 394 -4 394 -4 348 27 c 1,79,-1
 304 -7 l 2,39,40
EndSplineSet
EndChar

StartChar: threequarters
Encoding: 125 190 128
Width: 622
GlyphClass: 2
Flags: W
LayerCount: 2
Fore
SplineSet
528 340 m 0,0,1
 542 363 542 363 593 363 c 0,2,3
 606 363 606 363 612 357 c 1,4,5
 611 343 611 343 424 183 c 0,6,7
 398 162 398 162 381 140 c 1,8,-1
 502 143 l 1,9,10
 514 168 514 168 540 218 c 1,11,12
 554 233 554 233 578 235.5 c 128,-1,13
 602 238 602 238 600 228 c 0,14,15
 600 225 600 225 598 222 c 0,16,17
 598 215 598 215 560 145 c 1,18,-1
 565 145 l 2,19,20
 582 142 582 142 583 139 c 128,-1,21
 584 136 584 136 583 134 c 128,-1,22
 582 132 582 132 580 130 c 0,23,24
 577 127 577 127 561 120 c 1,25,-1
 546 120 l 1,26,-1
 488 7 l 2,27,28
 483 2 483 2 467.5 -1 c 128,-1,29
 452 -4 452 -4 443 -4 c 128,-1,30
 434 -4 434 -4 425 -1 c 0,31,32
 425 1 425 1 454 55.5 c 128,-1,33
 483 110 483 110 487 117 c 1,34,-1
 340 114 l 1,35,-1
 344 133 l 1,36,37
 367 161 367 161 401 194 c 2,38,-1
 442 237 l 1,39,40
 507 311 507 311 528 340 c 0,0,1
316 579 m 0,41,42
 316 513 316 513 197 464 c 1,43,44
 262 454 262 454 262 403 c 0,45,46
 262 344 262 344 200 293.5 c 128,-1,47
 138 243 138 243 68 243 c 0,48,49
 21 243 21 243 7 280 c 0,50,51
 4 287 4 287 4 292.5 c 128,-1,52
 4 298 4 298 17 293 c 1,53,54
 22 279 22 279 35.5 269 c 128,-1,55
 49 259 49 259 64 259 c 0,56,57
 119 259 119 259 163.5 309.5 c 128,-1,58
 208 360 208 360 208 410 c 0,59,60
 208 426 208 426 199.5 436.5 c 128,-1,61
 191 447 191 447 182 447 c 128,-1,62
 173 447 173 447 164.5 444.5 c 128,-1,63
 156 442 156 442 146 438 c 0,64,65
 112 427 112 427 111 438 c 0,66,67
 110 443 110 443 117 446 c 0,68,69
 162 455 162 455 208 492 c 128,-1,70
 254 529 254 529 254 575 c 0,71,72
 254 582 254 582 245.5 586.5 c 128,-1,73
 237 591 237 591 228 591 c 0,74,75
 191 591 191 591 149 543 c 0,76,77
 144 537 144 537 139 537.5 c 128,-1,78
 134 538 134 538 136 550 c 1,79,80
 196 624 196 624 259 624 c 0,81,82
 284 624 284 624 300 613 c 128,-1,83
 316 602 316 602 316 579 c 0,41,42
125 42 m 128,-1,85
 93 10 93 10 80.5 2 c 128,-1,86
 68 -6 68 -6 63.5 -6 c 128,-1,87
 59 -6 59 -6 59 -2 c 128,-1,88
 59 2 59 2 65 9 c 0,89,90
 145 100 145 100 323 322.5 c 128,-1,91
 501 545 501 545 545 606 c 0,92,93
 555 618 555 618 574 618 c 128,-1,94
 593 618 593 618 593 609 c 0,95,96
 593 605 593 605 587 597.5 c 128,-1,97
 581 590 581 590 538.5 537 c 128,-1,98
 496 484 496 484 462.5 442 c 128,-1,99
 429 400 429 400 377.5 336 c 128,-1,100
 326 272 326 272 284 222 c 128,-1,101
 242 172 242 172 199.5 123 c 128,-1,84
 157 74 157 74 125 42 c 128,-1,85
EndSplineSet
EndChar

StartChar: questiondown
Encoding: 126 191 129
Width: 396
GlyphClass: 2
Flags: W
LayerCount: 2
Fore
SplineSet
114 -147 m 0,0,1
 78 -193 78 -193 78 -230 c 0,2,3
 78 -260 78 -260 112 -276 c 0,4,5
 127 -282 127 -282 140 -282 c 128,-1,6
 153 -282 153 -282 170 -280.5 c 128,-1,7
 187 -279 187 -279 213 -266 c 128,-1,8
 239 -253 239 -253 255 -234.5 c 128,-1,9
 271 -216 271 -216 271 -201 c 0,10,11
 271 -198 271 -198 271 -196 c 1,12,13
 266 -215 266 -215 236 -232 c 0,14,15
 219 -240 219 -240 208 -240 c 128,-1,16
 197 -240 197 -240 190 -236 c 0,17,18
 173 -227 173 -227 173 -202 c 128,-1,19
 173 -177 173 -177 195 -160 c 128,-1,20
 217 -143 217 -143 239 -143 c 0,21,22
 273 -143 273 -143 284 -171 c 0,23,24
 289 -181 289 -181 289 -195 c 128,-1,25
 289 -209 289 -209 282 -229 c 0,26,27
 268 -260 268 -260 218 -289 c 0,28,29
 153 -327 153 -327 100 -327 c 0,30,31
 39 -327 39 -327 13 -282 c 0,32,33
 6 -269 6 -269 6 -253 c 0,34,35
 6 -197 6 -197 72 -122 c 0,36,37
 95 -96 95 -96 151 -41.5 c 128,-1,38
 207 13 207 13 240 57 c 128,-1,39
 273 101 273 101 296 162 c 0,40,41
 300 171 300 171 308.5 168 c 128,-1,42
 317 165 317 165 315 155 c 0,43,44
 307 120 307 120 281 75 c 128,-1,45
 255 30 255 30 237 5.5 c 128,-1,46
 219 -19 219 -19 170 -78.5 c 128,-1,47
 121 -138 121 -138 114 -147 c 0,0,1
342 336 m 128,-1,49
 359 336 359 336 368 325.5 c 128,-1,50
 377 315 377 315 377 307 c 0,51,52
 377 280 377 280 361 267 c 128,-1,53
 345 254 345 254 328 254 c 128,-1,54
 311 254 311 254 302 264.5 c 128,-1,55
 293 275 293 275 293 283 c 128,-1,56
 293 291 293 291 295 301.5 c 128,-1,57
 297 312 297 312 311 324 c 128,-1,48
 325 336 325 336 342 336 c 128,-1,49
EndSplineSet
EndChar

StartChar: Agrave
Encoding: 127 192 130
Width: 712
GlyphClass: 2
Flags: W
LayerCount: 2
Fore
SplineSet
632 405 m 0,0,1
 654 405 654 405 654 379 c 0,2,3
 654 351 654 351 631 325 c 0,4,5
 560 247 560 247 531 90 c 0,6,7
 525 57 525 57 525 27.5 c 128,-1,8
 525 -2 525 -2 537.5 -18 c 128,-1,9
 550 -34 550 -34 566 -34 c 0,10,11
 614 -34 614 -34 678 44 c 0,12,13
 735 117 735 117 765 186 c 0,14,15
 773 202 773 202 781 200 c 128,-1,16
 789 198 789 198 782 182 c 0,17,18
 741 91 741 91 689 22 c 0,19,20
 662 -15 662 -15 622 -39.5 c 128,-1,21
 582 -64 582 -64 542.5 -64 c 128,-1,22
 503 -64 503 -64 483 -32.5 c 128,-1,23
 463 -1 463 -1 463 42 c 128,-1,24
 463 85 463 85 473.5 127 c 128,-1,25
 484 169 484 169 501 192 c 1,26,27
 400 71 400 71 286 -2 c 0,28,29
 226 -39 226 -39 153 -46 c 0,30,31
 146 -47 146 -47 129.5 -47 c 128,-1,32
 113 -47 113 -47 90 -35 c 0,33,34
 21 -6 21 -6 21 102 c 0,35,36
 21 198 21 198 88 332 c 0,37,38
 127 408 127 408 176 461 c 1,39,40
 112 491 112 491 82 525 c 0,41,42
 59 549 59 549 59 584 c 128,-1,43
 59 619 59 619 73 629 c 1,44,45
 83 642 83 642 91 632 c 0,46,47
 95 624 95 624 90 612 c 128,-1,48
 85 600 85 600 85 589 c 0,49,50
 85 565 85 565 110 539 c 0,51,52
 143 503 143 503 193 481 c 1,53,54
 288 584 288 584 406.5 645.5 c 128,-1,55
 525 707 525 707 655 707 c 0,56,57
 730 707 730 707 773.5 674.5 c 128,-1,58
 817 642 817 642 817 586 c 128,-1,59
 817 530 817 530 746 475 c 0,60,61
 652 403 652 403 445 403 c 0,62,63
 330 403 330 403 235 434 c 1,64,65
 211 412 211 412 169 346 c 128,-1,66
 127 280 127 280 98.5 209 c 128,-1,67
 70 138 70 138 70 86 c 0,68,69
 70 75 70 75 71 66 c 0,70,71
 83 -17 83 -17 155 -17 c 0,72,73
 236 -17 236 -17 343 71 c 0,74,75
 493 197 493 197 577 351 c 0,76,77
 607 405 607 405 632 405 c 0,0,1
778 601 m 0,78,79
 778 640 778 640 745 661.5 c 128,-1,80
 712 683 712 683 658 683 c 0,81,82
 537 683 537 683 439 621 c 128,-1,83
 341 559 341 559 250 452 c 1,84,85
 334 426 334 426 443 426 c 0,86,87
 621 426 621 426 710 486 c 0,88,89
 778 532 778 532 778 601 c 0,78,79
750 734 m 0,90,91
 750 725 750 725 741 725 c 0,92,93
 734 725 734 725 676 755.5 c 128,-1,94
 618 786 618 786 612 789 c 0,95,96
 577 805 577 805 577 830 c 0,97,98
 577 838 577 838 582.5 844 c 128,-1,99
 588 850 588 850 597.5 850 c 128,-1,100
 607 850 607 850 678.5 794.5 c 128,-1,101
 750 739 750 739 750 734 c 0,90,91
EndSplineSet
EndChar

StartChar: Aacute
Encoding: 128 193 131
Width: 712
GlyphClass: 2
Flags: W
LayerCount: 2
Fore
SplineSet
796 836 m 0,0,1
 816 850 816 850 828 850 c 128,-1,2
 840 850 840 850 849.5 845.5 c 128,-1,3
 859 841 859 841 859 834.5 c 128,-1,4
 859 828 859 828 855 820 c 128,-1,5
 851 812 851 812 775.5 777.5 c 128,-1,6
 700 743 700 743 694.5 743 c 128,-1,7
 689 743 689 743 689 743 c 1,8,9
 682 747 682 747 686 755 c 0,10,11
 690 761 690 761 740.5 796 c 128,-1,12
 791 831 791 831 796 836 c 0,0,1
632 405 m 0,13,14
 654 405 654 405 654 379 c 0,15,16
 654 351 654 351 631 325 c 0,17,18
 560 247 560 247 531 90 c 0,19,20
 525 57 525 57 525 27.5 c 128,-1,21
 525 -2 525 -2 537.5 -18 c 128,-1,22
 550 -34 550 -34 566 -34 c 0,23,24
 614 -34 614 -34 678 44 c 0,25,26
 735 117 735 117 765 186 c 0,27,28
 773 202 773 202 781 200 c 128,-1,29
 789 198 789 198 782 182 c 0,30,31
 741 91 741 91 689 22 c 0,32,33
 662 -15 662 -15 622 -39.5 c 128,-1,34
 582 -64 582 -64 542.5 -64 c 128,-1,35
 503 -64 503 -64 483 -32.5 c 128,-1,36
 463 -1 463 -1 463 42 c 128,-1,37
 463 85 463 85 473.5 127 c 128,-1,38
 484 169 484 169 501 192 c 1,39,40
 400 71 400 71 286 -2 c 0,41,42
 226 -39 226 -39 153 -46 c 0,43,44
 146 -47 146 -47 129.5 -47 c 128,-1,45
 113 -47 113 -47 90 -35 c 0,46,47
 21 -6 21 -6 21 102 c 0,48,49
 21 198 21 198 88 332 c 0,50,51
 127 408 127 408 176 461 c 1,52,53
 112 491 112 491 82 525 c 0,54,55
 59 549 59 549 59 584 c 128,-1,56
 59 619 59 619 73 629 c 1,57,58
 83 642 83 642 91 632 c 0,59,60
 95 624 95 624 90 612 c 128,-1,61
 85 600 85 600 85 589 c 0,62,63
 85 565 85 565 110 539 c 0,64,65
 143 503 143 503 193 481 c 1,66,67
 288 584 288 584 406.5 645.5 c 128,-1,68
 525 707 525 707 655 707 c 0,69,70
 730 707 730 707 773.5 674.5 c 128,-1,71
 817 642 817 642 817 586 c 128,-1,72
 817 530 817 530 746 475 c 0,73,74
 652 403 652 403 445 403 c 0,75,76
 330 403 330 403 235 434 c 1,77,78
 211 412 211 412 169 346 c 128,-1,79
 127 280 127 280 98.5 209 c 128,-1,80
 70 138 70 138 70 86 c 0,81,82
 70 75 70 75 71 66 c 0,83,84
 83 -17 83 -17 155 -17 c 0,85,86
 236 -17 236 -17 343 71 c 0,87,88
 493 197 493 197 577 351 c 0,89,90
 607 405 607 405 632 405 c 0,13,14
778 601 m 0,91,92
 778 640 778 640 745 661.5 c 128,-1,93
 712 683 712 683 658 683 c 0,94,95
 537 683 537 683 439 621 c 128,-1,96
 341 559 341 559 250 452 c 1,97,98
 334 426 334 426 443 426 c 0,99,100
 621 426 621 426 710 486 c 0,101,102
 778 532 778 532 778 601 c 0,91,92
EndSplineSet
EndChar

StartChar: Acircumflex
Encoding: 129 194 132
Width: 712
GlyphClass: 2
Flags: W
LayerCount: 2
Fore
SplineSet
739 850 m 128,-1,1
 748 850 748 850 749 847 c 2,2,-1
 785 741 l 2,3,4
 788 735 788 735 779 735 c 0,5,6
 769 735 769 735 765 741 c 2,7,-1
 719 812 l 1,8,9
 600 748 600 748 587 741 c 0,10,11
 577 732 577 732 563 736 c 0,12,13
 558 738 558 738 562 741 c 2,14,-1
 711 847 l 1,15,0
 730 850 730 850 739 850 c 128,-1,1
632 405 m 0,16,17
 654 405 654 405 654 379 c 0,18,19
 654 351 654 351 631 325 c 0,20,21
 560 247 560 247 531 90 c 0,22,23
 525 57 525 57 525 27.5 c 128,-1,24
 525 -2 525 -2 537.5 -18 c 128,-1,25
 550 -34 550 -34 566 -34 c 0,26,27
 614 -34 614 -34 678 44 c 0,28,29
 735 117 735 117 765 186 c 0,30,31
 773 202 773 202 781 200 c 128,-1,32
 789 198 789 198 782 182 c 0,33,34
 741 91 741 91 689 22 c 0,35,36
 662 -15 662 -15 622 -39.5 c 128,-1,37
 582 -64 582 -64 542.5 -64 c 128,-1,38
 503 -64 503 -64 483 -32.5 c 128,-1,39
 463 -1 463 -1 463 42 c 128,-1,40
 463 85 463 85 473.5 127 c 128,-1,41
 484 169 484 169 501 192 c 1,42,43
 400 71 400 71 286 -2 c 0,44,45
 226 -39 226 -39 153 -46 c 0,46,47
 146 -47 146 -47 129.5 -47 c 128,-1,48
 113 -47 113 -47 90 -35 c 0,49,50
 21 -6 21 -6 21 102 c 0,51,52
 21 198 21 198 88 332 c 0,53,54
 127 408 127 408 176 461 c 1,55,56
 112 491 112 491 82 525 c 0,57,58
 59 549 59 549 59 584 c 128,-1,59
 59 619 59 619 73 629 c 1,60,61
 83 642 83 642 91 632 c 0,62,63
 95 624 95 624 90 612 c 128,-1,64
 85 600 85 600 85 589 c 0,65,66
 85 565 85 565 110 539 c 0,67,68
 143 503 143 503 193 481 c 1,69,70
 288 584 288 584 406.5 645.5 c 128,-1,71
 525 707 525 707 655 707 c 0,72,73
 730 707 730 707 773.5 674.5 c 128,-1,74
 817 642 817 642 817 586 c 128,-1,75
 817 530 817 530 746 475 c 0,76,77
 652 403 652 403 445 403 c 0,78,79
 330 403 330 403 235 434 c 1,80,81
 211 412 211 412 169 346 c 128,-1,82
 127 280 127 280 98.5 209 c 128,-1,83
 70 138 70 138 70 86 c 0,84,85
 70 75 70 75 71 66 c 0,86,87
 83 -17 83 -17 155 -17 c 0,88,89
 236 -17 236 -17 343 71 c 0,90,91
 493 197 493 197 577 351 c 0,92,93
 607 405 607 405 632 405 c 0,16,17
778 601 m 0,94,95
 778 640 778 640 745 661.5 c 128,-1,96
 712 683 712 683 658 683 c 0,97,98
 537 683 537 683 439 621 c 128,-1,99
 341 559 341 559 250 452 c 1,100,101
 334 426 334 426 443 426 c 0,102,103
 621 426 621 426 710 486 c 0,104,105
 778 532 778 532 778 601 c 0,94,95
EndSplineSet
EndChar

StartChar: Atilde
Encoding: 130 195 133
Width: 712
GlyphClass: 2
Flags: W
LayerCount: 2
Fore
SplineSet
775 765 m 0,0,1
 753 765 753 765 711 783 c 0,2,3
 664 804 664 804 639 804 c 128,-1,4
 614 804 614 804 596 771 c 0,5,6
 594 764 594 764 578 769 c 0,7,8
 573 771 573 771 573 773 c 0,9,10
 615 848 615 848 665 848 c 0,11,12
 688 848 688 848 730 830.5 c 128,-1,13
 772 813 772 813 783.5 812.5 c 128,-1,14
 795 812 795 812 799 812 c 0,15,16
 830 812 830 812 847 847 c 0,17,18
 848 850 848 850 853 850 c 0,19,20
 866 850 866 850 868 845 c 0,21,22
 829 765 829 765 775 765 c 0,0,1
632 405 m 0,23,24
 654 405 654 405 654 379 c 0,25,26
 654 351 654 351 631 325 c 0,27,28
 560 247 560 247 531 90 c 0,29,30
 525 57 525 57 525 27.5 c 128,-1,31
 525 -2 525 -2 537.5 -18 c 128,-1,32
 550 -34 550 -34 566 -34 c 0,33,34
 614 -34 614 -34 678 44 c 0,35,36
 735 117 735 117 765 186 c 0,37,38
 773 202 773 202 781 200 c 128,-1,39
 789 198 789 198 782 182 c 0,40,41
 741 91 741 91 689 22 c 0,42,43
 662 -15 662 -15 622 -39.5 c 128,-1,44
 582 -64 582 -64 542.5 -64 c 128,-1,45
 503 -64 503 -64 483 -32.5 c 128,-1,46
 463 -1 463 -1 463 42 c 128,-1,47
 463 85 463 85 473.5 127 c 128,-1,48
 484 169 484 169 501 192 c 1,49,50
 400 71 400 71 286 -2 c 0,51,52
 226 -39 226 -39 153 -46 c 0,53,54
 146 -47 146 -47 129.5 -47 c 128,-1,55
 113 -47 113 -47 90 -35 c 0,56,57
 21 -6 21 -6 21 102 c 0,58,59
 21 198 21 198 88 332 c 0,60,61
 127 408 127 408 176 461 c 1,62,63
 112 491 112 491 82 525 c 0,64,65
 59 549 59 549 59 584 c 128,-1,66
 59 619 59 619 73 629 c 1,67,68
 83 642 83 642 91 632 c 0,69,70
 95 624 95 624 90 612 c 128,-1,71
 85 600 85 600 85 589 c 0,72,73
 85 565 85 565 110 539 c 0,74,75
 143 503 143 503 193 481 c 1,76,77
 288 584 288 584 406.5 645.5 c 128,-1,78
 525 707 525 707 655 707 c 0,79,80
 730 707 730 707 773.5 674.5 c 128,-1,81
 817 642 817 642 817 586 c 128,-1,82
 817 530 817 530 746 475 c 0,83,84
 652 403 652 403 445 403 c 0,85,86
 330 403 330 403 235 434 c 1,87,88
 211 412 211 412 169 346 c 128,-1,89
 127 280 127 280 98.5 209 c 128,-1,90
 70 138 70 138 70 86 c 0,91,92
 70 75 70 75 71 66 c 0,93,94
 83 -17 83 -17 155 -17 c 0,95,96
 236 -17 236 -17 343 71 c 0,97,98
 493 197 493 197 577 351 c 0,99,100
 607 405 607 405 632 405 c 0,23,24
778 601 m 0,101,102
 778 640 778 640 745 661.5 c 128,-1,103
 712 683 712 683 658 683 c 0,104,105
 537 683 537 683 439 621 c 128,-1,106
 341 559 341 559 250 452 c 1,107,108
 334 426 334 426 443 426 c 0,109,110
 621 426 621 426 710 486 c 0,111,112
 778 532 778 532 778 601 c 0,101,102
EndSplineSet
EndChar

StartChar: Adieresis
Encoding: 131 196 134
Width: 712
GlyphClass: 2
Flags: W
LayerCount: 2
Fore
SplineSet
827.5 841 m 128,-1,1
 837 832 837 832 837 817.5 c 128,-1,2
 837 803 837 803 828 793.5 c 128,-1,3
 819 784 819 784 804.5 784 c 128,-1,4
 790 784 790 784 780.5 793 c 128,-1,5
 771 802 771 802 771 816.5 c 128,-1,6
 771 831 771 831 780 840.5 c 128,-1,7
 789 850 789 850 803.5 850 c 128,-1,0
 818 850 818 850 827.5 841 c 128,-1,1
698.5 841 m 128,-1,9
 708 832 708 832 708 817.5 c 128,-1,10
 708 803 708 803 699 793.5 c 128,-1,11
 690 784 690 784 675.5 784 c 128,-1,12
 661 784 661 784 651.5 793 c 128,-1,13
 642 802 642 802 642 816.5 c 128,-1,14
 642 831 642 831 651 840.5 c 128,-1,15
 660 850 660 850 674.5 850 c 128,-1,8
 689 850 689 850 698.5 841 c 128,-1,9
632 405 m 0,16,17
 654 405 654 405 654 379 c 0,18,19
 654 351 654 351 631 325 c 0,20,21
 560 247 560 247 531 90 c 0,22,23
 525 57 525 57 525 27.5 c 128,-1,24
 525 -2 525 -2 537.5 -18 c 128,-1,25
 550 -34 550 -34 566 -34 c 0,26,27
 614 -34 614 -34 678 44 c 0,28,29
 735 117 735 117 765 186 c 0,30,31
 773 202 773 202 781 200 c 128,-1,32
 789 198 789 198 782 182 c 0,33,34
 741 91 741 91 689 22 c 0,35,36
 662 -15 662 -15 622 -39.5 c 128,-1,37
 582 -64 582 -64 542.5 -64 c 128,-1,38
 503 -64 503 -64 483 -32.5 c 128,-1,39
 463 -1 463 -1 463 42 c 128,-1,40
 463 85 463 85 473.5 127 c 128,-1,41
 484 169 484 169 501 192 c 1,42,43
 400 71 400 71 286 -2 c 0,44,45
 226 -39 226 -39 153 -46 c 0,46,47
 146 -47 146 -47 129.5 -47 c 128,-1,48
 113 -47 113 -47 90 -35 c 0,49,50
 21 -6 21 -6 21 102 c 0,51,52
 21 198 21 198 88 332 c 0,53,54
 127 408 127 408 176 461 c 1,55,56
 112 491 112 491 82 525 c 0,57,58
 59 549 59 549 59 584 c 128,-1,59
 59 619 59 619 73 629 c 1,60,61
 83 642 83 642 91 632 c 0,62,63
 95 624 95 624 90 612 c 128,-1,64
 85 600 85 600 85 589 c 0,65,66
 85 565 85 565 110 539 c 0,67,68
 143 503 143 503 193 481 c 1,69,70
 288 584 288 584 406.5 645.5 c 128,-1,71
 525 707 525 707 655 707 c 0,72,73
 730 707 730 707 773.5 674.5 c 128,-1,74
 817 642 817 642 817 586 c 128,-1,75
 817 530 817 530 746 475 c 0,76,77
 652 403 652 403 445 403 c 0,78,79
 330 403 330 403 235 434 c 1,80,81
 211 412 211 412 169 346 c 128,-1,82
 127 280 127 280 98.5 209 c 128,-1,83
 70 138 70 138 70 86 c 0,84,85
 70 75 70 75 71 66 c 0,86,87
 83 -17 83 -17 155 -17 c 0,88,89
 236 -17 236 -17 343 71 c 0,90,91
 493 197 493 197 577 351 c 0,92,93
 607 405 607 405 632 405 c 0,16,17
778 601 m 0,94,95
 778 640 778 640 745 661.5 c 128,-1,96
 712 683 712 683 658 683 c 0,97,98
 537 683 537 683 439 621 c 128,-1,99
 341 559 341 559 250 452 c 1,100,101
 334 426 334 426 443 426 c 0,102,103
 621 426 621 426 710 486 c 0,104,105
 778 532 778 532 778 601 c 0,94,95
EndSplineSet
EndChar

StartChar: Aring
Encoding: 132 197 135
Width: 712
GlyphClass: 2
Flags: W
LayerCount: 2
Fore
SplineSet
783 758 m 128,-1,1
 796 758 796 758 805.5 769.5 c 128,-1,2
 815 781 815 781 817 797 c 0,3,4
 818 813 818 813 810 823.5 c 128,-1,5
 802 834 802 834 789 833 c 128,-1,6
 776 832 776 832 766 821.5 c 128,-1,7
 756 811 756 811 755 795 c 128,-1,8
 754 779 754 779 762 768.5 c 128,-1,0
 770 758 770 758 783 758 c 128,-1,1
837 835 m 128,-1,10
 853 821 853 821 853 798.5 c 128,-1,11
 853 776 853 776 831 759 c 0,12,13
 807 741 807 741 779 741 c 128,-1,14
 751 741 751 741 735.5 755 c 128,-1,15
 720 769 720 769 720 787 c 0,16,17
 720 813 720 813 742 830 c 0,18,19
 768 849 768 849 794.5 849 c 128,-1,9
 821 849 821 849 837 835 c 128,-1,10
632 405 m 0,20,21
 654 405 654 405 654 379 c 0,22,23
 654 351 654 351 631 325 c 0,24,25
 560 247 560 247 531 90 c 0,26,27
 525 57 525 57 525 27.5 c 128,-1,28
 525 -2 525 -2 537.5 -18 c 128,-1,29
 550 -34 550 -34 566 -34 c 0,30,31
 614 -34 614 -34 678 44 c 0,32,33
 735 117 735 117 765 186 c 0,34,35
 773 202 773 202 781 200 c 128,-1,36
 789 198 789 198 782 182 c 0,37,38
 741 91 741 91 689 22 c 0,39,40
 662 -15 662 -15 622 -39.5 c 128,-1,41
 582 -64 582 -64 542.5 -64 c 128,-1,42
 503 -64 503 -64 483 -32.5 c 128,-1,43
 463 -1 463 -1 463 42 c 128,-1,44
 463 85 463 85 473.5 127 c 128,-1,45
 484 169 484 169 501 192 c 1,46,47
 400 71 400 71 286 -2 c 0,48,49
 226 -39 226 -39 153 -46 c 0,50,51
 146 -47 146 -47 129.5 -47 c 128,-1,52
 113 -47 113 -47 90 -35 c 0,53,54
 21 -6 21 -6 21 102 c 0,55,56
 21 198 21 198 88 332 c 0,57,58
 127 408 127 408 176 461 c 1,59,60
 112 491 112 491 82 525 c 0,61,62
 59 549 59 549 59 584 c 128,-1,63
 59 619 59 619 73 629 c 1,64,65
 83 642 83 642 91 632 c 0,66,67
 95 624 95 624 90 612 c 128,-1,68
 85 600 85 600 85 589 c 0,69,70
 85 565 85 565 110 539 c 0,71,72
 143 503 143 503 193 481 c 1,73,74
 288 584 288 584 406.5 645.5 c 128,-1,75
 525 707 525 707 655 707 c 0,76,77
 730 707 730 707 773.5 674.5 c 128,-1,78
 817 642 817 642 817 586 c 128,-1,79
 817 530 817 530 746 475 c 0,80,81
 652 403 652 403 445 403 c 0,82,83
 330 403 330 403 235 434 c 1,84,85
 211 412 211 412 169 346 c 128,-1,86
 127 280 127 280 98.5 209 c 128,-1,87
 70 138 70 138 70 86 c 0,88,89
 70 75 70 75 71 66 c 0,90,91
 83 -17 83 -17 155 -17 c 0,92,93
 236 -17 236 -17 343 71 c 0,94,95
 493 197 493 197 577 351 c 0,96,97
 607 405 607 405 632 405 c 0,20,21
778 601 m 0,98,99
 778 640 778 640 745 661.5 c 128,-1,100
 712 683 712 683 658 683 c 0,101,102
 537 683 537 683 439 621 c 128,-1,103
 341 559 341 559 250 452 c 1,104,105
 334 426 334 426 443 426 c 0,106,107
 621 426 621 426 710 486 c 0,108,109
 778 532 778 532 778 601 c 0,98,99
EndSplineSet
EndChar

